<svg width="24" height="24" viewBox="0 0 24 24" fill="none" xmlns="http://www.w3.org/2000/svg">
<path fill-rule="evenodd" clip-rule="evenodd" d="M3.8806 12C6.14365 8.41604 8.85254 6.75 12 6.75C15.2583 6.75 18.0466 8.53548 20.3569 12.3859C20.57 12.7411 21.0307 12.8562 21.3859 12.6431C21.7411 12.43 21.8562 11.9693 21.6431 11.6141C19.1534 7.46452 15.9417 5.25 12 5.25C8.05833 5.25 4.84664 7.46452 2.35688 11.6141C2.21437 11.8516 2.21437 12.1484 2.35688 12.3859C4.84635 16.535 8.05757 18.7495 11.9986 18.75C12.9049 18.7533 13.8071 18.6288 14.6787 18.3802C15.077 18.2667 15.3078 17.8517 15.1942 17.4533C15.0807 17.055 14.6657 16.8242 14.2673 16.9378C13.5309 17.1477 12.7686 17.2529 12.0028 17.25L12 17.25C8.85254 17.25 6.14365 15.584 3.8806 12ZM10.0555 10.0555C10.5712 9.53973 11.2707 9.25 12 9.25C12.7293 9.25 13.4288 9.53973 13.9445 10.0555C14.4603 10.5712 14.75 11.2707 14.75 12C14.75 12.7293 14.4603 13.4288 13.9445 13.9445C13.4288 14.4603 12.7293 14.75 12 14.75C11.2707 14.75 10.5712 14.4603 10.0555 13.9445C9.53973 13.4288 9.25 12.7293 9.25 12C9.25 11.2707 9.53973 10.5712 10.0555 10.0555ZM12 10.75C11.6685 10.75 11.3505 10.8817 11.1161 11.1161C10.8817 11.3505 10.75 11.6685 10.75 12C10.75 12.3315 10.8817 12.6495 11.1161 12.8839C11.3505 13.1183 11.6685 13.25 12 13.25C12.3315 13.25 12.6495 13.1183 12.8839 12.8839C13.1183 12.6495 13.25 12.3315 13.25 12C13.25 11.6685 13.1183 11.3505 12.8839 11.1161C12.6495 10.8817 12.3315 10.75 12 10.75ZM19 15.25C19.4142 15.25 19.75 15.5858 19.75 16V19C19.75 19.4142 19.4142 19.75 19 19.75C18.5858 19.75 18.25 19.4142 18.25 19V16C18.25 15.5858 18.5858 15.25 19 15.25ZM19 21.25C19.4142 21.25 19.75 21.5858 19.75 22V22.01C19.75 22.4242 19.4142 22.76 19 22.76C18.5858 22.76 18.25 22.4242 18.25 22.01V22C18.25 21.5858 18.5858 21.25 19 21.25Z" fill="#18181A"/>
</svg>
