<svg width="24" height="24" viewBox="0 0 24 24" fill="none" xmlns="http://www.w3.org/2000/svg">
<path fill-rule="evenodd" clip-rule="evenodd" d="M10.5969 2.60242C11.007 2.37172 11.4695 2.25053 11.94 2.25053C12.4105 2.25053 12.873 2.37172 13.283 2.60242C13.6931 2.83312 14.0368 3.16554 14.281 3.56766L14.2834 3.57156L22.7127 17.6421C22.9516 18.0562 23.078 18.5257 23.0792 19.0037C23.0805 19.4818 22.9567 19.9519 22.7199 20.3673C22.4832 20.7827 22.1419 21.1289 21.7299 21.3714C21.3179 21.614 20.8496 21.7445 20.3716 21.75L20.363 21.7501L3.50941 21.75C3.03136 21.7445 2.56305 21.614 2.15107 21.3714C1.73908 21.1289 1.39776 20.7827 1.16104 20.3673C0.924321 19.9519 0.800448 19.4818 0.801737 19.0037C0.803027 18.5257 0.929433 18.0562 1.16839 17.6421L1.1745 17.6316L9.59659 3.5716L9.59896 3.56766C9.8432 3.16554 10.1869 2.83312 10.5969 2.60242ZM11.94 3.75053C11.7272 3.75053 11.5179 3.80535 11.3324 3.90971C11.1476 4.01374 10.9925 4.16349 10.8821 4.34461C10.8817 4.34519 10.8814 4.34576 10.881 4.34634L2.4649 18.3965C2.35855 18.5827 2.30231 18.7933 2.30173 19.0078C2.30115 19.2241 2.35718 19.4367 2.46426 19.6246C2.57135 19.8125 2.72574 19.9691 2.91211 20.0788C3.09737 20.1879 3.30782 20.2469 3.52274 20.25H20.3582C20.5732 20.2469 20.7836 20.1879 20.9689 20.0788C21.1552 19.9691 21.3096 19.8125 21.4167 19.6246C21.5238 19.4367 21.5798 19.2241 21.5792 19.0078C21.5787 18.7933 21.5224 18.5827 21.4161 18.3965L12.999 4.34634C12.9986 4.34577 12.9983 4.34519 12.9979 4.34461C12.8875 4.16349 12.7324 4.01374 12.5475 3.90971C12.362 3.80535 12.1528 3.75053 11.94 3.75053ZM12 8.25C12.4142 8.25 12.75 8.58579 12.75 9V13C12.75 13.4142 12.4142 13.75 12 13.75C11.5858 13.75 11.25 13.4142 11.25 13V9C11.25 8.58579 11.5858 8.25 12 8.25ZM11.25 17C11.25 16.5858 11.5858 16.25 12 16.25H12.01C12.4242 16.25 12.76 16.5858 12.76 17C12.76 17.4142 12.4242 17.75 12.01 17.75H12C11.5858 17.75 11.25 17.4142 11.25 17Z" fill="#18181A"/>
</svg>
