<svg width="24" height="24" viewBox="0 0 24 24" fill="none" xmlns="http://www.w3.org/2000/svg">
<path fill-rule="evenodd" clip-rule="evenodd" d="M7 4.0752C6.66848 4.0752 6.35054 4.20689 6.11612 4.44131C5.8817 4.67573 5.75 4.99367 5.75 5.3252V19.3252C5.75 19.6567 5.8817 19.9747 6.11612 20.2091C6.35054 20.4435 6.66848 20.5752 7 20.5752H17C17.3315 20.5752 17.6495 20.4435 17.8839 20.2091C18.1183 19.9747 18.25 19.6567 18.25 19.3252V5.3252C18.25 4.99367 18.1183 4.67573 17.8839 4.44131C17.6495 4.20689 17.3315 4.0752 17 4.0752H7ZM5.05546 3.38065C5.57118 2.86493 6.27065 2.5752 7 2.5752H17C17.7293 2.5752 18.4288 2.86493 18.9445 3.38065C19.4603 3.89638 19.75 4.59585 19.75 5.3252V19.3252C19.75 20.0545 19.4603 20.754 18.9445 21.2697C18.4288 21.7855 17.7293 22.0752 17 22.0752H7C6.27065 22.0752 5.57118 21.7855 5.05546 21.2697C4.53973 20.754 4.25 20.0545 4.25 19.3252V5.3252C4.25 4.59585 4.53973 3.89638 5.05546 3.38065ZM8.25 7.3252C8.25 6.91098 8.58579 6.5752 9 6.5752H15C15.4142 6.5752 15.75 6.91098 15.75 7.3252C15.75 7.73941 15.4142 8.0752 15 8.0752H9C8.58579 8.0752 8.25 7.73941 8.25 7.3252ZM8.25 11.3252C8.25 10.911 8.58579 10.5752 9 10.5752H15C15.4142 10.5752 15.75 10.911 15.75 11.3252C15.75 11.7394 15.4142 12.0752 15 12.0752H9C8.58579 12.0752 8.25 11.7394 8.25 11.3252ZM8.25 15.3252C8.25 14.911 8.58579 14.5752 9 14.5752H13C13.4142 14.5752 13.75 14.911 13.75 15.3252C13.75 15.7394 13.4142 16.0752 13 16.0752H9C8.58579 16.0752 8.25 15.7394 8.25 15.3252Z" fill="#18181A"/>
</svg>
