<svg width="24" height="24" viewBox="0 0 24 24" fill="none" xmlns="http://www.w3.org/2000/svg">
<path fill-rule="evenodd" clip-rule="evenodd" d="M21 21V12C21 7.02944 16.9706 3 12 3C7.02944 3 3 7.02944 3 12C3 16.9706 7.02944 21 12 21H21ZM12 1.5C6.20101 1.5 1.5 6.20101 1.5 12C1.5 17.799 6.20101 22.5 12 22.5H22.5V12C22.5 6.20101 17.799 1.5 12 1.5Z" fill="#18181A"/>
<path fill-rule="evenodd" clip-rule="evenodd" d="M12.3093 5.25C12.5948 5.25 12.8555 5.41208 12.9818 5.66808L14.757 9.26505L18.7261 9.84029C19.0088 9.88125 19.2437 10.0792 19.3319 10.3509C19.4201 10.6225 19.3464 10.9207 19.1417 11.12L16.2654 13.9197L16.9436 17.8732C16.9919 18.1547 16.8761 18.4392 16.645 18.607C16.4138 18.7747 16.1074 18.7967 15.8548 18.6635L12.3133 16.7973L8.76318 18.6638C8.51049 18.7967 8.20428 18.7746 7.97332 18.6068C7.74235 18.439 7.62669 18.1546 7.67496 17.8732L8.35314 13.9197L5.47687 11.12C5.2722 10.9207 5.19846 10.6225 5.28668 10.3509C5.3749 10.0792 5.60976 9.88125 5.89243 9.84029L9.86153 9.26505L11.6367 5.66808C11.7631 5.41208 12.0238 5.25 12.3093 5.25ZM12.3093 7.69468L11.0321 10.2826C10.9228 10.5041 10.7115 10.6575 10.4671 10.693L7.61356 11.1065L9.6822 13.1201C9.85922 13.2924 9.94003 13.5409 9.89827 13.7844L9.41031 16.6289L11.9647 15.2859C12.1834 15.1709 12.4447 15.1711 12.6633 15.2863L15.2079 16.6272L14.7203 13.7844C14.6785 13.5409 14.7593 13.2924 14.9364 13.1201L17.005 11.1065L14.1515 10.693C13.9071 10.6575 13.6958 10.5041 13.5865 10.2826L12.3093 7.69468Z" fill="#18181A"/>
</svg>
