<svg width="24" height="24" viewBox="0 0 24 24" fill="none" xmlns="http://www.w3.org/2000/svg">
<path fill-rule="evenodd" clip-rule="evenodd" d="M11.2294 20.5151C9.30216 20.3439 7.48986 19.5247 6.08815 18.191C4.68645 16.8573 3.77808 15.0879 3.51116 13.1714C3.24425 11.2549 3.63455 9.30443 4.61839 7.63807C5.60222 5.97172 7.12156 4.6878 8.92857 3.99578C10.7356 3.30377 12.7236 3.24447 14.5685 3.82761C16.4133 4.41075 18.006 5.60191 19.0868 7.20675C20.1675 8.81147 20.6726 10.7351 20.5198 12.664C20.4191 13.9624 20.0225 15.2206 19.3604 16.342C18.6983 17.4635 17.7883 18.4185 16.7 19.1338C15.0849 20.1993 13.1566 20.6862 11.2294 20.5151ZM6.77746 17.4665C8.01535 18.6443 9.61585 19.3678 11.3179 19.519C13.0199 19.6702 14.7231 19.2401 16.1496 18.2989L16.1504 18.2984C17.1112 17.6669 17.9147 16.8238 18.4993 15.8336C19.0839 14.8435 19.434 13.7326 19.5228 12.5863L19.5229 12.5854C19.658 10.8817 19.2119 9.18265 18.2574 7.76535C17.3029 6.34804 15.8963 5.2961 14.2671 4.78111C12.6379 4.26613 10.8821 4.31848 9.2862 4.92965C7.6903 5.54081 6.34843 6.67475 5.4795 8.14648C4.61057 9.61821 4.26587 11.3409 4.5016 13.0335C4.73733 14.7261 5.53957 16.2887 6.77746 17.4665Z" fill="#18181A"/>
<path d="M5.8508 14.5104C4.80004 13.9037 3.44971 14.2754 2.83476 15.3405C2.21981 16.4057 2.5731 17.7609 3.62386 18.3676C4.67462 18.9742 6.02494 18.6025 6.6399 17.5374C7.25485 16.4723 6.90156 15.117 5.8508 14.5104Z" fill="#18181A"/>
<path d="M13.9455 2.31821C12.9017 1.71556 11.5603 2.08477 10.9494 3.14285C10.3386 4.20092 10.6895 5.54721 11.7333 6.14985C12.7771 6.75249 14.1185 6.38328 14.7294 5.32521C15.3403 4.26713 14.9893 2.92085 13.9455 2.31821Z" fill="#18181A"/>
<path d="M6.73606 5.55454C5.4874 4.83362 3.88274 5.27529 3.15196 6.54103C2.42118 7.80677 2.84102 9.41728 4.08969 10.1382C5.33836 10.8591 6.94301 10.4175 7.67379 9.15171C8.40457 7.88597 7.98473 6.27546 6.73606 5.55454Z" fill="#18181A"/>
<path d="M21.17 8.84708C19.9214 8.12616 18.3167 8.56783 17.5859 9.83357C16.8551 11.0993 17.275 12.7098 18.5236 13.4307C19.7723 14.1517 21.377 13.71 22.1078 12.4443C22.8385 11.1785 22.4187 9.568 21.17 8.84708Z" fill="#18181A"/>
<path d="M17.1589 17.2503C15.9984 16.5803 14.5071 16.9908 13.8279 18.1671C13.1487 19.3435 13.5389 20.8403 14.6994 21.5103C15.8599 22.1804 17.3513 21.7699 18.0304 20.5935C18.7096 19.4171 18.3194 17.9203 17.1589 17.2503Z" fill="#18181A"/>
<rect x="9.97884" y="9.98004" width="4" height="4" rx="2" fill="#18181A"/>
</svg>
