<svg width="24" height="24" viewBox="0 0 24 24" fill="none" xmlns="http://www.w3.org/2000/svg">
<path fill-rule="evenodd" clip-rule="evenodd" d="M20.6304 20.6303V11.8028C20.6304 6.92755 16.6782 2.97534 11.8029 2.97534C6.92758 2.97534 2.97537 6.92755 2.97537 11.8028C2.97537 16.6781 6.92758 20.6303 11.8029 20.6303H20.6304ZM11.8029 1.47534C6.09915 1.47534 1.47537 6.09912 1.47537 11.8028C1.47537 17.5066 6.09915 22.1303 11.8029 22.1303H22.1304V11.8028C22.1304 6.09912 17.5066 1.47534 11.8029 1.47534Z" fill="#18181A"/>
<path d="M12.4313 15.9498L8.5318 18L9.2767 13.6576L6.11765 10.5825L10.4771 9.95072L12.4269 6L14.3767 9.95072L18.7362 10.5825L15.5771 13.6576L16.322 18L12.4313 15.9498Z" fill="#18181A"/>
<path fill-rule="evenodd" clip-rule="evenodd" d="M12.4269 5.46545C12.6304 5.46545 12.8162 5.58097 12.9063 5.76344L14.7316 9.46203L18.8129 10.0535C19.0143 10.0827 19.1817 10.2238 19.2446 10.4174C19.3075 10.6111 19.2549 10.8236 19.109 10.9656L16.1515 13.8444L16.8489 17.9096C16.8833 18.1103 16.8008 18.313 16.636 18.4326C16.4713 18.5522 16.2529 18.5678 16.0728 18.4729L12.4311 16.5539L8.78055 18.4732C8.60045 18.5678 8.38221 18.5521 8.21759 18.4325C8.05297 18.3129 7.97053 18.1102 8.00493 17.9096L8.70228 13.8444L5.74478 10.9656C5.5989 10.8236 5.54634 10.6111 5.60922 10.4174C5.6721 10.2238 5.8395 10.0827 6.04097 10.0535L10.1222 9.46203L11.9476 5.76344C12.0376 5.58097 12.2234 5.46545 12.4269 5.46545ZM12.4269 7.20787L10.9565 10.1873C10.8786 10.3451 10.728 10.4545 10.5538 10.4798L7.26768 10.956L9.64956 13.2745C9.77573 13.3973 9.83333 13.5744 9.80356 13.7479L9.24179 17.0228L12.1826 15.4766C12.3385 15.3947 12.5247 15.3948 12.6805 15.4769L15.6118 17.0215L15.0503 13.7479C15.0205 13.5744 15.0781 13.3973 15.2043 13.2745L17.5861 10.956L14.3 10.4798C14.1258 10.4545 13.9752 10.3451 13.8973 10.1873L12.4269 7.20787Z" fill="#18181A"/>
</svg>
