<svg width="24" height="24" viewBox="0 0 24 24" fill="none" xmlns="http://www.w3.org/2000/svg">
<path fill-rule="evenodd" clip-rule="evenodd" d="M5.39258 7.9378C5.39258 7.27711 4.85699 6.74152 4.1963 6.74152C3.53561 6.74152 3.00002 7.27711 3.00002 7.9378C3.00002 8.59849 3.53561 9.13408 4.1963 9.13408H4.55011C4.96122 9.13408 5.35549 9.29739 5.64618 9.58809L5.89101 9.83291C6.33846 10.2804 6.58984 10.8872 6.58984 11.52V12.1916C6.58984 12.861 6.32393 13.5029 5.8506 13.9763L5.54863 14.2782C5.26865 14.5582 4.88891 14.7155 4.49296 14.7155H4.1963C3.53561 14.7155 3.00002 15.2511 3.00002 15.9118C3.00002 16.5725 3.53561 17.1081 4.1963 17.1081C4.85699 17.1081 5.39258 16.5725 5.39258 15.9118V15.6162C5.39258 15.2205 5.54976 14.841 5.82955 14.5613L6.26555 14.1253C6.65163 13.7392 7.17526 13.5223 7.72125 13.5223H8.18488C9.0658 13.5223 9.77993 12.8082 9.77993 11.9272C9.77993 11.0463 9.0658 10.3322 8.18488 10.3322H7.78185C7.25193 10.3322 6.74371 10.1217 6.369 9.74697L5.81281 9.19078C5.54374 8.92171 5.39258 8.55678 5.39258 8.17626V7.9378Z" fill="#18181A"/>
<path fill-rule="evenodd" clip-rule="evenodd" d="M18.6074 15.9107C18.6074 16.5714 19.143 17.107 19.8037 17.107C20.4644 17.107 21 16.5714 21 15.9107C21 15.25 20.4644 14.7144 19.8037 14.7144L19.4499 14.7144C19.0388 14.7144 18.6445 14.5511 18.3538 14.2604L18.109 14.0156C17.6616 13.5681 17.4102 12.9612 17.4102 12.3284L17.4102 11.657C17.4102 10.9876 17.6761 10.3456 18.1494 9.87225L18.4515 9.57024C18.7314 9.29027 19.1112 9.13298 19.5071 9.13298L19.8037 9.13298C20.4644 9.13298 21 8.59739 21 7.9367C21 7.27601 20.4644 6.74042 19.8037 6.74042C19.143 6.74042 18.6074 7.27601 18.6074 7.9367L18.6074 8.23235C18.6074 8.62804 18.4502 9.00752 18.1705 9.28731L17.7345 9.7233C17.3484 10.1094 16.8248 10.3263 16.2788 10.3263L15.8151 10.3263C14.9342 10.3263 14.2201 11.0404 14.2201 11.9213C14.2201 12.8022 14.9342 13.5164 15.8151 13.5164L16.2182 13.5164C16.7481 13.5164 17.2564 13.7269 17.6311 14.1016L18.1872 14.6577C18.4563 14.9268 18.6074 15.2917 18.6074 15.6722L18.6074 15.9107Z" fill="#18181A"/>
<path fill-rule="evenodd" clip-rule="evenodd" d="M15.9116 5.39263C16.5723 5.39263 17.1079 4.85703 17.1079 4.19634C17.1079 3.53566 16.5723 3.00006 15.9116 3.00006C15.2509 3.00006 14.7153 3.53565 14.7153 4.19634L14.7153 4.55076C14.7153 4.96203 14.5519 5.35645 14.2611 5.64727L14.0165 5.89188C13.5691 6.33932 12.9622 6.59069 12.3294 6.59069L11.6577 6.59069C10.9879 6.59069 10.3456 6.32463 9.87201 5.85105L9.56963 5.54868C9.28965 5.2687 9.13236 4.88897 9.13236 4.49302L9.13236 4.19637C9.13236 3.53568 8.59677 3.00008 7.93608 3.00008C7.27539 3.00008 6.7398 3.53568 6.7398 4.19637C6.7398 4.85705 7.27539 5.39265 7.93608 5.39265L8.2317 5.39265C8.62738 5.39265 9.00686 5.54983 9.28664 5.82962L9.72531 6.26828C10.1112 6.65415 10.328 7.1775 10.328 7.72321L10.328 8.18573C10.328 9.06665 11.0421 9.78078 11.923 9.78078C12.8039 9.78078 13.518 9.06665 13.518 8.18573L13.518 7.78213C13.518 7.25206 13.7286 6.7437 14.1034 6.36888L14.6596 5.81268C14.9286 5.54372 15.2934 5.39263 15.6737 5.39263L15.9116 5.39263Z" fill="#18181A"/>
<path fill-rule="evenodd" clip-rule="evenodd" d="M7.93714 18.6101C7.27645 18.6101 6.74086 19.1457 6.74086 19.8064C6.74086 20.4671 7.27645 21.0027 7.93714 21.0027C8.59783 21.0027 9.13342 20.4671 9.13342 19.8064L9.13342 19.4527C9.13342 19.0416 9.29672 18.6474 9.5874 18.3567L9.83274 18.1114C10.2805 17.6636 10.8878 17.4121 11.521 17.4121L12.191 17.4121C12.8608 17.4121 13.5031 17.6781 13.9767 18.1517L14.279 18.454C14.559 18.734 14.7163 19.1138 14.7163 19.5097L14.7163 19.8064C14.7163 20.4671 15.2519 21.0027 15.9126 21.0027C16.5733 21.0027 17.1088 20.4671 17.1088 19.8064C17.1088 19.1457 16.5733 18.6101 15.9126 18.6101L15.617 18.6101C15.2213 18.6101 14.8418 18.4529 14.562 18.1731L14.1234 17.7345C13.7376 17.3487 13.5208 16.8253 13.5208 16.2796L13.5208 15.817C13.5208 14.9361 12.8066 14.222 11.9257 14.222C11.0448 14.222 10.3307 14.9361 10.3307 15.817L10.3307 16.2213C10.3307 16.7516 10.12 17.2602 9.74508 17.6351L9.19033 18.1899C8.92124 18.4589 8.55627 18.6101 8.17573 18.6101L7.93714 18.6101Z" fill="#18181A"/>
</svg>
