<svg width="24" height="24" viewBox="0 0 24 24" fill="none" xmlns="http://www.w3.org/2000/svg">
<path fill-rule="evenodd" clip-rule="evenodd" d="M10.5 3.75C8.98122 3.75 7.75 4.98122 7.75 6.5V15.5C7.75 17.8472 9.65279 19.75 12 19.75C14.3472 19.75 16.25 17.8472 16.25 15.5V11C16.25 10.5858 16.5858 10.25 17 10.25C17.4142 10.25 17.75 10.5858 17.75 11V15.5C17.75 18.6756 15.1756 21.25 12 21.25C8.82436 21.25 6.25 18.6756 6.25 15.5V6.5C6.25 4.15279 8.15279 2.25 10.5 2.25C12.8472 2.25 14.75 4.15279 14.75 6.5V15.75C14.75 17.1307 13.6307 18.25 12.25 18.25C10.8693 18.25 9.75 17.1307 9.75 15.75V7C9.75 6.58579 10.0858 6.25 10.5 6.25C10.9142 6.25 11.25 6.58579 11.25 7V15.75C11.25 16.3023 11.6977 16.75 12.25 16.75C12.8023 16.75 13.25 16.3023 13.25 15.75V6.5C13.25 4.98122 12.0188 3.75 10.5 3.75Z" fill="#18181A"/>
</svg>
