<svg width="24" height="24" viewBox="0 0 24 24" fill="none" xmlns="http://www.w3.org/2000/svg">
<path fill-rule="evenodd" clip-rule="evenodd" d="M12 3.75C11.6685 3.75 11.3505 3.8817 11.1161 4.11612C10.8817 4.35054 10.75 4.66848 10.75 5C10.75 5.29002 10.5828 5.55405 10.3206 5.67802C9.29524 6.16287 8.42114 6.9176 7.79199 7.86132C7.166 8.80031 6.80598 9.89117 6.75 11.0181V14C6.75 14.0301 6.74819 14.0602 6.74457 14.0901C6.6552 14.8284 6.39374 15.5354 5.98123 16.1542C5.95973 16.1864 5.93786 16.2183 5.91562 16.25H18.0844C18.0621 16.2183 18.0403 16.1864 18.0188 16.1542C17.6063 15.5354 17.3448 14.8284 17.2554 14.0901C17.2518 14.0602 17.25 14.0301 17.25 14V11.0181C17.194 9.89117 16.834 8.80031 16.208 7.86132C15.5789 6.9176 14.7048 6.16287 13.6794 5.67802C13.4172 5.55405 13.25 5.29002 13.25 5C13.25 4.66848 13.1183 4.35054 12.8839 4.11612C12.6495 3.8817 12.3315 3.75 12 3.75ZM14.25 17.75H9.75V18C9.75 18.5967 9.98705 19.169 10.409 19.591C10.831 20.0129 11.4033 20.25 12 20.25C12.5967 20.25 13.169 20.0129 13.591 19.591C14.0129 19.169 14.25 18.5967 14.25 18V17.75ZM8.25 17.75V18C8.25 18.9946 8.64509 19.9484 9.34835 20.6517C10.0516 21.3549 11.0054 21.75 12 21.75C12.9946 21.75 13.9484 21.3549 14.6517 20.6517C15.3549 19.9484 15.75 18.9946 15.75 18V17.75H20C20.3406 17.75 20.6385 17.5205 20.7252 17.1911C20.812 16.8617 20.666 16.5152 20.3696 16.3474C19.9268 16.0966 19.5491 15.7455 19.2669 15.3221C18.9925 14.9106 18.8158 14.4422 18.75 13.9524V11C18.75 10.9883 18.7497 10.9765 18.7492 10.9648C18.6832 9.55995 18.2362 8.19949 17.4561 7.02927C16.7563 5.97962 15.8122 5.11853 14.7075 4.51836C14.6096 3.96791 14.3453 3.45621 13.9445 3.05546C13.4288 2.53973 12.7293 2.25 12 2.25C11.2707 2.25 10.5712 2.53973 10.0555 3.05546C9.65471 3.45621 9.39042 3.96791 9.29249 4.51836C8.18782 5.11852 7.24368 5.97962 6.54391 7.02927C5.76377 8.19949 5.31677 9.55995 5.25082 10.9648C5.25028 10.9765 5.25 10.9883 5.25 11V13.9524C5.18415 14.4422 5.00746 14.9106 4.73315 15.3221C4.4509 15.7455 4.0732 16.0966 3.63044 16.3474C3.33404 16.5152 3.18797 16.8617 3.27475 17.1911C3.36154 17.5205 3.65938 17.75 4 17.75H8.25Z" fill="#18181A"/>
</svg>
