<svg width="24" height="24" viewBox="0 0 24 24" fill="none" xmlns="http://www.w3.org/2000/svg">
<path fill-rule="evenodd" clip-rule="evenodd" d="M15.7312 2.99217C14.5482 2.50219 13.2804 2.25 12 2.25C10.7196 2.25 9.45176 2.50219 8.26884 2.99217C7.08591 3.48216 6.01108 4.20034 5.10571 5.10571C4.20034 6.01108 3.48216 7.08591 2.99217 8.26884C2.50219 9.45176 2.25 10.7196 2.25 12C2.25 13.2804 2.50219 14.5482 2.99217 15.7312C3.48216 16.9141 4.20034 17.9889 5.10571 18.8943C6.01108 19.7997 7.08591 20.5178 8.26884 21.0078C9.45176 21.4978 10.7196 21.75 12 21.75C13.2804 21.75 14.5482 21.4978 15.7312 21.0078C16.9141 20.5178 17.9889 19.7997 18.8943 18.8943C19.7997 17.9889 20.5178 16.9141 21.0078 15.7312C21.4978 14.5482 21.75 13.2804 21.75 12C21.75 10.7196 21.4978 9.45176 21.0078 8.26884C20.5178 7.08591 19.7997 6.01108 18.8943 5.10571C17.9889 4.20034 16.9141 3.48216 15.7312 2.99217ZM12 3.75C13.0834 3.75 14.1562 3.96339 15.1571 4.37799C15.9263 4.69661 16.6415 5.12926 17.2791 5.66019L5.66019 17.2791C5.12926 16.6415 4.69661 15.9263 4.37799 15.1571C3.96339 14.1562 3.75 13.0834 3.75 12C3.75 10.9166 3.96339 9.8438 4.37799 8.84286C4.79259 7.84193 5.40029 6.93245 6.16637 6.16637C6.93245 5.40029 7.84193 4.7926 8.84286 4.37799C9.8438 3.96339 10.9166 3.75 12 3.75ZM6.72085 18.3398L18.3398 6.72085C18.8707 7.35846 19.3034 8.07365 19.622 8.84286C20.0366 9.8438 20.25 10.9166 20.25 12C20.25 13.0834 20.0366 14.1562 19.622 15.1571C19.2074 16.1581 18.5997 17.0675 17.8336 17.8336C17.0675 18.5997 16.1581 19.2074 15.1571 19.622C14.1562 20.0366 13.0834 20.25 12 20.25C10.9166 20.25 9.8438 20.0366 8.84286 19.622C8.07366 19.3034 7.35846 18.8707 6.72085 18.3398Z" fill="#18181A"/>
</svg>
