<svg width="24" height="24" viewBox="0 0 24 24" fill="none" xmlns="http://www.w3.org/2000/svg">
<path d="M4.25 12C4.25 11.4477 4.69772 11 5.25 11H18.75C19.3023 11 19.75 11.4477 19.75 12C19.75 12.5523 19.3023 13 18.75 13H5.25C4.69772 13 4.25 12.5523 4.25 12Z" fill="#18181A"/>
<path d="M4.25 17C4.25 16.4477 4.69772 16 5.25 16H18.75C19.3023 16 19.75 16.4477 19.75 17C19.75 17.5523 19.3023 18 18.75 18H5.25C4.69772 18 4.25 17.5523 4.25 17Z" fill="#18181A"/>
<path d="M4.25 7C4.25 6.44772 4.69772 6 5.25 6H18.75C19.3023 6 19.75 6.44772 19.75 7C19.75 7.55228 19.3023 8 18.75 8H5.25C4.69772 8 4.25 7.55228 4.25 7Z" fill="#18181A"/>
</svg>
