<svg width="24" height="24" viewBox="0 0 24 24" fill="none" xmlns="http://www.w3.org/2000/svg">
<path fill-rule="evenodd" clip-rule="evenodd" d="M9 4.75C8.9337 4.75 8.87011 4.77634 8.82322 4.82322C8.77634 4.87011 8.75 4.9337 8.75 5C8.75 5.72935 8.46027 6.42882 7.94454 6.94454C7.42882 7.46027 6.72935 7.75 6 7.75H5C4.66848 7.75 4.35054 7.8817 4.11612 8.11612C3.8817 8.35054 3.75 8.66848 3.75 9V18C3.75 18.3315 3.8817 18.6495 4.11612 18.8839C4.35054 19.1183 4.66848 19.25 5 19.25H19C19.3315 19.25 19.6495 19.1183 19.8839 18.8839C20.1183 18.6495 20.25 18.3315 20.25 18V9C20.25 8.66848 20.1183 8.35054 19.8839 8.11612C19.6495 7.8817 19.3315 7.75 19 7.75H18C17.2707 7.75 16.5712 7.46027 16.0555 6.94454C15.5397 6.42882 15.25 5.72935 15.25 5C15.25 4.9337 15.2237 4.87011 15.1768 4.82322C15.1299 4.77634 15.0663 4.75 15 4.75H9ZM7.76256 3.76256C8.09075 3.43438 8.53587 3.25 9 3.25H15C15.4641 3.25 15.9092 3.43438 16.2374 3.76256C16.5656 4.09075 16.75 4.53587 16.75 5C16.75 5.33152 16.8817 5.64946 17.1161 5.88388C17.3505 6.1183 17.6685 6.25 18 6.25H19C19.7293 6.25 20.4288 6.53973 20.9445 7.05546C21.4603 7.57118 21.75 8.27065 21.75 9V18C21.75 18.7293 21.4603 19.4288 20.9445 19.9445C20.4288 20.4603 19.7293 20.75 19 20.75H5C4.27065 20.75 3.57118 20.4603 3.05546 19.9445C2.53973 19.4288 2.25 18.7293 2.25 18V9C2.25 8.27065 2.53973 7.57118 3.05546 7.05546C3.57118 6.53973 4.27065 6.25 5 6.25H6C6.33152 6.25 6.64946 6.1183 6.88388 5.88388C7.1183 5.64946 7.25 5.33152 7.25 5C7.25 4.53587 7.43437 4.09075 7.76256 3.76256ZM9.34835 10.3483C10.0516 9.64509 11.0054 9.25 12 9.25C12.9946 9.25 13.9484 9.64509 14.6517 10.3483C15.3549 11.0516 15.75 12.0054 15.75 13C15.75 13.9946 15.3549 14.9484 14.6517 15.6517C13.9484 16.3549 12.9946 16.75 12 16.75C11.0054 16.75 10.0516 16.3549 9.34835 15.6517C8.64509 14.9484 8.25 13.9946 8.25 13C8.25 12.0054 8.64509 11.0516 9.34835 10.3483ZM12 10.75C11.4033 10.75 10.831 10.9871 10.409 11.409C9.98705 11.831 9.75 12.4033 9.75 13C9.75 13.5967 9.98705 14.169 10.409 14.591C10.831 15.0129 11.4033 15.25 12 15.25C12.5967 15.25 13.169 15.0129 13.591 14.591C14.0129 14.169 14.25 13.5967 14.25 13C14.25 12.4033 14.0129 11.831 13.591 11.409C13.169 10.9871 12.5967 10.75 12 10.75Z" fill="#18181A"/>
</svg>
