<svg width="24" height="24" viewBox="0 0 24 24" fill="none" xmlns="http://www.w3.org/2000/svg">
<path fill-rule="evenodd" clip-rule="evenodd" d="M5 5.75C4.31421 5.75 3.75 6.31421 3.75 7V17C3.75 17.3315 3.8817 17.6495 4.11612 17.8839C4.35054 18.1183 4.66848 18.25 5 18.25H10C10.4142 18.25 10.75 18.5858 10.75 19C10.75 19.4142 10.4142 19.75 10 19.75H5C4.27065 19.75 3.57118 19.4603 3.05546 18.9445C2.53973 18.4288 2.25 17.7293 2.25 17V7C2.25 5.48579 3.48579 4.25 5 4.25H19C19.7293 4.25 20.4288 4.53973 20.9445 5.05546C21.4603 5.57118 21.75 6.27065 21.75 7V17C21.7495 17.4822 21.6222 17.9567 21.3809 18.3742C21.1395 18.7917 20.7926 19.1384 20.375 19.3795C20.0163 19.5866 19.5576 19.4637 19.3505 19.105C19.1434 18.7463 19.2663 18.2876 19.625 18.0805C19.8148 17.9709 19.9725 17.8133 20.0822 17.6235C20.1919 17.4337 20.2498 17.2184 20.25 16.9992V7C20.25 6.66848 20.1183 6.35054 19.8839 6.11612C19.6495 5.8817 19.3315 5.75 19 5.75H5ZM5.25 9C5.25 8.58579 5.58579 8.25 6 8.25H18C18.4142 8.25 18.75 8.58579 18.75 9C18.75 9.41421 18.4142 9.75 18 9.75H6C5.58579 9.75 5.25 9.41421 5.25 9ZM5.25 12C5.25 11.5858 5.58579 11.25 6 11.25H9C9.41421 11.25 9.75 11.5858 9.75 12C9.75 12.4142 9.41421 12.75 9 12.75H6C5.58579 12.75 5.25 12.4142 5.25 12ZM12.3483 12.3483C13.0516 11.6451 14.0054 11.25 15 11.25C15.9946 11.25 16.9484 11.6451 17.6517 12.3483C18.3549 13.0516 18.75 14.0054 18.75 15C18.75 15.9472 18.3916 16.8575 17.75 17.5495V22C17.75 22.2841 17.5895 22.5438 17.3354 22.6708C17.0813 22.7979 16.7773 22.7704 16.55 22.6L15 21.4375L13.45 22.6C13.2227 22.7704 12.9187 22.7979 12.6646 22.6708C12.4105 22.5438 12.25 22.2841 12.25 22V17.5495C11.6084 16.8575 11.25 15.9472 11.25 15C11.25 14.0054 11.6451 13.0516 12.3483 12.3483ZM13.75 18.5355V20.5L14.55 19.9C14.8167 19.7 15.1833 19.7 15.45 19.9L16.25 20.5V18.5355C15.8522 18.6762 15.4299 18.75 15 18.75C14.5701 18.75 14.1478 18.6762 13.75 18.5355ZM15 12.75C14.4033 12.75 13.831 12.9871 13.409 13.409C12.9871 13.831 12.75 14.4033 12.75 15C12.75 15.5967 12.9871 16.169 13.409 16.591C13.831 17.0129 14.4033 17.25 15 17.25C15.5967 17.25 16.169 17.0129 16.591 16.591C17.0129 16.169 17.25 15.5967 17.25 15C17.25 14.4033 17.0129 13.831 16.591 13.409C16.169 12.9871 15.5967 12.75 15 12.75ZM5.25 15C5.25 14.5858 5.58579 14.25 6 14.25H8C8.41421 14.25 8.75 14.5858 8.75 15C8.75 15.4142 8.41421 15.75 8 15.75H6C5.58579 15.75 5.25 15.4142 5.25 15Z" fill="#18181A"/>
</svg>
