<svg width="24" height="24" viewBox="0 0 24 24" fill="none" xmlns="http://www.w3.org/2000/svg">
<path fill-rule="evenodd" clip-rule="evenodd" d="M6 4.75C5.40326 4.75 4.83097 4.98705 4.40901 5.40901C3.98705 5.83097 3.75 6.40326 3.75 7V15C3.75 15.5967 3.98705 16.169 4.40901 16.591C4.83097 17.0129 5.40326 17.25 6 17.25H9C9.19891 17.25 9.38968 17.329 9.53033 17.4697L12 19.9393L14.4697 17.4697C14.6103 17.329 14.8011 17.25 15 17.25H18C18.5967 17.25 19.169 17.0129 19.591 16.591C20.0129 16.169 20.25 15.5967 20.25 15V7C20.25 6.40326 20.0129 5.83097 19.591 5.40901C19.169 4.98705 18.5967 4.75 18 4.75H6ZM3.34835 4.34835C4.05161 3.64509 5.00544 3.25 6 3.25H18C18.9946 3.25 19.9484 3.64509 20.6517 4.34835C21.3549 5.05161 21.75 6.00544 21.75 7V15C21.75 15.9946 21.3549 16.9484 20.6517 17.6517C19.9484 18.3549 18.9946 18.75 18 18.75H15.3107L12.5303 21.5303C12.2374 21.8232 11.7626 21.8232 11.4697 21.5303L8.68934 18.75H6C5.00544 18.75 4.05161 18.3549 3.34835 17.6517C2.64509 16.9484 2.25 15.9946 2.25 15V7C2.25 6.00544 2.64509 5.05161 3.34835 4.34835ZM7.25 9C7.25 8.58579 7.58579 8.25 8 8.25H16C16.4142 8.25 16.75 8.58579 16.75 9C16.75 9.41421 16.4142 9.75 16 9.75H8C7.58579 9.75 7.25 9.41421 7.25 9ZM7.25 13C7.25 12.5858 7.58579 12.25 8 12.25H14C14.4142 12.25 14.75 12.5858 14.75 13C14.75 13.4142 14.4142 13.75 14 13.75H8C7.58579 13.75 7.25 13.4142 7.25 13Z" fill="#18181A"/>
</svg>
