<svg width="24" height="24" viewBox="0 0 24 24" fill="none" xmlns="http://www.w3.org/2000/svg">
<path fill-rule="evenodd" clip-rule="evenodd" d="M12 3.75C11.2581 3.7502 10.5385 4.00425 9.96092 4.46996C9.38328 4.93571 8.98241 5.58509 8.82492 6.31019C8.7813 6.51101 8.65719 6.68513 8.48159 6.79188C8.30599 6.89863 8.09427 6.92864 7.89592 6.87491C7.48388 6.7633 7.0539 6.73394 6.63052 6.7885C6.20714 6.84306 5.79865 6.98048 5.42838 7.19291C5.0581 7.40535 4.7333 7.68863 4.4725 8.02658C4.21171 8.36454 4.02003 8.75056 3.90842 9.16259C3.79681 9.57463 3.76745 10.0046 3.82201 10.428C3.87658 10.8514 4.014 11.2599 4.22643 11.6301C4.43886 12.0004 4.72214 12.3252 5.0601 12.586C5.39805 12.8468 5.78407 13.0385 6.1961 13.1501C6.52302 13.2386 6.75001 13.5353 6.75001 13.874V16.2586L17.25 16.2506V13.874C17.25 13.5352 17.4771 13.2385 17.8041 13.15C18.6362 12.9249 19.3448 12.3783 19.774 11.6307C20.2031 10.883 20.3177 9.99555 20.0926 9.16342C19.8674 8.33129 19.3208 7.6227 18.5732 7.19353C17.8256 6.76436 16.9381 6.64977 16.1059 6.87496C15.9075 6.92865 15.6958 6.89856 15.5202 6.79171C15.3446 6.68486 15.2205 6.51063 15.177 6.30973C14.8601 4.84627 13.5574 3.75007 12.0002 3.75M18.75 16.9994C18.75 16.9998 18.75 17.0002 18.75 17.0006V21C18.75 21.4142 18.4142 21.75 18 21.75H6.00001C5.5858 21.75 5.25001 21.4142 5.25001 21V14.4106C4.85508 14.2493 4.48284 14.0352 4.14371 13.7735C3.6498 13.3924 3.2358 12.9177 2.92534 12.3766C2.61489 11.8354 2.41406 11.2385 2.33432 10.6197C2.25457 10.001 2.29749 9.37257 2.4606 8.77041C2.62371 8.16824 2.90384 7.6041 3.28497 7.1102C3.66611 6.61629 4.14079 6.20229 4.68193 5.89183C5.22306 5.58138 5.82005 5.38055 6.43879 5.3008C6.81467 5.25236 7.19411 5.24918 7.56906 5.29072C7.86788 4.51597 8.36634 3.82881 9.0194 3.30225C9.86363 2.62155 10.9154 2.25023 11.9999 2.25H12C14.0218 2.25 15.7464 3.51251 16.4331 5.29084C17.4286 5.18078 18.4405 5.38778 19.32 5.89263C20.4126 6.51985 21.2114 7.55544 21.5405 8.77158C21.8696 9.98772 21.7021 11.2848 21.0749 12.3774C20.5453 13.3 19.7247 14.013 18.75 14.4107V16.9994ZM17.25 17.7506L6.75001 17.7586V20.25H17.25V17.7506Z" fill="#18181A"/>
</svg>
