<svg width="24" height="24" viewBox="0 0 24 24" fill="none" xmlns="http://www.w3.org/2000/svg">
<path fill-rule="evenodd" clip-rule="evenodd" d="M7 2.5C7.27614 2.5 7.5 2.72386 7.5 3C7.5 3.39782 7.65804 3.77936 7.93934 4.06066C8.22064 4.34196 8.60218 4.5 9 4.5C9.27614 4.5 9.5 4.72386 9.5 5C9.5 5.27614 9.27614 5.5 9 5.5C8.60218 5.5 8.22064 5.65804 7.93934 5.93934C7.65804 6.22064 7.5 6.60218 7.5 7C7.5 7.27614 7.27614 7.5 7 7.5C6.72386 7.5 6.5 7.27614 6.5 7C6.5 6.60218 6.34196 6.22064 6.06066 5.93934C5.77936 5.65804 5.39782 5.5 5 5.5C4.72386 5.5 4.5 5.27614 4.5 5C4.5 4.72386 4.72386 4.5 5 4.5C5.39782 4.5 5.77936 4.34196 6.06066 4.06066C6.34196 3.77936 6.5 3.39782 6.5 3C6.5 2.72386 6.72386 2.5 7 2.5ZM7 4.50002C6.92943 4.59411 6.85191 4.68363 6.76777 4.76777C6.68363 4.85191 6.59411 4.92943 6.50002 5C6.59411 5.07057 6.68363 5.14809 6.76777 5.23223C6.85191 5.31637 6.92943 5.40589 7 5.49998C7.07057 5.40589 7.14809 5.31637 7.23223 5.23223C7.31637 5.14809 7.40589 5.07057 7.49998 5C7.40589 4.92943 7.31637 4.85191 7.23223 4.76777C7.14809 4.68363 7.07057 4.59411 7 4.50002Z" fill="#18181A"/>
<path fill-rule="evenodd" clip-rule="evenodd" d="M19.0126 2.42678C19.696 1.74336 20.804 1.74336 21.4874 2.42678C22.1709 3.1102 22.1709 4.21823 21.4874 4.90165L14.9776 11.4115C15.1039 11.6014 15.2229 11.7967 15.3342 11.9971C16.1246 13.4197 15.7652 15.2057 14.4861 16.2119L12.1306 18.0648C11.8211 18.3083 11.5962 18.6432 11.488 19.0219L10.966 20.8491C10.699 21.7834 9.52657 22.0872 8.83946 21.4001L2.59989 15.1605C1.91278 14.4734 2.2166 13.301 3.15093 13.034L4.9781 12.5119C5.35677 12.4038 5.69167 12.1789 5.93516 11.8694L7.78818 9.51389C8.79438 8.23483 10.5803 7.87547 12.0029 8.6658C12.167 8.75695 12.3277 8.85327 12.4848 8.95455L19.0126 2.42678ZM20.4268 3.48744C20.3291 3.38981 20.1709 3.38981 20.0732 3.48744L13.8009 9.75974L14.1545 10.1133L20.4268 3.84099C20.5244 3.74336 20.5244 3.58507 20.4268 3.48744ZM14.023 12.7256C13.3814 11.5707 12.4293 10.6186 11.2745 9.97704C10.8363 9.73364 10.3353 9.68942 9.88265 9.82199L14.178 14.1174C14.3106 13.6648 14.2664 13.1637 14.023 12.7256ZM13.2305 15.2911L8.70889 10.7696L7.11408 12.7968C6.6755 13.3543 6.07225 13.7594 5.39019 13.9542L3.93165 14.371L5.00001 15.4393L5.96967 14.4697C6.26257 14.1768 6.73744 14.1768 7.03033 14.4697C7.32323 14.7626 7.32323 15.2374 7.03033 15.5303L6.06067 16.5L6.75001 17.1893L9.46967 14.4697C9.76256 14.1768 10.2374 14.1768 10.5303 14.4697C10.8232 14.7626 10.8232 15.2374 10.5303 15.5303L7.81067 18.25L9.62903 20.0684L10.0458 18.6098C10.2406 17.9277 10.6457 17.3245 11.2032 16.8859L13.2305 15.2911Z" fill="#18181A"/>
</svg>
