<svg width="24" height="24" viewBox="0 0 24 24" fill="none" xmlns="http://www.w3.org/2000/svg">
<path d="M16.7165 12.923L16.4308 13.3334L16.8856 13.6499L17.1539 13.1652L16.7165 12.923ZM15.0888 11.7903L14.6514 11.5481L14.4328 11.9429L14.8032 12.2006L15.0888 11.7903ZM21.8558 3.64047L22.2933 3.88266L21.8558 3.64047ZM20.2282 2.50769L19.7907 2.26551V2.26551L20.2282 2.50769ZM14.738 13.4422L14.4524 13.8525V13.8526L14.738 13.4422ZM15.5518 14.0085L15.8374 13.5982L15.5518 14.0085ZM16.5621 12.1837L16.2765 12.5941L16.5621 12.1837ZM15.7483 11.6173L16.0339 11.2069L15.7483 11.6173ZM6.78937 16.3618L6.91025 15.8767C6.70851 15.8264 6.49671 15.9062 6.37833 16.0771C6.25995 16.248 6.25969 16.4744 6.37768 16.6456L6.78937 16.3618ZM11.5787 14.785L11.9982 15.0572L11.5787 14.785ZM15.6496 13.7111L15.9836 13.339L15.6496 13.7111ZM16.368 17.2014L15.8927 17.0462C15.8855 17.0683 15.8799 17.0908 15.8758 17.1136L16.368 17.2014ZM8.84003 18.2968C8.57413 18.2222 8.29816 18.3774 8.22364 18.6433C8.14911 18.9091 8.30424 19.1851 8.57014 19.2596L8.84003 18.2968ZM12.4589 17.7341C12.6236 17.5124 12.5775 17.1992 12.3559 17.0345C12.1343 16.8698 11.8211 16.9159 11.6563 17.1375L12.4589 17.7341ZM10.7684 20.1661C10.497 20.2168 10.3181 20.478 10.3688 20.7494C10.4195 21.0209 10.6807 21.1998 10.9521 21.1491L10.7684 20.1661ZM14.6345 18.2225C14.7829 17.9896 14.7144 17.6806 14.4815 17.5322C14.2486 17.3838 13.9395 17.4523 13.7911 17.6852L14.6345 18.2225ZM12.6039 13.7961C12.3858 13.6266 12.0717 13.6661 11.9023 13.8842C11.7329 14.1023 11.7723 14.4164 11.9904 14.5858L12.6039 13.7961ZM15.8219 17.5622C16.0399 17.7316 16.3541 17.6921 16.5235 17.474C16.6929 17.256 16.6534 16.9418 16.4353 16.7724L15.8219 17.5622ZM7.02881 22.2315C7.30495 22.2315 7.52881 22.0076 7.52881 21.7315C7.52881 21.4554 7.30495 21.2315 7.02881 21.2315V22.2315ZM2 21.2315C1.72386 21.2315 1.5 21.4554 1.5 21.7315C1.5 22.0076 1.72386 22.2315 2 22.2315V21.2315ZM6.54987 20.6206C6.82602 20.6206 7.04987 20.3967 7.04987 20.1206C7.04987 19.8445 6.82602 19.6206 6.54987 19.6206V20.6206ZM4.8736 19.6206C4.59746 19.6206 4.3736 19.8445 4.3736 20.1206C4.3736 20.3967 4.59746 20.6206 4.8736 20.6206V19.6206ZM21.4184 3.39828L16.279 12.6808L17.1539 13.1652L22.2933 3.88266L21.4184 3.39828ZM17.0021 12.5126L15.3744 11.3799L14.8032 12.2006L16.4308 13.3334L17.0021 12.5126ZM15.5262 12.0324L20.6656 2.74988L19.7907 2.26551L14.6514 11.5481L15.5262 12.0324ZM21.2616 2.57204C21.484 2.72685 21.5833 3.10049 21.4184 3.39828L22.2933 3.88266C22.6864 3.1726 22.5093 2.22206 21.8328 1.75125L21.2616 2.57204ZM21.8328 1.75125C21.1175 1.25345 20.1996 1.527 19.7907 2.26551L20.6656 2.74988C20.8147 2.48054 21.0779 2.44423 21.2616 2.57204L21.8328 1.75125ZM15.4627 12.0277L16.2765 12.5941L16.8478 11.7733L16.0339 11.2069L15.4627 12.0277ZM15.8374 13.5982L15.0236 13.0318L14.4524 13.8526L15.2662 14.4189L15.8374 13.5982ZM15.0236 13.0318C14.8011 12.877 14.7019 12.5033 14.8668 12.2055L13.9919 11.7211C13.5988 12.4312 13.7759 13.3817 14.4524 13.8525L15.0236 13.0318ZM16.4334 13.4203C16.2842 13.6897 16.0211 13.726 15.8374 13.5982L15.2662 14.4189C15.9815 14.9167 16.8993 14.6432 17.3082 13.9047L16.4334 13.4203ZM16.2765 12.5941C16.499 12.7489 16.5982 13.1225 16.4334 13.4203L17.3082 13.9047C17.7014 13.1946 17.5242 12.2441 16.8478 11.7733L16.2765 12.5941ZM16.0339 11.2069C15.3187 10.7091 14.4008 10.9826 13.9919 11.7211L14.8668 12.2055C15.0159 11.9362 15.2791 11.8999 15.4627 12.0277L16.0339 11.2069ZM6.66849 16.847C7.36905 17.0215 10.2603 17.7364 11.9982 15.0572L11.1592 14.5129C9.83198 16.559 7.64648 16.0601 6.91025 15.8767L6.66849 16.847ZM11.9982 15.0572C12.7563 13.8884 13.3184 13.4581 13.7518 13.3681C14.1497 13.2854 14.6203 13.4591 15.3157 14.0832L15.9836 13.339C15.2422 12.6737 14.4436 12.203 13.5484 12.389C12.6886 12.5676 11.9337 13.3191 11.1592 14.5129L11.9982 15.0572ZM15.3157 14.0832C15.8866 14.5956 16.0476 15.3023 16.0476 15.9398C16.0476 16.2549 16.0077 16.5368 15.9674 16.7401C15.9474 16.8412 15.9275 16.9214 15.9132 16.9746C15.9061 17.0012 15.9003 17.021 15.8967 17.0332C15.8949 17.0393 15.8936 17.0435 15.8929 17.0457C15.8925 17.0468 15.8923 17.0474 15.8923 17.0475C15.8923 17.0476 15.8923 17.0475 15.8924 17.0473C15.8924 17.0472 15.8925 17.047 15.8925 17.0469C15.8926 17.0468 15.8926 17.0466 15.8926 17.0466C15.8927 17.0464 15.8927 17.0462 16.368 17.2014C16.8434 17.3566 16.8434 17.3564 16.8435 17.3562C16.8435 17.3561 16.8436 17.3559 16.8436 17.3557C16.8437 17.3554 16.8438 17.3551 16.844 17.3547C16.8442 17.354 16.8445 17.3531 16.8448 17.3521C16.8455 17.35 16.8463 17.3475 16.8472 17.3444C16.8492 17.3382 16.8517 17.3299 16.8548 17.3195C16.861 17.2989 16.8693 17.2701 16.879 17.234C16.8984 17.1619 16.9234 17.06 16.9483 16.9346C16.9978 16.685 17.0476 16.3361 17.0476 15.9398C17.0476 15.1545 16.8495 14.1161 15.9836 13.339L15.3157 14.0832ZM16.368 17.2014C15.8758 17.1136 15.8758 17.1134 15.8759 17.1133C15.8759 17.1133 15.8759 17.1131 15.8759 17.1131C15.8759 17.1129 15.876 17.1128 15.876 17.1128C15.876 17.1127 15.876 17.1127 15.8759 17.1129C15.8759 17.1133 15.8757 17.1144 15.8754 17.1161C15.8747 17.1194 15.8736 17.1252 15.872 17.1334C15.8687 17.1497 15.8633 17.1754 15.8556 17.2097C15.8401 17.2782 15.8151 17.3806 15.7785 17.5096C15.7052 17.768 15.5857 18.1309 15.4025 18.5415C15.0344 19.367 14.421 20.3593 13.4346 21.0966L14.0333 21.8976C15.202 21.0241 15.9057 19.8685 16.3158 18.9488C16.5218 18.4869 16.6567 18.0779 16.7405 17.7826C16.7825 17.6347 16.8118 17.5147 16.831 17.4301C16.8405 17.3878 16.8475 17.3543 16.8523 17.3305C16.8547 17.3186 16.8566 17.3092 16.8579 17.3022C16.8585 17.2988 16.859 17.296 16.8594 17.2938C16.8596 17.2927 16.8598 17.2918 16.86 17.291C16.86 17.2906 16.8601 17.2903 16.8601 17.29C16.8602 17.2898 16.8602 17.2896 16.8602 17.2896C16.8602 17.2894 16.8603 17.2892 16.368 17.2014ZM13.4346 21.0966C13.2161 21.2599 12.8706 21.2954 12.3086 21.0555C11.7556 20.8193 11.1158 20.3628 10.4558 19.7771C9.14159 18.6109 7.86231 17.0375 7.20106 16.0781L6.37768 16.6456C7.0734 17.655 8.40432 19.2936 9.79208 20.5251C10.483 21.1382 11.2173 21.6768 11.9159 21.9751C12.6057 22.2696 13.3896 22.3787 14.0333 21.8976L13.4346 21.0966ZM8.57014 19.2596C9.10001 19.4082 9.74155 19.4953 10.433 19.2913C11.1285 19.0861 11.8113 18.6053 12.4589 17.7341L11.6563 17.1375C11.1066 17.8771 10.5921 18.2018 10.1501 18.3322C9.70408 18.4638 9.26802 18.4167 8.84003 18.2968L8.57014 19.2596ZM10.9521 21.1491C11.724 21.0048 12.3472 20.7738 12.9389 20.3001C13.5142 19.8395 14.0289 19.1731 14.6345 18.2225L13.7911 17.6852C13.1994 18.614 12.7562 19.1653 12.3138 19.5195C11.8877 19.8607 11.4334 20.0418 10.7684 20.1661L10.9521 21.1491ZM11.9904 14.5858L15.8219 17.5622L16.4353 16.7724L12.6039 13.7961L11.9904 14.5858ZM3.17631 18.7782C3.17631 18.8062 3.16623 18.8213 3.16289 18.8251C3.16146 18.8267 3.16306 18.8243 3.16955 18.8212C3.17665 18.8178 3.18661 18.8151 3.19737 18.8151V19.8151C3.79026 19.8151 4.17631 19.2956 4.17631 18.7782H3.17631ZM3.19737 18.8151C3.20814 18.8151 3.2181 18.8178 3.22519 18.8212C3.23168 18.8243 3.23328 18.8267 3.23186 18.8251C3.22851 18.8213 3.21844 18.8062 3.21844 18.7782H2.21844C2.21844 19.2956 2.60449 19.8151 3.19737 19.8151V18.8151ZM3.21844 18.7782C3.21844 18.7502 3.22851 18.7351 3.23186 18.7313C3.23328 18.7297 3.23168 18.7321 3.22519 18.7352C3.2181 18.7386 3.20814 18.7412 3.19737 18.7412V17.7412C2.60449 17.7412 2.21844 18.2608 2.21844 18.7782H3.21844ZM3.19737 18.7412C3.18661 18.7412 3.17665 18.7386 3.16955 18.7352C3.16306 18.7321 3.16146 18.7297 3.16289 18.7313C3.16623 18.7351 3.17631 18.7502 3.17631 18.7782H4.17631C4.17631 18.2608 3.79026 17.7412 3.19737 17.7412V18.7412ZM8.92351 21.463C8.92351 21.491 8.91344 21.5062 8.91009 21.5099C8.90866 21.5115 8.91027 21.5091 8.91676 21.506C8.92385 21.5027 8.93381 21.5 8.94457 21.5V22.5C9.53746 22.5 9.92351 21.9804 9.92351 21.463H8.92351ZM8.94457 21.5C8.95534 21.5 8.9653 21.5027 8.97239 21.506C8.97888 21.5091 8.98049 21.5115 8.97906 21.5099C8.97571 21.5062 8.96564 21.491 8.96564 21.463H7.96564C7.96564 21.9804 8.35169 22.5 8.94457 22.5V21.5ZM8.96564 21.463C8.96564 21.435 8.97571 21.4199 8.97906 21.4162C8.98049 21.4146 8.97888 21.417 8.97239 21.42C8.9653 21.4234 8.95534 21.4261 8.94457 21.4261V20.4261C8.35169 20.4261 7.96564 20.9456 7.96564 21.463H8.96564ZM8.94457 21.4261C8.93381 21.4261 8.92385 21.4234 8.91676 21.42C8.91027 21.417 8.90866 21.4146 8.91009 21.4162C8.91344 21.4199 8.92351 21.435 8.92351 21.463H9.92351C9.92351 20.9456 9.53746 20.4261 8.94457 20.4261V21.4261ZM5.09202 17.7043C5.09202 17.7322 5.08195 17.7474 5.0786 17.7511C5.07717 17.7527 5.07878 17.7503 5.08527 17.7473C5.09236 17.7439 5.10232 17.7412 5.11309 17.7412V18.7412C5.70597 18.7412 6.09202 18.2217 6.09202 17.7043H5.09202ZM5.11309 17.7412C5.12385 17.7412 5.13381 17.7439 5.1409 17.7473C5.14739 17.7503 5.149 17.7527 5.14757 17.7511C5.14422 17.7474 5.13415 17.7322 5.13415 17.7043H4.13415C4.13415 18.2217 4.5202 18.7412 5.11309 18.7412V17.7412ZM5.13415 17.7043C5.13415 17.6763 5.14422 17.6611 5.14757 17.6574C5.149 17.6558 5.14739 17.6582 5.1409 17.6613C5.13381 17.6646 5.12385 17.6673 5.11309 17.6673V16.6673C4.5202 16.6673 4.13415 17.1869 4.13415 17.7043H5.13415ZM5.11309 17.6673C5.10232 17.6673 5.09236 17.6646 5.08527 17.6613C5.07878 17.6582 5.07717 17.6558 5.0786 17.6574C5.08195 17.6611 5.09202 17.6763 5.09202 17.7043H6.09202C6.09202 17.1869 5.70597 16.6673 5.11309 16.6673V17.6673ZM7.02881 21.2315H2V22.2315H7.02881V21.2315ZM6.54987 19.6206H4.8736V20.6206H6.54987V19.6206Z" fill="#18181A"/>
</svg>
