<svg width="24" height="24" viewBox="0 0 24 24" fill="none" xmlns="http://www.w3.org/2000/svg">
<path fill-rule="evenodd" clip-rule="evenodd" d="M8.26884 2.99217C9.45176 2.50219 10.7196 2.25 12 2.25C13.2804 2.25 14.5482 2.50219 15.7312 2.99217C16.9141 3.48216 17.9889 4.20034 18.8943 5.10571C19.7997 6.01108 20.5178 7.08591 21.0078 8.26884C21.4978 9.45176 21.75 10.7196 21.75 12C21.75 13.2804 21.4978 14.5482 21.0078 15.7312C20.5178 16.9141 19.7997 17.9889 18.8943 18.8943C17.9889 19.7997 16.9141 20.5178 15.7312 21.0078C14.5482 21.4978 13.2804 21.75 12 21.75C10.7196 21.75 9.45176 21.4978 8.26884 21.0078C7.08591 20.5178 6.01108 19.7997 5.10571 18.8943C4.20034 17.9889 3.48216 16.9141 2.99217 15.7312C2.50219 14.5482 2.25 13.2804 2.25 12C2.25 10.7196 2.50219 9.45176 2.99217 8.26884C3.48216 7.08591 4.20034 6.01108 5.10571 5.10571C6.01108 4.20034 7.08591 3.48216 8.26884 2.99217ZM12 3.75C10.9166 3.75 9.8438 3.96339 8.84286 4.37799C7.84193 4.7926 6.93245 5.40029 6.16637 6.16637C5.40029 6.93245 4.79259 7.84193 4.37799 8.84286C3.96339 9.8438 3.75 10.9166 3.75 12C3.75 13.0834 3.96339 14.1562 4.37799 15.1571C4.79259 16.1581 5.40029 17.0675 6.16637 17.8336C6.93245 18.5997 7.84193 19.2074 8.84286 19.622C9.8438 20.0366 10.9166 20.25 12 20.25C13.0834 20.25 14.1562 20.0366 15.1571 19.622C16.1581 19.2074 17.0675 18.5997 17.8336 17.8336C18.5997 17.0675 19.2074 16.1581 19.622 15.1571C20.0366 14.1562 20.25 13.0834 20.25 12C20.25 10.9166 20.0366 9.8438 19.622 8.84286C19.2074 7.84193 18.5997 6.93245 17.8336 6.16637C17.0675 5.40029 16.1581 4.7926 15.1571 4.37799C14.1562 3.96339 13.0834 3.75 12 3.75ZM9.46967 9.46967C9.76256 9.17678 10.2374 9.17678 10.5303 9.46967L12 10.9393L13.4697 9.46967C13.7626 9.17678 14.2374 9.17678 14.5303 9.46967C14.8232 9.76256 14.8232 10.2374 14.5303 10.5303L13.0607 12L14.5303 13.4697C14.8232 13.7626 14.8232 14.2374 14.5303 14.5303C14.2374 14.8232 13.7626 14.8232 13.4697 14.5303L12 13.0607L10.5303 14.5303C10.2374 14.8232 9.76256 14.8232 9.46967 14.5303C9.17678 14.2374 9.17678 13.7626 9.46967 13.4697L10.9393 12L9.46967 10.5303C9.17678 10.2374 9.17678 9.76256 9.46967 9.46967Z" fill="#18181A"/>
</svg>
