<svg width="24" height="24" viewBox="0 0 24 24" fill="none" xmlns="http://www.w3.org/2000/svg">
<path fill-rule="evenodd" clip-rule="evenodd" d="M20.6255 3.3745C20.0656 2.81457 19.3061 2.5 18.5143 2.5H9.82857C9.03671 2.5 8.27728 2.81457 7.71735 3.3745C7.15742 3.93443 6.84286 4.69385 6.84286 5.48571V6.84286H5.48571C4.69385 6.84286 3.93443 7.15742 3.3745 7.71735C2.81457 8.27728 2.5 9.03671 2.5 9.82857V18.5143C2.5 19.3061 2.81457 20.0656 3.3745 20.6255C3.93443 21.1854 4.69385 21.5 5.48571 21.5H14.1714C14.9633 21.5 15.7227 21.1854 16.2826 20.6255C16.8426 20.0656 17.1571 19.3061 17.1571 18.5143V17.1571H18.5143C19.3061 17.1571 20.0656 16.8426 20.6255 16.2826C21.1854 15.7227 21.5 14.9633 21.5 14.1714V5.48571C21.5 4.69385 21.1854 3.93443 20.6255 3.3745ZM15.5286 18.5143C15.5286 18.8742 15.3856 19.2194 15.1311 19.4739C14.8766 19.7284 14.5314 19.8714 14.1714 19.8714H5.48571C5.12578 19.8714 4.78058 19.7284 4.52607 19.4739C4.27155 19.2194 4.12857 18.8742 4.12857 18.5143V9.82857C4.12857 9.46864 4.27155 9.12344 4.52607 8.86893C4.78058 8.61441 5.12578 8.47143 5.48571 8.47143H14.1714C14.5314 8.47143 14.8766 8.61441 15.1311 8.86893C15.3856 9.12344 15.5286 9.46864 15.5286 9.82857V18.5143ZM8.47143 6.84286H14.1714C14.9633 6.84286 15.7227 7.15742 16.2826 7.71735C16.8426 8.27728 17.1571 9.03671 17.1571 9.82857V15.5286H18.5143C18.8742 15.5286 19.2194 15.3856 19.4739 15.1311C19.7284 14.8766 19.8714 14.5314 19.8714 14.1714V5.48571C19.8714 5.12578 19.7284 4.78058 19.4739 4.52607C19.2194 4.27156 18.8742 4.12857 18.5143 4.12857H9.82857C9.46863 4.12857 9.12344 4.27156 8.86893 4.52607C8.61441 4.78058 8.47143 5.12578 8.47143 5.48571V6.84286Z" fill="#18181A"/>
</svg>
