<svg width="24" height="24" viewBox="0 0 24 24" fill="none" xmlns="http://www.w3.org/2000/svg">
<path fill-rule="evenodd" clip-rule="evenodd" d="M20.8713 3.12868C20.3087 2.56607 19.5456 2.25 18.75 2.25H9.75C8.95435 2.25 8.19129 2.56607 7.62868 3.12868C7.06607 3.69129 6.75 4.45435 6.75 5.25V6.75H5.25C4.45435 6.75 3.69129 7.06607 3.12868 7.62868C2.56607 8.19129 2.25 8.95435 2.25 9.75V18.75C2.25 19.5457 2.56607 20.3087 3.12868 20.8713C3.69129 21.4339 4.45435 21.75 5.25 21.75H14.25C15.0457 21.75 15.8087 21.4339 16.3713 20.8713C16.9339 20.3087 17.25 19.5457 17.25 18.75V17.25H18.75C19.5457 17.25 20.3087 16.9339 20.8713 16.3713C21.4339 15.8087 21.75 15.0456 21.75 14.25V5.25C21.75 4.45435 21.4339 3.69129 20.8713 3.12868ZM15.75 18.75C15.75 19.1478 15.592 19.5294 15.3107 19.8107C15.0294 20.092 14.6478 20.25 14.25 20.25H5.25C4.85218 20.25 4.47065 20.092 4.18934 19.8107C3.90804 19.5294 3.75 19.1478 3.75 18.75V9.75C3.75 9.35218 3.90804 8.97064 4.18934 8.68934C4.47065 8.40804 4.85218 8.25 5.25 8.25H14.25C14.6478 8.25 15.0294 8.40804 15.3107 8.68934C15.592 8.97064 15.75 9.35218 15.75 9.75V18.75ZM8.25 6.75H14.25C15.0457 6.75 15.8087 7.06607 16.3713 7.62868C16.9339 8.19129 17.25 8.95435 17.25 9.75V15.75H18.75C19.1478 15.75 19.5294 15.592 19.8107 15.3107C20.092 15.0294 20.25 14.6478 20.25 14.25V5.25C20.25 4.85218 20.092 4.47064 19.8107 4.18934C19.5294 3.90804 19.1478 3.75 18.75 3.75H9.75C9.35218 3.75 8.97064 3.90804 8.68934 4.18934C8.40804 4.47064 8.25 4.85218 8.25 5.25V6.75Z" fill="#18181A"/>
<path fill-rule="evenodd" clip-rule="evenodd" d="M8.53033 11.9697C8.82322 12.2626 8.82322 12.7374 8.53033 13.0303L7.06066 14.5L8.53033 15.9697C8.82322 16.2626 8.82322 16.7374 8.53033 17.0303C8.23744 17.3232 7.76256 17.3232 7.46967 17.0303L5.64645 15.2071C5.25592 14.8166 5.25592 14.1834 5.64645 13.7929L7.46967 11.9697C7.76256 11.6768 8.23744 11.6768 8.53033 11.9697Z" fill="#18181A"/>
<path fill-rule="evenodd" clip-rule="evenodd" d="M10.4697 11.9697C10.1768 12.2626 10.1768 12.7374 10.4697 13.0303L11.9393 14.5L10.4697 15.9697C10.1768 16.2626 10.1768 16.7374 10.4697 17.0303C10.7626 17.3232 11.2374 17.3232 11.5303 17.0303L13.3536 15.2071C13.7441 14.8166 13.7441 14.1834 13.3536 13.7929L11.5303 11.9697C11.2374 11.6768 10.7626 11.6768 10.4697 11.9697Z" fill="#18181A"/>
</svg>
