<svg width="24" height="24" viewBox="0 0 24 24" fill="none" xmlns="http://www.w3.org/2000/svg">
<path fill-rule="evenodd" clip-rule="evenodd" d="M6 5.75C5.40326 5.75 4.83097 5.98705 4.40901 6.40901C3.98705 6.83097 3.75 7.40326 3.75 8V9.25H20.25V8C20.25 7.40326 20.0129 6.83097 19.591 6.40901C19.169 5.98705 18.5967 5.75 18 5.75H6ZM21.75 8C21.75 7.00544 21.3549 6.05161 20.6517 5.34835C19.9484 4.64509 18.9946 4.25 18 4.25H6C5.00544 4.25 4.05161 4.64509 3.34835 5.34835C2.64509 6.05161 2.25 7.00544 2.25 8V16C2.25 16.9946 2.64509 17.9484 3.34835 18.6517C4.05161 19.3549 5.00544 19.75 6 19.75H18C18.9946 19.75 19.9484 19.3549 20.6517 18.6517C21.3549 17.9484 21.75 16.9946 21.75 16V8ZM20.25 10.75H3.75V16C3.75 16.5967 3.98705 17.169 4.40901 17.591C4.83097 18.0129 5.40326 18.25 6 18.25H18C18.5967 18.25 19.169 18.0129 19.591 17.591C20.0129 17.169 20.25 16.5967 20.25 16V10.75ZM6.25 15C6.25 14.5858 6.58579 14.25 7 14.25H7.01C7.42421 14.25 7.76 14.5858 7.76 15C7.76 15.4142 7.42421 15.75 7.01 15.75H7C6.58579 15.75 6.25 15.4142 6.25 15ZM10.25 15C10.25 14.5858 10.5858 14.25 11 14.25H13C13.4142 14.25 13.75 14.5858 13.75 15C13.75 15.4142 13.4142 15.75 13 15.75H11C10.5858 15.75 10.25 15.4142 10.25 15Z" fill="#18181A"/>
</svg>
