<svg width="24" height="24" viewBox="0 0 24 24" fill="none" xmlns="http://www.w3.org/2000/svg">
<path fill-rule="evenodd" clip-rule="evenodd" d="M10.6171 4.48296C9.68772 4.63701 8.79166 4.97008 7.97795 5.46831C6.82031 6.17713 5.87276 7.19362 5.23638 8.40936C4.59999 9.6251 4.29864 10.9945 4.36448 12.3714C4.43031 13.7484 4.86085 15.0813 5.61018 16.2279C6.35951 17.3745 7.39951 18.2919 8.61926 18.8821C9.839 19.4723 11.1927 19.7133 12.5361 19.5793C13.8794 19.4453 15.1619 18.9414 16.2468 18.1213C16.9215 17.6113 17.5041 16.9908 17.9727 16.2883C16.8206 16.4793 15.6327 16.3926 14.5062 16.0244C12.8458 15.4818 11.4241 14.362 10.4882 12.8597C9.55224 11.3575 9.16129 9.56772 9.38327 7.80159C9.53384 6.60365 9.95995 5.46795 10.6171 4.48296ZM11.9085 3.00738H12.1646C12.4433 3.00738 12.6936 3.18161 12.7955 3.44653C12.8974 3.71146 12.8301 4.0131 12.626 4.20685C11.5811 5.19855 10.9095 6.53288 10.7278 7.9779C10.5462 9.42292 10.8661 10.8873 11.6318 12.1164C12.3976 13.3455 13.5608 14.2617 14.9193 14.7057C16.2778 15.1497 17.7457 15.0934 19.0678 14.5466C19.3211 14.4418 19.6113 14.5027 19.8036 14.701C19.996 14.8993 20.053 15.1962 19.9481 15.454C19.3359 16.9585 18.3354 18.265 17.0532 19.2343C15.7711 20.2035 14.2554 20.799 12.6678 20.9574C11.0803 21.1157 9.48039 20.8309 8.03887 20.1334C6.59735 19.4358 5.36825 18.3517 4.48268 16.9966C3.59711 15.6415 3.08829 14.0663 3.01049 12.439C2.93269 10.8117 3.28883 9.1933 4.04092 7.75651C4.79301 6.31973 5.91284 5.11842 7.28096 4.28073C8.64908 3.44304 10.2142 3.00039 11.8093 3C11.8426 2.99999 11.8759 3.00249 11.9085 3.00738Z" fill="#18181A"/>
</svg>
