<svg width="24" height="24" viewBox="0 0 24 24" fill="none" xmlns="http://www.w3.org/2000/svg">
<path d="M18.2472 6.17069C17.0644 5.6166 15.8175 5.22164 14.5344 5C14.373 5.28983 14.1865 5.68196 14.0585 5.99736C12.6947 5.78993 11.3087 5.78993 9.94213 5.99736C9.7974 5.65638 9.63319 5.32393 9.45506 5C8.16922 5.22164 6.91956 5.6166 5.73948 6.17638C3.39601 9.74244 2.75866 13.2261 3.07594 16.6529C4.45085 17.6958 5.99275 18.4914 7.63206 19C7.99944 18.4885 8.32786 17.9487 8.60897 17.3832C8.07737 17.1814 7.56248 16.9286 7.07263 16.633C7.20066 16.5336 7.32312 16.4341 7.4428 16.3347C10.3262 17.727 13.6716 17.727 16.555 16.3347C16.6775 16.437 16.8027 16.5364 16.9308 16.633C16.4409 16.9286 15.926 17.1814 15.3917 17.386C15.6728 17.9515 15.9984 18.4914 16.3686 19C18.0079 18.4914 19.5498 17.6986 20.9247 16.6529C21.2948 12.6777 20.2845 9.22813 18.2472 6.16785V6.17069ZM9.00975 14.5474C8.1219 14.5474 7.3927 13.7177 7.3927 12.6976C7.3927 11.6775 8.10521 10.8393 9.00975 10.8393C9.91429 10.8393 10.6379 11.669 10.6296 12.6919C10.6212 13.7148 9.91429 14.5474 9.00975 14.5474ZM14.9881 14.5474C14.1002 14.5474 13.371 13.7177 13.371 12.6976C13.371 11.6775 14.0835 10.8393 14.9881 10.8393C15.8926 10.8393 16.6163 11.669 16.6051 12.6919C16.594 13.7148 15.8926 14.5474 14.9881 14.5474Z" fill="#18181A"/>
</svg>
