<svg width="24" height="24" viewBox="0 0 24 24" fill="none" xmlns="http://www.w3.org/2000/svg">
<path fill-rule="evenodd" clip-rule="evenodd" d="M21.5303 2.46967C21.2374 2.17678 20.7626 2.17678 20.4697 2.46967L6.85884 16.0805C6.81051 16.118 6.76622 16.162 6.72733 16.212L2.46967 20.4697C2.17678 20.7626 2.17678 21.2374 2.46967 21.5303C2.76256 21.8232 3.23744 21.8232 3.53033 21.5303L7.4463 17.6144C8.84269 18.368 10.4093 18.7601 12.0025 18.75C15.943 18.7491 19.1539 16.5346 21.6431 12.3859C21.7856 12.1484 21.7856 11.8516 21.6431 11.6141C20.5263 9.75278 19.2641 8.27627 17.8459 7.2148L21.5303 3.53033C21.8232 3.23744 21.8232 2.76256 21.5303 2.46967ZM16.7725 8.28816C17.9724 9.1441 19.0912 10.3721 20.1194 12C17.8563 15.584 15.1475 17.25 12 17.25H11.9951C10.8053 17.2578 9.63302 16.9992 8.56283 16.4978L10.659 14.4017C11.0653 14.6287 11.5263 14.751 12 14.7511C12.7294 14.7512 13.4289 14.4616 13.9447 13.9459C14.4606 13.4303 14.7504 12.7309 14.7505 12.0015C14.7506 11.5275 14.6283 11.0661 14.4012 10.6595L16.7725 8.28816ZM13.2378 11.8229C13.2463 11.8816 13.2506 11.9412 13.2505 12.0012C13.2505 12.3328 13.1187 12.6507 12.8843 12.8851C12.6498 13.1195 12.3318 13.2511 12.0003 13.2511C11.9404 13.251 11.8809 13.2467 11.8224 13.2383L13.2378 11.8229ZM12.0019 6.75C12.5625 6.74855 13.1218 6.80386 13.6712 6.91509C14.0772 6.99727 14.4729 6.73479 14.5551 6.32881C14.6373 5.92283 14.3748 5.5271 13.9688 5.44491C13.3205 5.31366 12.6605 5.24836 11.999 5.25L12 6V5.25H11.999C8.05778 5.25038 4.84643 7.46488 2.35688 11.6141C2.21437 11.8516 2.21437 12.1484 2.35688 12.3859C3.04619 13.5347 3.791 14.5367 4.59295 15.3852C4.87748 15.6862 5.35216 15.6996 5.65319 15.4151C5.95421 15.1305 5.96758 14.6558 5.68305 14.3548C5.05457 13.6899 4.45293 12.906 3.88062 12C3.95924 11.8689 3.8009 12.1262 3.88062 12C3.95922 12.131 3.80088 11.8737 3.88062 12C6.14367 8.41603 8.85255 6.75 12 6.75L12.0019 6.75Z" fill="#18181A"/>
</svg>
