<svg width="24" height="24" viewBox="0 0 24 24" fill="none" xmlns="http://www.w3.org/2000/svg">
<path fill-rule="evenodd" clip-rule="evenodd" d="M16.483 3.25C17.043 3.24974 17.5977 3.35978 18.1152 3.57384C18.6328 3.78796 19.1032 4.10196 19.4995 4.4979C19.8958 4.89385 20.2102 5.36398 20.4248 5.88145C20.6393 6.39893 20.7498 6.9536 20.75 7.51379C20.75 8.67423 20.3155 9.74744 19.5298 10.5308C19.5297 10.531 19.5299 10.5307 19.5298 10.5308L11.5303 18.5303C11.3897 18.671 11.1989 18.75 11 18.75H6.31066L4.53033 20.5303C4.23744 20.8232 3.76256 20.8232 3.46967 20.5303C3.17678 20.2374 3.17678 19.7626 3.46967 19.4697L5.25 17.6893V13C5.25 12.8011 5.32902 12.6103 5.46967 12.4697L13.4697 4.46967L13.4709 4.46842C14.2513 3.69174 15.3204 3.25011 16.483 3.25ZM7.81066 17.25H10.6893L13.1893 14.75H10.3107L7.81066 17.25ZM9.25 13.6893L6.75 16.1893V13.3107L9.25 10.8107V13.6893ZM11.8107 13.25H14.6893L17.1893 10.75H14.3107L11.8107 13.25ZM14.75 9.25H18.6662C19.0366 8.78463 19.25 8.18499 19.25 7.51421M14.75 9.25V5.33527C15.2171 4.96519 15.8161 4.75 16.483 4.75C16.8462 4.74979 17.2063 4.82113 17.5418 4.95995C17.8774 5.09876 18.1824 5.30232 18.4393 5.55902C18.6962 5.81571 18.9001 6.1205 19.0392 6.45597C19.1782 6.79138 19.2499 7.15111 19.25 7.51421M13.25 6.81066V9.68934L10.75 12.1893V9.31066L13.25 6.81066Z" fill="#18181A"/>
</svg>
