<svg width="24" height="24" viewBox="0 0 24 24" fill="none" xmlns="http://www.w3.org/2000/svg">
<path fill-rule="evenodd" clip-rule="evenodd" d="M7 3.75C6.66848 3.75 6.35054 3.8817 6.11612 4.11612C5.8817 4.35054 5.75 4.66848 5.75 5V19C5.75 19.3315 5.8817 19.6495 6.11612 19.8839C6.35054 20.1183 6.66848 20.25 7 20.25H17C17.3315 20.25 17.6495 20.1183 17.8839 19.8839C18.1183 19.6495 18.25 19.3315 18.25 19V8.75H15C14.5359 8.75 14.0908 8.56563 13.7626 8.23744C13.4344 7.90925 13.25 7.46413 13.25 7V3.75H7ZM14.75 4.81066L17.1893 7.25H15C14.9337 7.25 14.8701 7.22366 14.8232 7.17678C14.7763 7.12989 14.75 7.0663 14.75 7V4.81066ZM5.05546 3.05546C5.57118 2.53973 6.27065 2.25 7 2.25H14C14.1989 2.25 14.3897 2.32902 14.5303 2.46967L19.5303 7.46967C19.671 7.61032 19.75 7.80109 19.75 8V19C19.75 19.7293 19.4603 20.4288 18.9445 20.9445C18.4288 21.4603 17.7293 21.75 17 21.75H7C6.27065 21.75 5.57118 21.4603 5.05546 20.9445C4.53973 20.4288 4.25 19.7293 4.25 19V5C4.25 4.27065 4.53973 3.57118 5.05546 3.05546Z" fill="#18181A"/>
<path d="M2 11C2 10.4477 2.44772 10 3 10H21C21.5523 10 22 10.4477 22 11V18C22 18.5523 21.5523 19 21 19H3C2.44772 19 2 18.5523 2 18V11Z" fill="#18181A"/>
<path d="M6.84766 14.9961H5.78516V16.6172C5.78516 16.849 5.73047 17.0247 5.62109 17.1445C5.51172 17.2643 5.3737 17.3242 5.20703 17.3242C5.03255 17.3242 4.89193 17.2656 4.78516 17.1484C4.67839 17.0286 4.625 16.8542 4.625 16.625V12.2109C4.625 11.9557 4.68359 11.7734 4.80078 11.6641C4.91797 11.5547 5.10417 11.5 5.35938 11.5H6.84766C7.28776 11.5 7.6263 11.5339 7.86328 11.6016C8.09766 11.6667 8.29948 11.7747 8.46875 11.9258C8.64062 12.0768 8.77083 12.2617 8.85938 12.4805C8.94792 12.6992 8.99219 12.9453 8.99219 13.2188C8.99219 13.8021 8.8125 14.2448 8.45312 14.5469C8.09375 14.8464 7.55859 14.9961 6.84766 14.9961ZM6.56641 12.3711H5.78516V14.1211H6.56641C6.83984 14.1211 7.06771 14.0924 7.25 14.0352C7.4349 13.9779 7.57552 13.8841 7.67188 13.7539C7.76823 13.6237 7.81641 13.4531 7.81641 13.2422C7.81641 12.9896 7.74219 12.7839 7.59375 12.625C7.42708 12.4557 7.08464 12.3711 6.56641 12.3711Z" fill="white"/>
<path d="M10.6797 11.5H12.1914C12.5846 11.5 12.9219 11.5365 13.2031 11.6094C13.4844 11.6823 13.7396 11.819 13.9688 12.0195C14.5651 12.5299 14.8633 13.306 14.8633 14.3477C14.8633 14.6914 14.8333 15.0052 14.7734 15.2891C14.7135 15.5729 14.6211 15.8294 14.4961 16.0586C14.3711 16.2852 14.2109 16.4883 14.0156 16.668C13.862 16.806 13.694 16.9167 13.5117 17C13.3294 17.0833 13.1328 17.1419 12.9219 17.1758C12.7135 17.2096 12.4779 17.2266 12.2148 17.2266H10.7031C10.4922 17.2266 10.3333 17.1953 10.2266 17.1328C10.1198 17.0677 10.0495 16.9779 10.0156 16.8633C9.98438 16.7461 9.96875 16.5951 9.96875 16.4102V12.2109C9.96875 11.9609 10.0247 11.7799 10.1367 11.668C10.2487 11.556 10.4297 11.5 10.6797 11.5ZM11.1289 12.418V16.3047H12.0078C12.2005 16.3047 12.3516 16.2995 12.4609 16.2891C12.5703 16.2786 12.6836 16.2526 12.8008 16.2109C12.918 16.1693 13.0195 16.1107 13.1055 16.0352C13.4935 15.707 13.6875 15.1419 13.6875 14.3398C13.6875 13.7747 13.6016 13.3516 13.4297 13.0703C13.2604 12.7891 13.0508 12.6107 12.8008 12.5352C12.5508 12.457 12.2487 12.418 11.8945 12.418H11.1289Z" fill="white"/>
<path d="M19.3047 12.3945H17.0195V13.8594H18.9297C19.1068 13.8594 19.2383 13.8997 19.3242 13.9805C19.4128 14.0586 19.457 14.1641 19.457 14.2969C19.457 14.4297 19.4128 14.5352 19.3242 14.6133C19.2357 14.6914 19.1042 14.7305 18.9297 14.7305H17.0195V16.6172C17.0195 16.8568 16.9648 17.0352 16.8555 17.1523C16.7487 17.2669 16.6107 17.3242 16.4414 17.3242C16.2695 17.3242 16.1289 17.2656 16.0195 17.1484C15.9128 17.0312 15.8594 16.8542 15.8594 16.6172V12.2109C15.8594 12.0443 15.8841 11.9089 15.9336 11.8047C15.9831 11.6979 16.0599 11.6211 16.1641 11.5742C16.2708 11.5247 16.4062 11.5 16.5703 11.5H19.3047C19.4896 11.5 19.6263 11.5417 19.7148 11.625C19.806 11.7057 19.8516 11.8125 19.8516 11.9453C19.8516 12.0807 19.806 12.1901 19.7148 12.2734C19.6263 12.3542 19.4896 12.3945 19.3047 12.3945Z" fill="white"/>
</svg>
