<svg width="24" height="24" viewBox="0 0 24 24" fill="none" xmlns="http://www.w3.org/2000/svg">
<path fill-rule="evenodd" clip-rule="evenodd" d="M11.3102 2.27441C11.4071 2.24908 11.5089 2.24307 11.6093 2.25782C11.7392 2.25261 11.8695 2.24999 12 2.24999C12.1305 2.24999 12.2608 2.25261 12.3907 2.25782C12.4911 2.24307 12.5929 2.24908 12.6898 2.27441C15.0236 2.43984 17.2291 3.4405 18.8943 5.1057C20.7228 6.93418 21.75 9.41413 21.75 12C21.75 13.2804 21.4978 14.5482 21.0078 15.7312C20.5178 16.9141 19.7997 17.9889 18.8943 18.8943C17.9889 19.7997 16.9141 20.5178 15.7312 21.0078C14.7612 21.4096 13.7342 21.6515 12.6899 21.7256C12.593 21.7509 12.4911 21.7569 12.3906 21.7422C12.2606 21.7474 12.1304 21.75 12 21.75C11.8696 21.75 11.7394 21.7474 11.6094 21.7422C11.5089 21.7569 11.407 21.7509 11.3101 21.7256C10.2658 21.6515 9.23879 21.4096 8.26884 21.0078C7.08591 20.5178 6.01108 19.7997 5.10571 18.8943C4.20034 17.9889 3.48216 16.9141 2.99217 15.7312C2.50219 14.5482 2.25 13.2804 2.25 12C2.25 9.41413 3.27723 6.93418 5.10571 5.1057C6.77091 3.4405 8.97643 2.43984 11.3102 2.27441ZM11.922 20.2496C11.0933 18.8434 10.4846 17.3259 10.1108 15.75H13.8892C13.5154 17.3259 12.9067 18.8434 12.078 20.2496C12.052 20.2499 12.026 20.25 12 20.25C11.974 20.25 11.948 20.2499 11.922 20.2496ZM13.9096 20.0259C14.3345 19.9248 14.7517 19.7899 15.1571 19.622C16.1581 19.2074 17.0675 18.5997 17.8336 17.8336C18.4455 17.2217 18.9564 16.5184 19.3485 15.75H15.4271C15.1069 17.2314 14.5976 18.6688 13.9096 20.0259ZM15.6846 14.25H19.9373C20.1443 13.5195 20.25 12.7624 20.25 12C20.25 11.2323 20.143 10.4757 19.9373 9.74999H15.6846C15.7797 10.4937 15.8278 11.2451 15.8278 12C15.8278 12.7549 15.7797 13.5063 15.6846 14.25ZM15.4271 8.24999H19.3485C18.9593 7.48736 18.4503 6.78307 17.8336 6.16636C16.745 5.07768 15.3833 4.3247 13.9096 3.97402C14.5976 5.33118 15.1069 6.76856 15.4271 8.24999ZM12.078 3.75036C12.9067 5.15661 13.5154 6.67404 13.8892 8.24999H10.1108C10.4846 6.67404 11.0933 5.15661 11.922 3.75036C11.948 3.75012 11.974 3.74999 12 3.74999C12.026 3.74999 12.052 3.75012 12.078 3.75036ZM10.0904 3.97402C8.61666 4.3247 7.25505 5.07768 6.16637 6.16636C5.54966 6.78307 5.04068 7.48736 4.65152 8.24999H8.57285C8.89307 6.76856 9.40236 5.33118 10.0904 3.97402ZM8.31538 9.74999H4.06273C3.857 10.4757 3.75 11.2323 3.75 12C3.75 12.7624 3.85566 13.5195 4.06275 14.25H8.31538C8.22034 13.5063 8.1722 12.7549 8.1722 12C8.1722 11.2451 8.22034 10.4937 8.31538 9.74999ZM9.82872 14.25H14.1713C14.2751 13.5072 14.3278 12.7555 14.3278 12C14.3278 11.2445 14.2751 10.4928 14.1713 9.74999H9.82872C9.72487 10.4928 9.6722 11.2445 9.6722 12C9.6722 12.7555 9.72487 13.5072 9.82872 14.25ZM8.57285 15.75C8.89306 17.2314 9.40235 18.6688 10.0904 20.0259C9.66546 19.9248 9.24827 19.7899 8.84286 19.622C7.84193 19.2074 6.93245 18.5997 6.16637 17.8336C5.55448 17.2217 5.04364 16.5184 4.65153 15.75H8.57285Z" fill="#18181A"/>
</svg>
