<svg width="24" height="24" viewBox="0 0 24 24" fill="none" xmlns="http://www.w3.org/2000/svg">
<path d="M8.87328 16.794H5.01865C3.97563 16.794 3.79424 15.6633 3.97563 15.2111C4.06633 14.9849 4.29307 14.6683 4.47447 14.4422C5.20004 14.8492 6.06167 15.0754 6.96864 15.0754C9.87095 15.0754 12.1837 12.7236 12.1837 9.87437C12.1837 8.33668 11.5035 6.9799 10.4605 5.98493L10.5965 5.84925C10.8686 5.57789 11.2768 5.39698 11.6849 5.44221L12.3198 5.48744V3H11.2314C9.96164 3 8.91863 3.76884 8.46514 4.85427C8.01166 4.71859 7.51282 4.62814 7.01399 4.62814C4.11168 4.62814 1.7989 6.9799 1.7989 9.82915C1.7989 10.9598 2.16169 12.0452 2.79657 12.9045C2.70587 12.995 2.56982 13.0854 2.47913 13.1307C2.43378 13.1759 2.38843 13.2211 2.34308 13.2663C1.30006 14.2613 0.80123 15.5276 1.07332 16.9749C1.20937 17.7437 1.8896 18.5578 2.56982 19.0101C3.02331 19.3266 3.61284 19.4623 4.20237 19.4623L8.55584 19.2814C9.05467 19.2814 9.50816 19.5075 9.78025 19.9598L10.3244 21L13 20.0955L12.5465 19.1005C11.8663 17.6985 10.4605 16.794 8.87328 16.794ZM7.01399 7.38694C8.37444 7.38694 9.50816 8.51759 9.50816 9.87437C9.50816 11.2312 8.37444 12.3618 7.01399 12.3618C5.65353 12.3618 4.51981 11.2312 4.51981 9.87437C4.51981 8.47236 5.60818 7.38694 7.01399 7.38694Z" fill="#18181A"/>
<path d="M19 9L22 12M22 12L19 15M22 12H16" stroke="#18181A" stroke-width="1.5" stroke-linecap="round" stroke-linejoin="round"/>
</svg>
