<svg width="24" height="24" viewBox="0 0 24 24" fill="none" xmlns="http://www.w3.org/2000/svg">
<path fill-rule="evenodd" clip-rule="evenodd" d="M6 4.75C5.37661 4.75 4.79397 4.97093 4.37695 5.34161C3.96282 5.70973 3.75 6.18875 3.75 6.66667V13.8854L7.50173 10.5506L7.51249 10.5412C8.09488 10.043 8.78152 9.76577 9.5 9.76577C10.2185 9.76577 10.9051 10.043 11.4875 10.5412L11.4983 10.5506L14 12.7743L14.5017 12.3283L14.5125 12.3189C15.0949 11.8208 15.7815 11.5436 16.5 11.5436C17.2185 11.5436 17.9051 11.8208 18.4875 12.3189L18.4983 12.3283L20.25 13.8854V6.66667C20.25 6.18875 20.0372 5.70973 19.623 5.34161C19.206 4.97093 18.6234 4.75 18 4.75H6ZM21.75 15.5524V6.66667C21.75 5.73009 21.3307 4.85256 20.6196 4.22049C19.9114 3.59098 18.9679 3.25 18 3.25H6C5.03209 3.25 4.08861 3.59098 3.38041 4.22049C2.66933 4.85256 2.25 5.73009 2.25 6.66667V15.5523C2.24999 15.5547 2.24999 15.557 2.25 15.5593V17.3333C2.25 18.2699 2.66933 19.1474 3.38041 19.7795C4.08861 20.409 5.03209 20.75 6 20.75H18C18.9679 20.75 19.9114 20.409 20.6196 19.7795C21.3307 19.1474 21.75 18.2699 21.75 17.3333V15.5592C21.75 15.5569 21.75 15.5547 21.75 15.5524ZM20.25 15.8924L17.5074 13.4545C17.1635 13.162 16.816 13.0436 16.5 13.0436C16.184 13.0436 15.8365 13.1621 15.4925 13.4545L15.1289 13.7778L16.4983 14.995C16.8079 15.2702 16.8357 15.7442 16.5606 16.0538C16.2854 16.3634 15.8113 16.3913 15.5017 16.1161L13.5102 14.3459C13.505 14.3413 13.4998 14.3367 13.4946 14.332L10.5074 11.6767C10.1635 11.3843 9.81598 11.2658 9.5 11.2658C9.18402 11.2658 8.83652 11.3843 8.49256 11.6767L3.75 15.8924V17.3333C3.75 17.8112 3.96282 18.2903 4.37695 18.6584C4.79397 19.0291 5.37661 19.25 6 19.25H18C18.6234 19.25 19.206 19.0291 19.623 18.6584C20.0372 18.2903 20.25 17.8112 20.25 17.3333V15.8924ZM14.25 8.44444C14.25 8.03023 14.5858 7.69444 15 7.69444H15.01C15.4242 7.69444 15.76 8.03023 15.76 8.44444C15.76 8.85866 15.4242 9.19444 15.01 9.19444H15C14.5858 9.19444 14.25 8.85866 14.25 8.44444Z" fill="#18181A"/>
</svg>
