<svg width="24" height="24" viewBox="0 0 24 24" fill="none" xmlns="http://www.w3.org/2000/svg">
<path fill-rule="evenodd" clip-rule="evenodd" d="M3.05546 3.05546C3.57118 2.53973 4.27065 2.25 5 2.25C5.72935 2.25 6.42882 2.53973 6.94454 3.05546C7.27933 3.39024 7.51888 3.80245 7.64576 4.25H16.5C17.6272 4.25 18.7082 4.69777 19.5052 5.4948C20.3022 6.29183 20.75 7.37283 20.75 8.5C20.75 9.62717 20.3022 10.7082 19.5052 11.5052C18.7082 12.3022 17.6272 12.75 16.5 12.75H7.5C6.77065 12.75 6.07118 13.0397 5.55546 13.5555C5.03973 14.0712 4.75 14.7707 4.75 15.5C4.75 16.2293 5.03973 16.9288 5.55546 17.4445C6.07118 17.9603 6.77065 18.25 7.5 18.25H19.1893L17.4697 16.5303C17.1768 16.2374 17.1768 15.7626 17.4697 15.4697C17.7626 15.1768 18.2374 15.1768 18.5303 15.4697L21.5303 18.4697C21.8232 18.7626 21.8232 19.2374 21.5303 19.5303L18.5303 22.5303C18.2374 22.8232 17.7626 22.8232 17.4697 22.5303C17.1768 22.2374 17.1768 21.7626 17.4697 21.4697L19.1893 19.75H7.5C6.37283 19.75 5.29183 19.3022 4.4948 18.5052C3.69777 17.7082 3.25 16.6272 3.25 15.5C3.25 14.3728 3.69777 13.2918 4.4948 12.4948C5.29183 11.6978 6.37283 11.25 7.5 11.25H16.5C17.2293 11.25 17.9288 10.9603 18.4445 10.4445C18.9603 9.92882 19.25 9.22935 19.25 8.5C19.25 7.77065 18.9603 7.07118 18.4445 6.55546C17.9288 6.03973 17.2293 5.75 16.5 5.75H7.64576C7.51888 6.19755 7.27933 6.60976 6.94454 6.94454C6.42882 7.46027 5.72935 7.75 5 7.75C4.27065 7.75 3.57118 7.46027 3.05546 6.94454C2.53973 6.42882 2.25 5.72935 2.25 5C2.25 4.27065 2.53973 3.57118 3.05546 3.05546ZM5 3.75C4.66848 3.75 4.35054 3.8817 4.11612 4.11612C3.8817 4.35054 3.75 4.66848 3.75 5C3.75 5.33152 3.8817 5.64946 4.11612 5.88388C4.35054 6.1183 4.66848 6.25 5 6.25C5.33152 6.25 5.64946 6.1183 5.88388 5.88388C6.1183 5.64946 6.25 5.33152 6.25 5C6.25 4.66848 6.1183 4.35054 5.88388 4.11612C5.64946 3.8817 5.33152 3.75 5 3.75Z" fill="#18181A"/>
</svg>
