<svg width="24" height="24" viewBox="0 0 24 24" fill="none" xmlns="http://www.w3.org/2000/svg">
<path fill-rule="evenodd" clip-rule="evenodd" d="M12 3.75C7.44365 3.75 3.75 7.44365 3.75 12C3.75 16.5563 7.44365 20.25 12 20.25C16.5563 20.25 20.25 16.5563 20.25 12C20.25 7.44365 16.5563 3.75 12 3.75ZM2.25 12C2.25 6.61522 6.61522 2.25 12 2.25C17.3848 2.25 21.75 6.61522 21.75 12C21.75 17.3848 17.3848 21.75 12 21.75C6.61522 21.75 2.25 17.3848 2.25 12Z" fill="#18181A"/>
<path d="M18 13.2354C18 13.677 17.8854 14.0739 17.6563 14.4259C17.4305 14.7779 17.0984 15.0535 16.66 15.2528C16.2217 15.4521 15.702 15.5517 15.1009 15.5517C14.3802 15.5517 13.7858 15.4155 13.3176 15.1432C12.9855 14.9473 12.7148 14.6866 12.5056 14.3611C12.2997 14.0324 12.1968 13.7136 12.1968 13.4047C12.1968 13.2254 12.2582 13.0726 12.3811 12.9465C12.5073 12.8169 12.6667 12.7522 12.8593 12.7522C13.0154 12.7522 13.1465 12.802 13.2528 12.9016C13.3624 13.0012 13.4554 13.149 13.5318 13.345C13.6247 13.5774 13.7244 13.7717 13.8306 13.9278C13.9402 14.0839 14.093 14.2134 14.2889 14.3163C14.4848 14.4159 14.7422 14.4658 15.061 14.4658C15.4994 14.4658 15.8547 14.3645 16.127 14.1619C16.4027 13.956 16.5405 13.7003 16.5405 13.3948C16.5405 13.1523 16.4658 12.9564 16.3163 12.807C16.1702 12.6542 15.9792 12.538 15.7435 12.4583C15.511 12.3786 15.1988 12.2939 14.807 12.2042C14.2823 12.0814 13.8423 11.9386 13.4869 11.7758C13.1349 11.6098 12.8543 11.3856 12.6451 11.1034C12.4392 10.8178 12.3362 10.4641 12.3362 10.0423C12.3362 9.64051 12.4458 9.28352 12.665 8.97136C12.8842 8.65919 13.2013 8.42009 13.6164 8.25405C14.0315 8.08468 14.5197 8 15.0809 8C15.5293 8 15.9161 8.05645 16.2416 8.16936C16.5704 8.27895 16.8427 8.42673 17.0585 8.6127C17.2744 8.79535 17.4321 8.98796 17.5318 9.19054C17.6314 9.39311 17.6812 9.5907 17.6812 9.78331C17.6812 9.95932 17.6181 10.1187 17.4919 10.2615C17.369 10.401 17.2146 10.4707 17.0286 10.4707C16.8593 10.4707 16.7298 10.4292 16.6401 10.3462C16.5538 10.2599 16.4591 10.1204 16.3562 9.92777C16.2233 9.65214 16.0639 9.43794 15.878 9.28518C15.692 9.1291 15.3931 9.05106 14.9813 9.05106C14.5994 9.05106 14.2906 9.13574 14.0548 9.30511C13.8223 9.47115 13.7061 9.67206 13.7061 9.90785C13.7061 10.054 13.746 10.1802 13.8257 10.2864C13.9054 10.3927 14.0149 10.484 14.1544 10.5604C14.2939 10.6368 14.435 10.6966 14.5778 10.7397C14.7206 10.7829 14.9564 10.846 15.2852 10.929C15.697 11.0253 16.0689 11.1316 16.401 11.2478C16.7364 11.3641 17.0203 11.5052 17.2528 11.6712C17.4886 11.8373 17.6712 12.0482 17.8007 12.3039C17.9336 12.5562 18 12.8667 18 13.2354Z" fill="#18181A"/>
<path d="M10.8468 8.89664V12.7223C10.8468 13.0544 10.8319 13.3367 10.802 13.5691C10.7754 13.8016 10.7123 14.0374 10.6127 14.2765C10.4467 14.6783 10.1727 14.9921 9.79078 15.2179C9.40888 15.4404 8.94396 15.5517 8.39602 15.5517C7.9012 15.5517 7.48775 15.4736 7.15567 15.3176C6.8269 15.1615 6.56123 14.9091 6.35866 14.5604C6.25239 14.3744 6.16604 14.1602 6.09963 13.9178C6.03321 13.6754 6 13.4446 6 13.2254C6 12.9929 6.06476 12.8153 6.19427 12.6924C6.32379 12.5695 6.48983 12.5081 6.6924 12.5081C6.88834 12.5081 7.03611 12.5645 7.13574 12.6775C7.23537 12.7904 7.31175 12.9664 7.36488 13.2055C7.42134 13.4612 7.47779 13.6654 7.53425 13.8182C7.5907 13.9709 7.68535 14.1021 7.81818 14.2117C7.95102 14.3213 8.14031 14.3761 8.38605 14.3761C9.04027 14.3761 9.36737 13.8962 9.36737 12.9365V8.89664C9.36737 8.59776 9.43213 8.3736 9.56164 8.22416C9.69448 8.07472 9.87381 8 10.0996 8C10.3288 8 10.5098 8.07472 10.6426 8.22416C10.7787 8.3736 10.8468 8.59776 10.8468 8.89664Z" fill="#18181A"/>
</svg>
