<svg width="24" height="24" viewBox="0 0 24 24" fill="none" xmlns="http://www.w3.org/2000/svg">
<path d="M13.8733 16.794H10.0186C8.97563 16.794 8.79424 15.6633 8.97563 15.2111C9.06633 14.9849 9.29307 14.6683 9.47447 14.4422C10.2 14.8492 11.0617 15.0754 11.9686 15.0754C14.8709 15.0754 17.1837 12.7236 17.1837 9.87437C17.1837 8.33668 16.5035 6.9799 15.4605 5.98493L15.5965 5.84925C15.8686 5.57789 16.2768 5.39698 16.6849 5.44221L17.3198 5.48744V3H16.2314C14.9616 3 13.9186 3.76884 13.4651 4.85427C13.0117 4.71859 12.5128 4.62814 12.014 4.62814C9.11168 4.62814 6.7989 6.9799 6.7989 9.82915C6.7989 10.9598 7.16169 12.0452 7.79657 12.9045C7.70587 12.995 7.56982 13.0854 7.47913 13.1307C7.43378 13.1759 7.38843 13.2211 7.34308 13.2663C6.30006 14.2613 5.80123 15.5276 6.07332 16.9749C6.20937 17.7437 6.8896 18.5578 7.56982 19.0101C8.02331 19.3266 8.61284 19.4623 9.20237 19.4623L13.5558 19.2814C14.0547 19.2814 14.5082 19.5075 14.7802 19.9598L15.3244 21L18 20.0955L17.5465 19.1005C16.8663 17.6985 15.4605 16.794 13.8733 16.794ZM12.014 7.38694C13.3744 7.38694 14.5082 8.51759 14.5082 9.87437C14.5082 11.2312 13.3744 12.3618 12.014 12.3618C10.6535 12.3618 9.51981 11.2312 9.51981 9.87437C9.51981 8.47236 10.6082 7.38694 12.014 7.38694Z" fill="#18181A"/>
</svg>
