<svg width="24" height="24" viewBox="0 0 24 24" fill="none" xmlns="http://www.w3.org/2000/svg">
<path fill-rule="evenodd" clip-rule="evenodd" d="M8.25 3.75C7.85218 3.75 7.47064 3.90804 7.18934 4.18934C6.90804 4.47064 6.75 4.85218 6.75 5.25V19.0338L11.0655 14.2003C11.2078 14.0409 11.4113 13.9498 11.625 13.9498C11.8387 13.9498 12.0422 14.0409 12.1845 14.2003L16.5 19.0338V5.25C16.5 4.85218 16.342 4.47064 16.0607 4.18934C15.7794 3.90804 15.3978 3.75 15 3.75H8.25ZM6.12868 3.12868C6.69129 2.56607 7.45435 2.25 8.25 2.25H15C15.7957 2.25 16.5587 2.56607 17.1213 3.12868C17.6839 3.69129 18 4.45435 18 5.25V21C18 21.3111 17.808 21.5899 17.5173 21.7007C17.2267 21.8116 16.8977 21.7316 16.6905 21.4995L11.625 15.8259L6.55946 21.4995C6.35228 21.7316 6.02335 21.8116 5.7327 21.7007C5.44204 21.5899 5.25 21.3111 5.25 21V5.25C5.25 4.45435 5.56607 3.69129 6.12868 3.12868Z" fill="#18181A"/>
</svg>
