<svg width="24" height="24" viewBox="0 0 24 24" fill="none" xmlns="http://www.w3.org/2000/svg">
<path fill-rule="evenodd" clip-rule="evenodd" d="M9 2.25C9.41421 2.25 9.75 2.58579 9.75 3V4.25H11C11.4142 4.25 11.75 4.58579 11.75 5C11.75 5.41421 11.4142 5.75 11 5.75H9.72949C9.61772 7.78517 9.05442 9.64143 8.17137 11.0543C8.09004 11.1844 8.00549 11.3114 7.91783 11.435C8.93658 11.9058 10.2493 12.2142 11.7184 12.2502C12.1325 12.2604 12.4599 12.6043 12.4498 13.0184C12.4396 13.4325 12.0957 13.7599 11.6816 13.7498C9.85828 13.705 8.18016 13.2857 6.8811 12.5945C6.06128 13.31 5.08504 13.75 4 13.75C3.58579 13.75 3.25 13.4142 3.25 13C3.25 12.5858 3.58579 12.25 4 12.25C4.53697 12.25 5.07839 12.0676 5.59079 11.7052C4.78413 10.9801 4.25 10.0617 4.25 9C4.25 8.58579 4.58579 8.25 5 8.25C5.41421 8.25 5.75 8.58579 5.75 9C5.75 9.5307 6.03053 10.1052 6.64472 10.6368C6.73165 10.5175 6.81661 10.3917 6.89938 10.2592C7.61931 9.1074 8.11687 7.53347 8.22698 5.75H4C3.58579 5.75 3.25 5.41421 3.25 5C3.25 4.58579 3.58579 4.25 4 4.25H8.25V3C8.25 2.58579 8.58579 2.25 9 2.25ZM16 10.25C16.2964 10.25 16.565 10.4246 16.6854 10.6954L20.6854 19.6954C20.8536 20.0739 20.6831 20.5171 20.3046 20.6854C19.9261 20.8536 19.4829 20.6831 19.3146 20.3046L18.6237 18.75H13.3763L12.6854 20.3046C12.5171 20.6831 12.0739 20.8536 11.6954 20.6854C11.3169 20.5171 11.1464 20.0739 11.3146 19.6954L15.3146 10.6954C15.435 10.4246 15.7036 10.25 16 10.25ZM14.043 17.25H17.957L16 12.8467L14.043 17.25Z" fill="#18181A"/>
</svg>
