<svg width="24" height="24" viewBox="0 0 24 24" fill="none" xmlns="http://www.w3.org/2000/svg">
<path fill-rule="evenodd" clip-rule="evenodd" d="M12 3.75C11.138 3.75 10.3114 4.09241 9.7019 4.7019C9.09241 5.3114 8.75 6.13805 8.75 7V10.25H15.25V7C15.25 6.13805 14.9076 5.3114 14.2981 4.7019C13.6886 4.09241 12.862 3.75 12 3.75ZM16.75 10.25V7C16.75 5.74022 16.2496 4.53204 15.3588 3.64124C14.468 2.75044 13.2598 2.25 12 2.25C10.7402 2.25 9.53204 2.75044 8.64124 3.64124C7.75044 4.53204 7.25 5.74022 7.25 7V10.25H7C6.27065 10.25 5.57118 10.5397 5.05546 11.0555C4.53973 11.5712 4.25 12.2707 4.25 13V19C4.25 19.7293 4.53973 20.4288 5.05546 20.9445C5.57118 21.4603 6.27065 21.75 7 21.75H17C17.7293 21.75 18.4288 21.4603 18.9445 20.9445C19.4603 20.4288 19.75 19.7293 19.75 19V13C19.75 12.2707 19.4603 11.5712 18.9445 11.0555C18.4288 10.5397 17.7293 10.25 17 10.25H16.75ZM7 11.75C6.66848 11.75 6.35054 11.8817 6.11612 12.1161C5.8817 12.3505 5.75 12.6685 5.75 13V19C5.75 19.3315 5.8817 19.6495 6.11612 19.8839C6.35054 20.1183 6.66848 20.25 7 20.25H17C17.3315 20.25 17.6495 20.1183 17.8839 19.8839C18.1183 19.6495 18.25 19.3315 18.25 19V13C18.25 12.6685 18.1183 12.3505 17.8839 12.1161C17.6495 11.8817 17.3315 11.75 17 11.75H7ZM10.7626 14.7626C11.0908 14.4344 11.5359 14.25 12 14.25C12.4641 14.25 12.9092 14.4344 13.2374 14.7626C13.5656 15.0908 13.75 15.5359 13.75 16C13.75 16.4641 13.5656 16.9092 13.2374 17.2374C12.9092 17.5656 12.4641 17.75 12 17.75C11.5359 17.75 11.0908 17.5656 10.7626 17.2374C10.4344 16.9092 10.25 16.4641 10.25 16C10.25 15.5359 10.4344 15.0908 10.7626 14.7626ZM12 15.75C11.9337 15.75 11.8701 15.7763 11.8232 15.8232C11.7763 15.8701 11.75 15.9337 11.75 16C11.75 16.0663 11.7763 16.1299 11.8232 16.1768C11.8701 16.2237 11.9337 16.25 12 16.25C12.0663 16.25 12.1299 16.2237 12.1768 16.1768C12.2237 16.1299 12.25 16.0663 12.25 16C12.25 15.9337 12.2237 15.8701 12.1768 15.8232C12.1299 15.7763 12.0663 15.75 12 15.75Z" fill="#18181A"/>
</svg>
