<svg width="24" height="24" viewBox="0 0 24 24" fill="none" xmlns="http://www.w3.org/2000/svg">
<path fill-rule="evenodd" clip-rule="evenodd" d="M12 3.75029C10.5661 3.75029 9.16441 4.17549 7.97216 4.97211C6.77991 5.76873 5.85066 6.90101 5.30191 8.22575C4.75317 9.55049 4.60957 11.0082 4.88928 12.4146C5.16899 13.8209 5.85942 15.1127 6.87327 16.1266C6.87325 16.1266 6.8733 16.1266 6.87327 16.1266L11.1171 20.3694C11.3515 20.6035 11.6692 20.7351 12.0005 20.7351C12.3318 20.7351 12.6496 20.6035 12.8839 20.3694L17.1267 16.1267C18.1406 15.1127 18.831 13.8209 19.1107 12.4146C19.3904 11.0082 19.2468 9.55049 18.6981 8.22575C18.1493 6.90101 17.2201 5.76873 16.0278 4.97211C14.8356 4.17549 13.4339 3.75029 12 3.75029ZM7.13881 3.7249C8.57773 2.76346 10.2694 2.25029 12 2.25029C13.7306 2.25029 15.4223 2.76346 16.8612 3.7249C18.3001 4.68634 19.4216 6.05288 20.0839 7.65171C20.7462 9.25053 20.9195 11.0098 20.5819 12.7072C20.2443 14.4045 19.411 15.9636 18.1873 17.1873L13.9443 21.4303C13.4287 21.9455 12.7294 22.2351 12.0005 22.2351C11.2716 22.2351 10.5726 21.9457 10.0569 21.4306L5.81274 17.1874C4.58907 15.9637 3.75568 14.4045 3.4181 12.7072C3.08052 11.0098 3.25382 9.25053 3.9161 7.65171C4.57838 6.05288 5.69989 4.68634 7.13881 3.7249ZM9.34835 8.34835C10.0516 7.64509 11.0054 7.25 12 7.25C12.9946 7.25 13.9484 7.64509 14.6517 8.34835C15.3549 9.05161 15.75 10.0054 15.75 11C15.75 11.9946 15.3549 12.9484 14.6517 13.6517C13.9484 14.3549 12.9946 14.75 12 14.75C11.0054 14.75 10.0516 14.3549 9.34835 13.6517C8.64509 12.9484 8.25 11.9946 8.25 11C8.25 10.0054 8.64509 9.05161 9.34835 8.34835ZM12 8.75C11.4033 8.75 10.831 8.98705 10.409 9.40901C9.98705 9.83097 9.75 10.4033 9.75 11C9.75 11.5967 9.98705 12.169 10.409 12.591C10.831 13.0129 11.4033 13.25 12 13.25C12.5967 13.25 13.169 13.0129 13.591 12.591C14.0129 12.169 14.25 11.5967 14.25 11C14.25 10.4033 14.0129 9.83097 13.591 9.40901C13.169 8.98705 12.5967 8.75 12 8.75Z" fill="#18181A"/>
</svg>
