<svg width="24" height="24" viewBox="0 0 24 24" fill="none" xmlns="http://www.w3.org/2000/svg">
<path fill-rule="evenodd" clip-rule="evenodd" d="M8.42158 12C8.42158 11.5858 8.75736 11.25 9.17158 11.25L11.25 11.25L11.25 9.17157C11.25 8.75735 11.5858 8.42157 12 8.42157C12.4142 8.42157 12.75 8.75735 12.75 9.17157L12.75 11.25H14.8284C15.2426 11.25 15.5784 11.5858 15.5784 12C15.5784 12.4142 15.2426 12.75 14.8284 12.75H12.75L12.75 14.8284C12.75 15.2426 12.4142 15.5784 12 15.5784C11.5858 15.5784 11.25 15.2426 11.25 14.8284L11.25 12.75L9.17158 12.75C8.75736 12.75 8.42158 12.4142 8.42158 12Z" fill="#18181A"/>
<path fill-rule="evenodd" clip-rule="evenodd" d="M11.9993 4.75C7.9952 4.75 4.74926 7.99594 4.74926 12C4.74926 13.6335 5.28859 15.1389 6.1992 16.3507L6.55075 16.8185L4.58144 19.25H11.9993C16.0033 19.25 19.2493 16.0041 19.2493 12C19.2493 7.99594 16.0033 4.75 11.9993 4.75ZM3.24926 12C3.24926 7.16751 7.16677 3.25 11.9993 3.25C16.8318 3.25 20.7493 7.16751 20.7493 12C20.7493 16.8325 16.8318 20.75 11.9993 20.75H3.53302C2.68743 20.75 2.22448 19.7664 2.76052 19.115L4.66138 16.768C3.76835 15.3962 3.24926 13.7579 3.24926 12Z" fill="#18181A"/>
</svg>
