<svg width="24" height="24" viewBox="0 0 24 24" fill="none" xmlns="http://www.w3.org/2000/svg">
<path fill-rule="evenodd" clip-rule="evenodd" d="M12.6881 2.27396C13.7906 2.35197 14.8775 2.61727 15.9008 3.06398C17.6394 3.82296 19.1188 5.07264 20.1578 6.65989C20.5961 7.32951 20.948 8.04695 21.2083 8.79511C21.3445 9.18631 21.1377 9.6138 20.7465 9.74994C20.5804 9.80775 20.4077 9.80373 20.2536 9.75H9.82873C9.72488 10.4928 9.67221 11.2445 9.67221 12C9.67221 12.9608 9.7574 13.9156 9.92471 14.8535C9.92645 14.8623 9.92804 14.8712 9.92947 14.8801C10.2936 16.9019 11.0394 18.8453 12.1363 20.6029C12.3556 20.9543 12.2485 21.417 11.8971 21.6363C11.7128 21.7513 11.4979 21.7765 11.3036 21.7238C11.2906 21.7235 11.2775 21.7229 11.2644 21.7219C9.37278 21.5787 7.56399 20.8869 6.05969 19.7311C4.5554 18.5753 3.42095 17.0058 2.79538 15.2148C2.16981 13.4239 2.08028 11.4894 2.53777 9.64834C2.99526 7.80729 3.9799 6.13969 5.37102 4.84989C6.76213 3.5601 8.4993 2.70415 10.3696 2.38693C10.6827 2.33384 10.9971 2.29623 11.312 2.27396C11.4077 2.24917 11.5082 2.24324 11.6075 2.25755C11.8694 2.247 12.1312 2.24703 12.3925 2.25755C12.4918 2.24324 12.5923 2.24917 12.6881 2.27396ZM11.9222 3.75002C11.9741 3.74953 12.026 3.74953 12.0779 3.75002C12.9063 5.15489 13.5158 6.67235 13.8898 8.25H10.1108C10.4846 6.67392 11.0935 5.15636 11.9222 3.75002ZM10.0906 3.97365C8.71067 4.30193 7.43546 4.98134 6.39086 5.94986C5.67689 6.61182 5.08946 7.3914 4.65135 8.25H8.57286C8.8931 6.76843 9.40246 5.33093 10.0906 3.97365ZM8.31538 9.75H4.06265C4.03821 9.83621 4.01516 9.92292 3.9935 10.0101C3.64612 11.408 3.67147 12.8696 4.06284 14.25H8.31538C8.22035 13.5063 8.17221 12.7549 8.17221 12C8.17221 11.2451 8.22035 10.4937 8.31538 9.75ZM8.57286 15.75H4.6517C5.20662 16.8373 5.99823 17.7922 6.97359 18.5416C7.90006 19.2535 8.96303 19.7573 10.0902 20.0256C9.40226 18.6685 8.89304 17.2313 8.57286 15.75ZM15.4278 8.25C15.1074 6.76723 14.5977 5.32984 13.9099 3.97376C14.3843 4.08664 14.8498 4.24186 15.3007 4.4387C16.7718 5.08091 18.0236 6.13834 18.9027 7.48139C19.0656 7.7302 19.2144 7.98681 19.3487 8.25H15.4278Z" fill="#18181A"/>
<path fill-rule="evenodd" clip-rule="evenodd" d="M12.1076 12.1055C12.8167 11.3979 13.7723 10.998 14.7721 11C15.5819 11.0016 16.3616 11.2667 17.0041 11.7447C17.6488 11.2681 18.4304 11.0055 19.2411 11.0071C20.2414 11.0091 21.1958 11.4131 21.9023 12.1239C22.2522 12.4756 22.5287 12.8943 22.7166 13.3546C22.9047 13.8149 23.0008 14.3084 23 14.8061C22.9992 15.3038 22.9015 15.797 22.712 16.2567C22.5229 16.7157 22.2456 17.133 21.8952 17.4833C21.8946 17.4839 21.8939 17.4846 21.8933 17.4852L17.7098 21.7041C17.5219 21.8936 17.266 22.0001 16.9992 22C16.7323 21.9999 16.4766 21.8931 16.2889 21.7034L12.0973 17.4672C12.097 17.4669 12.0966 17.4666 12.0963 17.4662C11.7467 17.1145 11.4706 16.6959 11.2829 16.2358C11.095 15.7754 10.9991 15.2819 11 14.7842C11.001 14.2865 11.0988 13.7934 11.2884 13.3337C11.4781 12.874 11.7561 12.4561 12.1075 12.1055M16.013 13.5248C15.6751 13.1859 15.2281 13.0009 14.7682 13C14.3076 12.9991 13.8593 13.1829 13.5201 13.5213L13.5201 13.5214C13.3578 13.6833 13.2272 13.8785 13.1373 14.0964C13.0474 14.3143 13.0005 14.5496 13 14.788C12.9996 15.0264 13.0456 15.2619 13.1347 15.4802C13.2237 15.6985 13.3537 15.8943 13.5153 16.0569L13.5172 16.0587L17.0005 19.579L20.4767 16.0734L20.4803 16.0698C20.6425 15.9078 20.7731 15.7125 20.8629 15.4946C20.9528 15.2766 20.9996 15.0414 21 14.8029C21.0004 14.5645 20.9543 14.3291 20.8651 14.1108C20.776 13.8926 20.646 13.6968 20.4843 13.5343L20.4838 13.5338C20.1458 13.1937 19.6979 13.008 19.2372 13.0071C18.7773 13.0062 18.3296 13.1895 17.9906 13.5269L17.7129 13.8075C17.5248 13.9975 17.2685 14.1043 17.0011 14.104C16.7337 14.1037 16.4776 13.9963 16.2899 13.8059L16.013 13.5248Z" fill="#18181A"/>
</svg>
