<svg width="24" height="24" viewBox="0 0 24 24" fill="none" xmlns="http://www.w3.org/2000/svg">
<path fill-rule="evenodd" clip-rule="evenodd" d="M12 3.75C7.44365 3.75 3.75 7.44365 3.75 12C3.75 16.5563 7.44365 20.25 12 20.25C16.5563 20.25 20.25 16.5563 20.25 12C20.25 7.44365 16.5563 3.75 12 3.75ZM2.25 12C2.25 6.61522 6.61522 2.25 12 2.25C17.3848 2.25 21.75 6.61522 21.75 12C21.75 17.3848 17.3848 21.75 12 21.75C6.61522 21.75 2.25 17.3848 2.25 12Z" fill="#18181A"/>
<path fill-rule="evenodd" clip-rule="evenodd" d="M16.75 12C16.75 12.2679 16.6071 12.5155 16.375 12.6495L10.375 16.1136C10.1429 16.2476 9.85705 16.2476 9.625 16.1136C9.39295 15.9796 9.25 15.7321 9.25 15.4641L9.25 8.5359C9.25 8.26795 9.39295 8.02035 9.625 7.88638C9.85705 7.7524 10.1429 7.7524 10.375 7.88638L16.375 11.3505C16.6071 11.4845 16.75 11.7321 16.75 12ZM10.75 9.83494L10.75 14.1651L14.5 12L10.75 9.83494Z" fill="#18181A"/>
</svg>
