<svg width="24" height="24" viewBox="0 0 24 24" fill="none" xmlns="http://www.w3.org/2000/svg">
<path fill-rule="evenodd" clip-rule="evenodd" d="M12 2.75C11.4033 2.75 10.831 2.98705 10.409 3.40901C9.98705 3.83097 9.75 4.40326 9.75 5V10C9.75 10.5967 9.98705 11.169 10.409 11.591C10.831 12.0129 11.4033 12.25 12 12.25C12.5967 12.25 13.169 12.0129 13.591 11.591C14.0129 11.169 14.25 10.5967 14.25 10V5C14.25 4.40326 14.0129 3.83097 13.591 3.40901C13.169 2.98705 12.5967 2.75 12 2.75ZM9.34835 2.34835C10.0516 1.64509 11.0054 1.25 12 1.25C12.9946 1.25 13.9484 1.64509 14.6517 2.34835C15.3549 3.05161 15.75 4.00544 15.75 5V10C15.75 10.9946 15.3549 11.9484 14.6517 12.6517C13.9484 13.3549 12.9946 13.75 12 13.75C11.0054 13.75 10.0516 13.3549 9.34835 12.6517C8.64509 11.9484 8.25 10.9946 8.25 10V5C8.25 4.00544 8.64509 3.05161 9.34835 2.34835ZM5 9.25C5.41421 9.25 5.75 9.58579 5.75 10C5.75 11.6576 6.40848 13.2473 7.58058 14.4194C8.75268 15.5915 10.3424 16.25 12 16.25C13.6576 16.25 15.2473 15.5915 16.4194 14.4194C17.5915 13.2473 18.25 11.6576 18.25 10C18.25 9.58579 18.5858 9.25 19 9.25C19.4142 9.25 19.75 9.58579 19.75 10C19.75 12.0554 18.9335 14.0267 17.4801 15.4801C16.2045 16.7556 14.5301 17.5406 12.75 17.7136V20.25H16C16.4142 20.25 16.75 20.5858 16.75 21C16.75 21.4142 16.4142 21.75 16 21.75H8C7.58579 21.75 7.25 21.4142 7.25 21C7.25 20.5858 7.58579 20.25 8 20.25H11.25V17.7136C9.46988 17.5406 7.79547 16.7556 6.51992 15.4801C5.06652 14.0267 4.25 12.0554 4.25 10C4.25 9.58579 4.58579 9.25 5 9.25Z" fill="#18181A"/>
</svg>
