<svg width="24" height="24" viewBox="0 0 24 24" fill="none" xmlns="http://www.w3.org/2000/svg">
<path fill-rule="evenodd" clip-rule="evenodd" d="M5.35688 4.61413C5.49242 4.38822 5.73655 4.25 6 4.25H18C18.2634 4.25 18.5076 4.38822 18.6431 4.61413L21.6431 9.61413C21.8122 9.89599 21.7781 10.2551 21.5589 10.5001L13.0589 20.0001C13.0514 20.0085 13.0436 20.0168 13.0357 20.0249C12.9007 20.1627 12.7396 20.2721 12.5617 20.3469C12.3839 20.4216 12.1929 20.4601 12 20.4601C11.8071 20.4601 11.6161 20.4216 11.4383 20.3469C11.2604 20.2721 11.0993 20.1627 10.9643 20.0249C10.9564 20.0168 10.9486 20.0085 10.9411 20.0001L2.44107 10.5001C2.22189 10.2551 2.18776 9.89599 2.35688 9.61413L5.35688 4.61413ZM6.42464 5.75L3.92753 9.91186L12 18.934L20.0725 9.91186L17.5754 5.75H6.42464ZM8.98587 8.15688C9.34106 8.36999 9.45623 8.83069 9.24312 9.18587L8.92989 9.70793L10.555 11.4955C10.8336 11.802 10.811 12.2763 10.5045 12.555C10.198 12.8336 9.72368 12.811 9.44505 12.5045L7.44505 10.3045C7.22246 10.0597 7.18663 9.69788 7.35688 9.41413L7.95688 8.41413C8.16999 8.05895 8.63069 7.94377 8.98587 8.15688Z" fill="#18181A"/>
</svg>
