<svg width="24" height="24" viewBox="0 0 24 24" fill="none" xmlns="http://www.w3.org/2000/svg">
<path fill-rule="evenodd" clip-rule="evenodd" d="M12 2.25C12.4142 2.25 12.75 2.58579 12.75 3V4.36465L18.1233 5.2602C18.36 5.29965 18.5635 5.44997 18.6708 5.66459L21.6708 11.6646C21.7229 11.7687 21.75 11.8836 21.75 12C21.75 12.9946 21.3549 13.9484 20.6517 14.6517C19.9484 15.3549 18.9946 15.75 18 15.75C17.0054 15.75 16.0516 15.3549 15.3483 14.6517C14.6451 13.9484 14.25 12.9946 14.25 12C14.25 11.8836 14.2771 11.7687 14.3292 11.6646L16.875 6.57285L12.75 5.88535V19.25H17C17.4142 19.25 17.75 19.5858 17.75 20C17.75 20.4142 17.4142 20.75 17 20.75H7C6.58579 20.75 6.25 20.4142 6.25 20C6.25 19.5858 6.58579 19.25 7 19.25H11.25V5.88535L7.12495 6.57285L9.67082 11.6646C9.72289 11.7687 9.75 11.8836 9.75 12C9.75 12.9946 9.35491 13.9484 8.65165 14.6517C7.94839 15.3549 6.99456 15.75 6 15.75C5.00544 15.75 4.05161 15.3549 3.34835 14.6517C2.64509 13.9484 2.25 12.9946 2.25 12C2.25 11.8836 2.27711 11.7687 2.32918 11.6646L5.32918 5.66459C5.43649 5.44997 5.64001 5.29965 5.8767 5.2602L11.25 4.36465V3C11.25 2.58579 11.5858 2.25 12 2.25ZM6 7.67705L8.24395 12.165C8.20454 12.7014 7.9739 13.2081 7.59099 13.591C7.16903 14.0129 6.59674 14.25 6 14.25C5.40326 14.25 4.83097 14.0129 4.40901 13.591C4.0261 13.2081 3.79546 12.7014 3.75605 12.165L6 7.67705ZM18 7.67705L15.7561 12.165C15.7955 12.7014 16.0261 13.2081 16.409 13.591C16.831 14.0129 17.4033 14.25 18 14.25C18.5967 14.25 19.169 14.0129 19.591 13.591C19.9739 13.2081 20.2045 12.7014 20.2439 12.165L18 7.67705Z" fill="#18181A"/>
</svg>
