<svg width="24" height="24" viewBox="0 0 24 24" fill="none" xmlns="http://www.w3.org/2000/svg">
<path fill-rule="evenodd" clip-rule="evenodd" d="M7.55003 4.77722C9.23089 3.80616 11.1844 3.41469 13.1096 3.66311C15.0349 3.91153 16.8251 4.78605 18.2044 6.15197C19.5837 7.51789 20.4757 9.29943 20.7429 11.2222C20.7999 11.6324 20.5135 12.0112 20.1032 12.0683C19.693 12.1253 19.3142 11.8389 19.2571 11.4286C19.0352 9.83179 18.2944 8.35221 17.1489 7.2178C16.0034 6.08339 14.5166 5.35709 12.9177 5.15078C11.3188 4.94446 9.69635 5.26958 8.30038 6.07605C7.24352 6.68661 6.36083 7.54742 5.72532 8.57539H8C8.41421 8.57539 8.75 8.91118 8.75 9.32539C8.75 9.7396 8.41421 10.0754 8 10.0754H4.51677C4.50541 10.0757 4.49403 10.0757 4.48263 10.0754H4C3.58579 10.0754 3.25 9.7396 3.25 9.32539V5.32539C3.25 4.91118 3.58579 4.57539 4 4.57539C4.41421 4.57539 4.75 4.91118 4.75 5.32539V7.33235C5.48348 6.2946 6.43646 5.42054 7.55003 4.77722ZM3.89676 12.5825C4.30703 12.5255 4.68585 12.8119 4.74286 13.2221C4.96478 14.819 5.70556 16.2986 6.8511 17.433C7.99664 18.5674 9.48338 19.2937 11.0823 19.5C12.6812 19.7063 14.3036 19.3812 15.6996 18.5747C16.7565 17.9642 17.6392 17.1033 18.2747 16.0754H16C15.5858 16.0754 15.25 15.7396 15.25 15.3254C15.25 14.9112 15.5858 14.5754 16 14.5754H19.4832C19.4946 14.5751 19.506 14.5751 19.5174 14.5754H20C20.4142 14.5754 20.75 14.9112 20.75 15.3254V19.3254C20.75 19.7396 20.4142 20.0754 20 20.0754C19.5858 20.0754 19.25 19.7396 19.25 19.3254V17.3184C18.5165 18.3562 17.5635 19.2302 16.45 19.8736C14.7691 20.8446 12.8156 21.2361 10.8904 20.9877C8.96511 20.7392 7.17495 19.8647 5.79563 18.4988C4.41631 17.1329 3.52434 15.3513 3.25714 13.4286C3.20012 13.0183 3.48649 12.6395 3.89676 12.5825Z" fill="#18181A"/>
</svg>
