<svg width="24" height="24" viewBox="0 0 24 24" fill="none" xmlns="http://www.w3.org/2000/svg">
<path fill-rule="evenodd" clip-rule="evenodd" d="M12.6836 2.27284C12.5898 2.24915 12.4914 2.24354 12.3943 2.25732C12.2629 2.25222 12.1313 2.24978 11.9995 2.25002C11.9998 2.25002 12.0001 2.25002 12.0005 2.25002M11.312 2.27395C9.94679 2.36984 8.61438 2.75256 7.40287 3.40009C5.98839 4.15609 4.78246 5.24965 3.89216 6.58368C3.66222 6.92822 3.75513 7.39391 4.09966 7.62385C4.44419 7.85378 4.90989 7.76088 5.13982 7.41635C5.89303 6.28774 6.91326 5.36257 8.10993 4.72299C8.73757 4.38753 9.40355 4.13608 10.0908 3.97291C9.63405 4.87357 9.25463 5.81245 8.95711 6.77947C8.83531 7.17537 9.0575 7.59505 9.4534 7.71686C9.8493 7.83866 10.269 7.61646 10.3908 7.22056C10.764 6.00753 11.278 4.84289 11.9219 3.75033C11.9478 3.75011 11.9737 3.75 11.9995 3.75002L12.0014 3.75002C12.027 3.74997 12.0526 3.75004 12.0782 3.75023C12.7228 4.84281 13.2375 6.00759 13.6112 7.22084C13.7332 7.61669 14.153 7.83873 14.5488 7.71677C14.9447 7.59481 15.1667 7.17504 15.0448 6.77919C14.7465 5.81111 14.3661 4.87128 13.9083 3.9698C14.5989 4.13249 15.2683 4.38418 15.899 4.72059C17.0984 5.36028 18.1212 6.28642 18.8764 7.41668C19.1065 7.76109 19.5722 7.85374 19.9167 7.62363C20.2611 7.39351 20.3537 6.92776 20.1236 6.58335C19.2311 5.24759 18.0224 4.15305 16.6049 3.39706C15.3894 2.74881 14.0528 2.36671 12.6836 2.27284M1.8181 9.27241C2.21994 9.17195 2.62715 9.41627 2.72761 9.81811L3.14345 11.4815L3.79775 9.73667C3.90753 9.44395 4.18737 9.25002 4.5 9.25002C4.81263 9.25002 5.09247 9.44395 5.20225 9.73667L5.85655 11.4815L6.27239 9.81811C6.37285 9.41627 6.78006 9.17195 7.1819 9.27241C7.58375 9.37287 7.82807 9.78007 7.72761 10.1819L6.72761 14.1819C6.64798 14.5004 6.37044 14.7301 6.04265 14.7488C5.71486 14.7675 5.41303 14.5708 5.29775 14.2634L4.5 12.136L3.70225 14.2634C3.58697 14.5708 3.28514 14.7675 2.95735 14.7488C2.62956 14.7301 2.35202 14.5004 2.27239 14.1819L1.27239 10.1819C1.17193 9.78007 1.41625 9.37287 1.8181 9.27241ZM9.3181 9.27241C9.71994 9.17195 10.1271 9.41627 10.2276 9.81811L10.6434 11.4815L11.2978 9.73667C11.4075 9.44395 11.6874 9.25002 12 9.25002C12.3126 9.25002 12.5925 9.44395 12.7022 9.73667L13.3566 11.4815L13.7724 9.81811C13.8729 9.41627 14.2801 9.17195 14.6819 9.27241C15.0837 9.37287 15.3281 9.78007 15.2276 10.1819L14.2276 14.1819C14.148 14.5004 13.8704 14.7301 13.5426 14.7488C13.2149 14.7675 12.913 14.5708 12.7978 14.2634L12 12.136L11.2022 14.2634C11.087 14.5708 10.7851 14.7675 10.4574 14.7488C10.1296 14.7301 9.85202 14.5004 9.77239 14.1819L8.77239 10.1819C8.67193 9.78007 8.91625 9.37287 9.3181 9.27241ZM16.8181 9.27241C17.2199 9.17195 17.6271 9.41627 17.7276 9.81811L18.1434 11.4815L18.7978 9.73667C18.9075 9.44395 19.1874 9.25002 19.5 9.25002C19.8126 9.25002 20.0925 9.44395 20.2022 9.73667L20.8566 11.4815L21.2724 9.81811C21.3729 9.41627 21.7801 9.17195 22.1819 9.27241C22.5837 9.37287 22.8281 9.78007 22.7276 10.1819L21.7276 14.1819C21.648 14.5004 21.3704 14.7301 21.0426 14.7488C20.7149 14.7675 20.413 14.5708 20.2978 14.2634L19.5 12.136L18.7022 14.2634C18.587 14.5708 18.2851 14.7675 17.9574 14.7488C17.6296 14.7301 17.352 14.5004 17.2724 14.1819L16.2724 10.1819C16.1719 9.78007 16.4163 9.37287 16.8181 9.27241ZM9.4534 16.2832C9.8493 16.1614 10.269 16.3836 10.3908 16.7795C10.764 17.9925 11.278 19.1571 11.9219 20.2497C11.9478 20.2499 11.9737 20.25 11.9995 20.25L12.0014 20.25C12.027 20.2501 12.0526 20.25 12.0782 20.2498C12.7228 19.1572 13.2375 17.9924 13.6112 16.7792C13.7332 16.3833 14.153 16.1613 14.5488 16.2833C14.9447 16.4052 15.1667 16.825 15.0448 17.2208C14.7465 18.1889 14.3662 19.1287 13.9083 20.0302C14.5989 19.8675 15.2683 19.6159 15.899 19.2794C17.0984 18.6398 18.1212 17.7136 18.8764 16.5834C19.1065 16.2389 19.5722 16.1463 19.9167 16.3764C20.2611 16.6065 20.3537 17.0723 20.1236 17.4167C19.2311 18.7524 18.0224 19.847 16.6049 20.603C15.3894 21.2512 14.0528 21.6333 12.6836 21.7272C12.5898 21.7509 12.4914 21.7565 12.3943 21.7427C12.263 21.7478 12.1315 21.7502 11.9999 21.75C11.8691 21.7501 11.7385 21.7475 11.6082 21.7424C11.5087 21.7568 11.4079 21.7509 11.312 21.7261C9.94679 21.6302 8.61439 21.2475 7.40287 20.5999C5.98839 19.8439 4.78246 18.7504 3.89216 17.4163C3.66222 17.0718 3.75513 16.6061 4.09966 16.3762C4.44419 16.1462 4.90989 16.2392 5.13982 16.5837C5.89303 17.7123 6.91326 18.6375 8.10993 19.277C8.73757 19.6125 9.40355 19.8639 10.0908 20.0271C9.63405 19.1265 9.25463 18.1876 8.95711 17.2206C8.83531 16.8247 9.0575 16.405 9.4534 16.2832ZM11.999 21.5601L11.9986 21.75C11.999 21.75 11.9994 21.75 11.9999 21.75C12.0001 21.75 12.0003 21.75 12.0005 21.75L12.0003 21.5595C12.0002 21.5594 12.0001 21.5593 12 21.5592" fill="#18181A"/>
</svg>
