<svg width="24" height="24" viewBox="0 0 24 24" fill="none" xmlns="http://www.w3.org/2000/svg">
<path fill-rule="evenodd" clip-rule="evenodd" d="M7.24687 4.99844C7.24687 4.03194 8.03037 3.24844 8.99687 3.24844H14.9969C15.9634 3.24844 16.7469 4.03194 16.7469 4.99844C16.7469 5.87789 16.0981 6.60582 15.2531 6.72981V7.89363C15.2531 8.48267 15.4132 9.06064 15.7163 9.56574L19.2187 15.4032C19.5684 15.986 19.7531 16.6529 19.7531 17.3325V18.0016C19.7531 19.5203 18.5219 20.7516 17.0031 20.7516L7.00313 20.7516C5.48434 20.7516 4.25313 19.5203 4.25313 18.0016V17.3325C4.25313 16.6529 4.43784 15.986 4.78753 15.4032L8.28998 9.56574C8.59304 9.06064 8.75313 8.48267 8.75313 7.89363L8.75313 6.7316C7.90201 6.61299 7.24687 5.88222 7.24687 4.99844ZM10.2531 6.74844H13.7531V7.89363C13.7531 8.75454 13.9871 9.59926 14.43 10.3375L14.9775 11.25L9.02871 11.25L9.57622 10.3375C10.0192 9.59926 10.2531 8.75454 10.2531 7.89363L10.2531 6.74844ZM8.99687 4.74844C8.8588 4.74844 8.74687 4.86036 8.74687 4.99844C8.74687 5.13651 8.8588 5.24844 8.99687 5.24844H14.9969C15.1349 5.24844 15.2469 5.13651 15.2469 4.99844C15.2469 4.86036 15.1349 4.74844 14.9969 4.74844H8.99687ZM17.0031 19.2516L7.00313 19.2516C6.31277 19.2516 5.75313 18.6919 5.75313 18.0016L5.75313 17.3325C5.75313 16.9247 5.86396 16.5246 6.07377 16.1749L8.12871 12.75L15.8775 12.75L17.9325 16.1749C18.1423 16.5246 18.2531 16.9247 18.2531 17.3325V18.0016C18.2531 18.6919 17.6935 19.2516 17.0031 19.2516ZM9 16.9984C9.55229 16.9984 10 16.5507 10 15.9984C10 15.4462 9.55229 14.9984 9 14.9984C8.44772 14.9984 8 15.4462 8 15.9984C8 16.5507 8.44772 16.9984 9 16.9984ZM13 18C13 18.5523 12.5523 19 12 19C11.4477 19 11 18.5523 11 18C11 17.4477 11.4477 17 12 17C12.5523 17 13 17.4477 13 18ZM15 16C15.5523 16 16 15.5523 16 15C16 14.4477 15.5523 14 15 14C14.4477 14 14 14.4477 14 15C14 15.5523 14.4477 16 15 16Z" fill="#18181A"/>
</svg>
