<svg width="24" height="24" viewBox="0 0 24 24" fill="none" xmlns="http://www.w3.org/2000/svg">
<path fill-rule="evenodd" clip-rule="evenodd" d="M8.26884 2.99217C9.45176 2.50219 10.7196 2.25 12 2.25C13.2804 2.25 14.5482 2.50219 15.7312 2.99217C16.9141 3.48216 17.9889 4.20034 18.8943 5.10571C19.7997 6.01108 20.5178 7.08591 21.0078 8.26884C21.4978 9.45176 21.75 10.7196 21.75 12C21.75 14.5859 20.7228 17.0658 18.8943 18.8943C17.0658 20.7228 14.5859 21.75 12 21.75C9.41414 21.75 6.93419 20.7228 5.10571 18.8943C3.27723 17.0658 2.25 14.5859 2.25 12C2.25 10.7196 2.50219 9.45176 2.99217 8.26884C3.48216 7.08591 4.20034 6.01108 5.10571 5.10571C6.01108 4.20034 7.08591 3.48216 8.26884 2.99217ZM12 3.75C10.9166 3.75 9.8438 3.96339 8.84286 4.37799C7.84193 4.7926 6.93245 5.40029 6.16637 6.16637C5.40029 6.93245 4.79259 7.84193 4.37799 8.84286C3.96339 9.8438 3.75 10.9166 3.75 12C3.75 14.188 4.61919 16.2865 6.16637 17.8336C7.71354 19.3808 9.81196 20.25 12 20.25C14.188 20.25 16.2865 19.3808 17.8336 17.8336C19.3808 16.2865 20.25 14.188 20.25 12C20.25 10.9166 20.0366 9.8438 19.622 8.84286C19.2074 7.84193 18.5997 6.93245 17.8336 6.16637C17.0675 5.40029 16.1581 4.7926 15.1571 4.37799C14.1562 3.96339 13.0834 3.75 12 3.75ZM13.5303 8.46967C13.8232 8.76256 13.8232 9.23744 13.5303 9.53033L11.0607 12L13.5303 14.4697C13.8232 14.7626 13.8232 15.2374 13.5303 15.5303C13.2374 15.8232 12.7626 15.8232 12.4697 15.5303L9.46967 12.5303C9.17678 12.2374 9.17678 11.7626 9.46967 11.4697L12.4697 8.46967C12.7626 8.17678 13.2374 8.17678 13.5303 8.46967Z" fill="#18181A"/>
</svg>
