<svg width="24" height="24" viewBox="0 0 24 24" fill="none" xmlns="http://www.w3.org/2000/svg">
<path fill-rule="evenodd" clip-rule="evenodd" d="M5.10571 5.10571C6.93419 3.27723 9.41414 2.25 12 2.25C14.5859 2.25 17.0658 3.27723 18.8943 5.10571C20.7228 6.93419 21.75 9.41414 21.75 12C21.75 13.2804 21.4978 14.5482 21.0078 15.7312C20.5178 16.9141 19.7997 17.9889 18.8943 18.8943C17.9889 19.7997 16.9141 20.5178 15.7312 21.0078C14.5482 21.4978 13.2804 21.75 12 21.75C10.7196 21.75 9.45176 21.4978 8.26884 21.0078C7.08591 20.5178 6.01108 19.7997 5.10571 18.8943C4.20034 17.9889 3.48216 16.9141 2.99217 15.7312C2.50219 14.5482 2.25 13.2804 2.25 12C2.25 9.41414 3.27723 6.93419 5.10571 5.10571ZM12 3.75C9.81196 3.75 7.71354 4.61919 6.16637 6.16637C4.61919 7.71354 3.75 9.81196 3.75 12C3.75 13.0834 3.96339 14.1562 4.37799 15.1571C4.79259 16.1581 5.40029 17.0675 6.16637 17.8336C6.93245 18.5997 7.84193 19.2074 8.84286 19.622C9.8438 20.0366 10.9166 20.25 12 20.25C13.0834 20.25 14.1562 20.0366 15.1571 19.622C16.1581 19.2074 17.0675 18.5997 17.8336 17.8336C18.5997 17.0675 19.2074 16.1581 19.622 15.1571C20.0366 14.1562 20.25 13.0834 20.25 12C20.25 9.81196 19.3808 7.71354 17.8336 6.16637C16.2865 4.61919 14.188 3.75 12 3.75ZM10.4697 8.46967C10.7626 8.17678 11.2374 8.17678 11.5303 8.46967L14.5303 11.4697C14.8232 11.7626 14.8232 12.2374 14.5303 12.5303L11.5303 15.5303C11.2374 15.8232 10.7626 15.8232 10.4697 15.5303C10.1768 15.2374 10.1768 14.7626 10.4697 14.4697L12.9393 12L10.4697 9.53033C10.1768 9.23744 10.1768 8.76256 10.4697 8.46967Z" fill="#18181A"/>
</svg>
