<svg width="24" height="24" viewBox="0 0 24 24" fill="none" xmlns="http://www.w3.org/2000/svg">
<path fill-rule="evenodd" clip-rule="evenodd" d="M7.0342 2.83993C7.97448 2.45046 8.98226 2.25 10 2.25C11.0177 2.25 12.0255 2.45046 12.9658 2.83993C13.9061 3.22941 14.7604 3.80027 15.4801 4.51992C16.1997 5.23958 16.7706 6.09393 17.1601 7.0342C17.5495 7.97448 17.75 8.98226 17.75 10C17.75 11.0177 17.5495 12.0255 17.1601 12.9658C16.8666 13.6743 16.4702 14.334 15.9847 14.924L21.5303 20.4697C21.8232 20.7626 21.8232 21.2374 21.5303 21.5303C21.2374 21.8232 20.7626 21.8232 20.4697 21.5303L14.924 15.9847C14.334 16.4702 13.6743 16.8666 12.9658 17.1601C12.0255 17.5495 11.0177 17.75 10 17.75C8.98226 17.75 7.97448 17.5495 7.0342 17.1601C6.09393 16.7706 5.23958 16.1997 4.51992 15.4801C3.80027 14.7604 3.22941 13.9061 2.83993 12.9658C2.45046 12.0255 2.25 11.0177 2.25 10C2.25 8.98226 2.45046 7.97448 2.83993 7.0342C3.22941 6.09393 3.80027 5.23958 4.51992 4.51992C5.23958 3.80027 6.09393 3.22941 7.0342 2.83993ZM10 3.75C9.17924 3.75 8.36651 3.91166 7.60823 4.22575C6.84994 4.53984 6.16095 5.00022 5.58058 5.58058C5.00022 6.16095 4.53984 6.84994 4.22575 7.60823C3.91166 8.36651 3.75 9.17924 3.75 10C3.75 10.8208 3.91166 11.6335 4.22575 12.3918C4.53984 13.1501 5.00022 13.8391 5.58058 14.4194C6.16095 14.9998 6.84994 15.4602 7.60823 15.7742C8.36651 16.0883 9.17924 16.25 10 16.25C10.8208 16.25 11.6335 16.0883 12.3918 15.7742C13.1501 15.4602 13.8391 14.9998 14.4194 14.4194C14.9998 13.8391 15.4602 13.1501 15.7742 12.3918C16.0883 11.6335 16.25 10.8208 16.25 10C16.25 9.17924 16.0883 8.36651 15.7742 7.60823C15.4602 6.84994 14.9998 6.16095 14.4194 5.58058C13.8391 5.00022 13.1501 4.53984 12.3918 4.22575C11.6335 3.91166 10.8208 3.75 10 3.75Z" fill="#18181A"/>
<path fill-rule="evenodd" clip-rule="evenodd" d="M5.79289 9.29289C5.98043 9.10536 6.23478 9 6.5 9C6.76522 9 7.01957 9.10536 7.20711 9.29289C7.39464 9.48043 7.5 9.73478 7.5 10C7.5 10.2652 7.39464 10.5196 7.20711 10.7071C7.01957 10.8946 6.76522 11 6.5 11C6.23478 11 5.98043 10.8946 5.79289 10.7071C5.60536 10.5196 5.5 10.2652 5.5 10C5.5 9.73478 5.60536 9.48043 5.79289 9.29289ZM9.29289 9.29289C9.48043 9.10536 9.73478 9 10 9C10.2652 9 10.5196 9.10536 10.7071 9.29289C10.8946 9.48043 11 9.73478 11 10C11 10.2652 10.8946 10.5196 10.7071 10.7071C10.5196 10.8946 10.2652 11 10 11C9.73478 11 9.48043 10.8946 9.29289 10.7071C9.10536 10.5196 9 10.2652 9 10C9 9.73478 9.10536 9.48043 9.29289 9.29289ZM12.7929 9.29289C12.9804 9.10536 13.2348 9 13.5 9C13.7652 9 14.0196 9.10536 14.2071 9.29289C14.3946 9.48043 14.5 9.73478 14.5 10C14.5 10.2652 14.3946 10.5196 14.2071 10.7071C14.0196 10.8946 13.7652 11 13.5 11C13.2348 11 12.9804 10.8946 12.7929 10.7071C12.6054 10.5196 12.5 10.2652 12.5 10C12.5 9.73478 12.6054 9.48043 12.7929 9.29289Z" fill="#18181A"/>
</svg>
