<svg width="24" height="24" viewBox="0 0 24 24" fill="none" xmlns="http://www.w3.org/2000/svg">
<path fill-rule="evenodd" clip-rule="evenodd" d="M12.0555 4.05546C12.5712 3.53973 13.2707 3.25 14 3.25C14.7293 3.25 15.4288 3.53973 15.9445 4.05546C16.2793 4.39024 16.5189 4.80245 16.6458 5.25H20C20.4142 5.25 20.75 5.58579 20.75 6C20.75 6.41421 20.4142 6.75 20 6.75H16.6458C16.5189 7.19755 16.2793 7.60976 15.9445 7.94454C15.4288 8.46027 14.7293 8.75 14 8.75C13.2707 8.75 12.5712 8.46027 12.0555 7.94454C11.7207 7.60976 11.4811 7.19755 11.3542 6.75H4C3.58579 6.75 3.25 6.41421 3.25 6C3.25 5.58579 3.58579 5.25 4 5.25H11.3542C11.4811 4.80245 11.7207 4.39024 12.0555 4.05546ZM14 4.75C13.6685 4.75 13.3505 4.8817 13.1161 5.11612C12.8817 5.35054 12.75 5.66848 12.75 6C12.75 6.33152 12.8817 6.64946 13.1161 6.88388C13.3505 7.1183 13.6685 7.25 14 7.25C14.3315 7.25 14.6495 7.1183 14.8839 6.88388C15.1183 6.64946 15.25 6.33152 15.25 6C15.25 5.66848 15.1183 5.35054 14.8839 5.11612C14.6495 4.8817 14.3315 4.75 14 4.75ZM6.05546 10.0555C6.57118 9.53973 7.27065 9.25 8 9.25C8.72935 9.25 9.42882 9.53973 9.94454 10.0555C10.2793 10.3902 10.5189 10.8025 10.6458 11.25H20C20.4142 11.25 20.75 11.5858 20.75 12C20.75 12.4142 20.4142 12.75 20 12.75H10.6458C10.5189 13.1975 10.2793 13.6098 9.94454 13.9445C9.42882 14.4603 8.72935 14.75 8 14.75C7.27065 14.75 6.57118 14.4603 6.05546 13.9445C5.72067 13.6098 5.48113 13.1975 5.35424 12.75H4C3.58579 12.75 3.25 12.4142 3.25 12C3.25 11.5858 3.58579 11.25 4 11.25H5.35424C5.48113 10.8025 5.72067 10.3902 6.05546 10.0555ZM8 10.75C7.66848 10.75 7.35054 10.8817 7.11612 11.1161C6.8817 11.3505 6.75 11.6685 6.75 12C6.75 12.3315 6.8817 12.6495 7.11612 12.8839C7.35054 13.1183 7.66848 13.25 8 13.25C8.33152 13.25 8.64946 13.1183 8.88388 12.8839C9.1183 12.6495 9.25 12.3315 9.25 12C9.25 11.6685 9.1183 11.3505 8.88388 11.1161C8.64946 10.8817 8.33152 10.75 8 10.75ZM15.0555 16.0555C15.5712 15.5397 16.2707 15.25 17 15.25C17.7293 15.25 18.4288 15.5397 18.9445 16.0555C19.2793 16.3902 19.5189 16.8025 19.6458 17.25H20C20.4142 17.25 20.75 17.5858 20.75 18C20.75 18.4142 20.4142 18.75 20 18.75H19.6458C19.5189 19.1975 19.2793 19.6098 18.9445 19.9445C18.4288 20.4603 17.7293 20.75 17 20.75C16.2707 20.75 15.5712 20.4603 15.0555 19.9445C14.7207 19.6098 14.4811 19.1975 14.3542 18.75H4C3.58579 18.75 3.25 18.4142 3.25 18C3.25 17.5858 3.58579 17.25 4 17.25H14.3542C14.4811 16.8025 14.7207 16.3902 15.0555 16.0555ZM17 16.75C16.6685 16.75 16.3505 16.8817 16.1161 17.1161C15.8817 17.3505 15.75 17.6685 15.75 18C15.75 18.3315 15.8817 18.6495 16.1161 18.8839C16.3505 19.1183 16.6685 19.25 17 19.25C17.3315 19.25 17.6495 19.1183 17.8839 18.8839C18.1183 18.6495 18.25 18.3315 18.25 18C18.25 17.6685 18.1183 17.3505 17.8839 17.1161C17.6495 16.8817 17.3315 16.75 17 16.75Z" fill="#18181A"/>
</svg>
