<svg width="24" height="24" viewBox="0 0 24 24" fill="none" xmlns="http://www.w3.org/2000/svg">
<path fill-rule="evenodd" clip-rule="evenodd" d="M15.3483 3.34835C16.0516 2.64509 17.0054 2.25 18 2.25C18.9946 2.25 19.9484 2.64509 20.6517 3.34835C21.3549 4.05161 21.75 5.00544 21.75 6C21.75 6.99456 21.3549 7.94839 20.6517 8.65165C19.9484 9.35491 18.9946 9.75 18 9.75C17.0054 9.75 16.0516 9.35491 15.3483 8.65165C15.2325 8.53581 15.125 8.41316 15.0263 8.28466L9.63129 11.0639C9.70948 11.3672 9.75 11.6815 9.75 12C9.75 12.3185 9.70948 12.6328 9.6313 12.9361L15.0263 15.7153C15.125 15.5868 15.2325 15.4642 15.3483 15.3483C16.0516 14.6451 17.0054 14.25 18 14.25C18.9946 14.25 19.9484 14.6451 20.6517 15.3483C21.3549 16.0516 21.75 17.0054 21.75 18C21.75 18.9946 21.3549 19.9484 20.6517 20.6517C19.9484 21.3549 18.9946 21.75 18 21.75C17.0054 21.75 16.0516 21.3549 15.3483 20.6517C14.6451 19.9484 14.25 18.9946 14.25 18C14.25 17.6815 14.2905 17.3672 14.3687 17.0639L8.97371 14.2847C8.87498 14.4132 8.7675 14.5358 8.65165 14.6517C7.94839 15.3549 6.99456 15.75 6 15.75C5.00544 15.75 4.05161 15.3549 3.34835 14.6517C2.64509 13.9484 2.25 12.9946 2.25 12C2.25 11.0054 2.64509 10.0516 3.34835 9.34835C4.05161 8.64509 5.00544 8.25 6 8.25C6.99456 8.25 7.94839 8.64509 8.65165 9.34835C8.76749 9.46419 8.87497 9.58683 8.9737 9.71532L14.3687 6.93608C14.2905 6.63282 14.25 6.3185 14.25 6C14.25 5.00544 14.6451 4.05161 15.3483 3.34835ZM16.0004 7.03147C15.9906 7.00618 15.9794 6.98116 15.9667 6.95652C15.9604 6.94421 15.9538 6.93215 15.9468 6.92034C15.8183 6.63358 15.75 6.32031 15.75 6C15.75 5.40326 15.9871 4.83097 16.409 4.40901C16.831 3.98705 17.4033 3.75 18 3.75C18.5967 3.75 19.169 3.98705 19.591 4.40901C20.0129 4.83097 20.25 5.40326 20.25 6C20.25 6.59674 20.0129 7.16903 19.591 7.59099C19.169 8.01295 18.5967 8.25 18 8.25C17.4033 8.25 16.831 8.01295 16.409 7.59099C16.2432 7.42516 16.1059 7.2361 16.0004 7.03147ZM7.99969 10.9686C7.89413 10.7639 7.75685 10.5749 7.59099 10.409C7.16903 9.98705 6.59674 9.75 6 9.75C5.40326 9.75 4.83097 9.98705 4.40901 10.409C3.98705 10.831 3.75 11.4033 3.75 12C3.75 12.5967 3.98705 13.169 4.40901 13.591C4.83097 14.0129 5.40326 14.25 6 14.25C6.59674 14.25 7.16903 14.0129 7.59099 13.591C7.75683 13.4252 7.8941 13.2361 7.99965 13.0315C8.00938 13.0062 8.02058 12.9812 8.03327 12.9565C8.03961 12.9442 8.04624 12.9322 8.05316 12.9203C8.1817 12.6336 8.25 12.3203 8.25 12C8.25 11.6796 8.18168 11.3663 8.05311 11.0795C8.04621 11.0678 8.0396 11.0557 8.03327 11.0435C8.02059 11.0188 8.00941 10.9939 7.99969 10.9686ZM15.9469 17.0796C15.8183 17.3663 15.75 17.6797 15.75 18C15.75 18.5967 15.9871 19.169 16.409 19.591C16.831 20.0129 17.4033 20.25 18 20.25C18.5967 20.25 19.169 20.0129 19.591 19.591C20.0129 19.169 20.25 18.5967 20.25 18C20.25 17.4033 20.0129 16.831 19.591 16.409C19.169 15.9871 18.5967 15.75 18 15.75C17.4033 15.75 16.831 15.9871 16.409 16.409C16.2432 16.5749 16.1059 16.7639 16.0003 16.9686C15.9906 16.9939 15.9794 17.0188 15.9667 17.0435C15.9604 17.0557 15.9538 17.0678 15.9469 17.0796Z" fill="#18181A"/>
</svg>
