<svg width="24" height="24" viewBox="0 0 24 24" fill="none" xmlns="http://www.w3.org/2000/svg">
<path fill-rule="evenodd" clip-rule="evenodd" d="M11.503 2.43828C11.7868 2.18724 12.2132 2.18724 12.497 2.43828C14.6868 4.3757 17.5449 5.38444 20.4657 5.25078C20.8108 5.23499 21.1221 5.45702 21.2195 5.78851C21.8304 7.86664 21.9017 10.0661 21.4267 12.1794C21.3359 12.5836 20.9347 12.8376 20.5305 12.7468C20.1264 12.6559 19.8724 12.2547 19.9632 11.8506C20.3405 10.1716 20.3271 8.43107 19.9273 6.76253C17.0463 6.75718 14.2514 5.77568 12 3.97935C9.74853 5.77568 6.9537 6.75719 4.07263 6.76253C3.76627 8.04085 3.68599 9.36448 3.83692 10.6733C4.00967 12.1711 4.48174 13.619 5.2251 14.9308C5.96846 16.2426 6.96793 17.3916 8.16411 18.3095C9.30872 19.1878 10.6111 19.8374 12 20.2234C12.9396 19.9623 13.8334 19.5819 14.6613 19.0976C15.0189 18.8885 15.4782 19.0088 15.6874 19.3663C15.8965 19.7239 15.7762 20.1833 15.4187 20.3924C14.4177 20.9779 13.3317 21.4295 12.1882 21.726C12.0648 21.758 11.9352 21.758 11.8117 21.726C10.1576 21.2969 8.60663 20.5398 7.25095 19.4995C5.89527 18.4592 4.76254 17.157 3.92007 15.6703C3.07759 14.1836 2.54258 12.5427 2.3468 10.8451C2.15103 9.14753 2.29849 7.42793 2.78043 5.78848C2.87787 5.45701 3.18914 5.23499 3.53427 5.25078C6.45508 5.38444 9.31318 4.3757 11.503 2.43828Z" fill="#18181A"/>
<path fill-rule="evenodd" clip-rule="evenodd" d="M19 15C19.5523 15 20 15.4477 20 16V19C20 19.5523 19.5523 20 19 20C18.4477 20 18 19.5523 18 19V16C18 15.4477 18.4477 15 19 15ZM19 21C19.5523 21 20 21.4477 20 22V22.01C20 22.5623 19.5523 23.01 19 23.01C18.4477 23.01 18 22.5623 18 22.01V22C18 21.4477 18.4477 21 19 21Z" fill="#18181A"/>
</svg>
