<svg width="24" height="24" viewBox="0 0 24 24" fill="none" xmlns="http://www.w3.org/2000/svg">
<path fill-rule="evenodd" clip-rule="evenodd" d="M11.503 2.43828C11.7868 2.18724 12.2132 2.18724 12.497 2.43828C14.6868 4.3757 17.5449 5.38444 20.4657 5.25078C20.8108 5.23499 21.1221 5.45698 21.2195 5.78842C21.5862 7.03532 21.7584 8.32525 21.7354 9.61341C21.728 10.0276 21.3862 10.3573 20.9721 10.3499C20.5579 10.3425 20.2282 10.0007 20.2356 9.58659C20.2526 8.63867 20.1497 7.68968 19.9274 6.76253C17.0463 6.7572 14.2515 5.77569 12 3.97935C9.74854 5.77568 6.95371 6.75719 4.07264 6.76253C3.76629 8.04085 3.686 9.36448 3.83694 10.6733C4.00968 12.1711 4.48176 13.619 5.22511 14.9308C5.96847 16.2426 6.96794 17.3916 8.16413 18.3095C9.30857 19.1877 10.6107 19.8372 11.9994 20.2233C12.0754 20.2021 12.1512 20.1802 12.2268 20.1575C12.6236 20.0387 13.0416 20.264 13.1605 20.6608C13.2793 21.0576 13.054 21.4756 12.6572 21.5945C12.5022 21.6409 12.3464 21.6846 12.1899 21.7256C12.066 21.758 11.9357 21.7582 11.8117 21.726C10.1576 21.2969 8.60665 20.5398 7.25097 19.4995C5.89528 18.4592 4.76255 17.157 3.92008 15.6703C3.07761 14.1836 2.54259 12.5427 2.34682 10.8451C2.15104 9.14754 2.29851 7.42793 2.78045 5.78848C2.87789 5.45701 3.18916 5.23499 3.53429 5.25078C6.45509 5.38444 9.3132 4.3757 11.503 2.43828Z" fill="#18181A"/>
<path fill-rule="evenodd" clip-rule="evenodd" d="M17.8929 12.4929C18.2834 12.1024 18.9166 12.1024 19.3071 12.4929L23.5071 16.6929C23.8976 17.0834 23.8976 17.7166 23.5071 18.1071C23.1166 18.4976 22.4834 18.4976 22.0929 18.1071L19.6 15.6142V21.6C19.6 22.1523 19.1523 22.6 18.6 22.6C18.0477 22.6 17.6 22.1523 17.6 21.6V15.6142L15.1071 18.1071C14.7166 18.4976 14.0834 18.4976 13.6929 18.1071C13.3024 17.7166 13.3024 17.0834 13.6929 16.6929L17.8929 12.4929Z" fill="#18181A"/>
</svg>
