<svg width="24" height="24" viewBox="0 0 24 24" fill="none" xmlns="http://www.w3.org/2000/svg">
<path fill-rule="evenodd" clip-rule="evenodd" d="M11.503 2.43828C11.7868 2.18724 12.2132 2.18724 12.497 2.43828C14.6868 4.3757 17.5449 5.38444 20.4657 5.25078C20.8108 5.23499 21.1221 5.45701 21.2196 5.78848C21.7015 7.42793 21.849 9.14753 21.6532 10.8451C21.4574 12.5427 20.9224 14.1836 20.0799 15.6703C19.2375 17.157 18.1047 18.4592 16.749 19.4995C15.3934 20.5398 13.8424 21.2969 12.1883 21.726C12.0648 21.758 11.9352 21.758 11.8117 21.726C10.1576 21.2969 8.60665 20.5398 7.25096 19.4995C5.89528 18.4592 4.76255 17.157 3.92008 15.6703C3.07761 14.1836 2.54259 12.5427 2.34682 10.8451C2.15104 9.14753 2.29851 7.42793 2.78045 5.78848C2.87789 5.45701 3.18916 5.23499 3.53429 5.25078C6.45509 5.38444 9.31319 4.3757 11.503 2.43828ZM4.07264 6.76253C3.76629 8.04085 3.686 9.36448 3.83694 10.6733C4.00968 12.1711 4.48176 13.619 5.22511 14.9308C5.96847 16.2426 6.96794 17.3916 8.16413 18.3095C9.30873 19.1878 10.6111 19.8374 12 20.2234C13.3889 19.8374 14.6913 19.1878 15.8359 18.3095C17.0321 17.3916 18.0315 16.2426 18.7749 14.9308C19.5182 13.619 19.9903 12.1711 20.1631 10.6733C20.314 9.36447 20.2337 8.04085 19.9274 6.76253C17.0463 6.75719 14.2515 5.77568 12 3.97935C9.74854 5.77568 6.95371 6.75719 4.07264 6.76253Z" fill="#18181A"/>
</svg>
