<svg width="24" height="24" viewBox="0 0 24 24" fill="none" xmlns="http://www.w3.org/2000/svg">
<path fill-rule="evenodd" clip-rule="evenodd" d="M11.503 2.43828C11.7868 2.18724 12.2132 2.18724 12.497 2.43828C14.6868 4.3757 17.5449 5.38444 20.4657 5.25078C20.8108 5.23499 21.1221 5.45698 21.2195 5.78842C21.5862 7.03532 21.7584 8.32525 21.7354 9.61341C21.728 10.0276 21.3862 10.3573 20.9721 10.3499C20.5579 10.3425 20.2282 10.0007 20.2356 9.58659C20.2526 8.63867 20.1497 7.68968 19.9274 6.76253C17.0463 6.7572 14.2515 5.77569 12 3.97935C9.74854 5.77568 6.95371 6.75719 4.07264 6.76253C3.76629 8.04085 3.686 9.36448 3.83694 10.6733C4.00968 12.1711 4.48175 13.619 5.22511 14.9308C5.96847 16.2426 6.96794 17.3916 8.16413 18.3095C9.30857 19.1877 10.6107 19.8372 11.9994 20.2233C12.0754 20.2021 12.1512 20.1802 12.2268 20.1575C12.6236 20.0387 13.0416 20.264 13.1605 20.6608C13.2793 21.0576 13.054 21.4756 12.6572 21.5945C12.5022 21.6409 12.3464 21.6846 12.1899 21.7256C12.066 21.758 11.9357 21.7582 11.8117 21.726C10.1576 21.2969 8.60664 20.5398 7.25096 19.4995C5.89528 18.4592 4.76255 17.157 3.92008 15.6703C3.07761 14.1836 2.54259 12.5427 2.34681 10.8451C2.15104 9.14754 2.2985 7.42793 2.78044 5.78848C2.87788 5.45701 3.18915 5.23499 3.53428 5.25078C6.45509 5.38444 9.31319 4.3757 11.503 2.43828Z" fill="#18181A"/>
<path fill-rule="evenodd" clip-rule="evenodd" d="M17.8929 22.3071C18.2834 22.6976 18.9166 22.6976 19.3071 22.3071L23.5071 18.1071C23.8976 17.7166 23.8976 17.0834 23.5071 16.6929C23.1166 16.3024 22.4834 16.3024 22.0929 16.6929L19.6 19.1858V13.2C19.6 12.6477 19.1523 12.2 18.6 12.2C18.0477 12.2 17.6 12.6477 17.6 13.2V19.1858L15.1071 16.6929C14.7166 16.3024 14.0834 16.3024 13.6929 16.6929C13.3024 17.0834 13.3024 17.7166 13.6929 18.1071L17.8929 22.3071Z" fill="#18181A"/>
</svg>
