<svg width="24" height="24" viewBox="0 0 24 24" fill="none" xmlns="http://www.w3.org/2000/svg">
<path fill-rule="evenodd" clip-rule="evenodd" d="M11.503 2.43828C11.7868 2.18724 12.2132 2.18724 12.497 2.43828C14.6868 4.3757 17.5449 5.38444 20.4657 5.25078C20.8109 5.23499 21.1221 5.45703 21.2196 5.78852C21.9727 8.35096 21.902 11.0852 21.0177 13.6053C20.8805 13.9962 20.4525 14.2018 20.0617 14.0647C19.6708 13.9275 19.4652 13.4995 19.6023 13.1087C20.3195 11.0647 20.4302 8.86123 19.9273 6.76253C17.0463 6.75718 14.2515 5.77567 12 3.97935C9.74854 5.77568 6.95371 6.75719 4.07264 6.76253C3.76629 8.04085 3.686 9.36448 3.83694 10.6733C4.00968 12.1711 4.48176 13.619 5.22511 14.9308C5.96847 16.2426 6.96794 17.3916 8.16413 18.3095C9.30865 19.1877 10.6109 19.8373 11.9997 20.2233C12.3347 20.13 12.6637 20.0222 12.9856 19.8999C13.3729 19.7528 13.806 19.9474 13.9531 20.3346C14.1002 20.7219 13.9056 21.155 13.5184 21.3021C13.0845 21.4669 12.6407 21.6081 12.1891 21.7258C12.0654 21.758 11.9355 21.7581 11.8117 21.726C10.1576 21.2969 8.60665 20.5398 7.25096 19.4995C5.89528 18.4592 4.76255 17.157 3.92008 15.6703C3.07761 14.1836 2.54259 12.5427 2.34682 10.8451C2.15104 9.14753 2.29851 7.42793 2.78045 5.78848C2.87789 5.45701 3.18916 5.23499 3.53429 5.25078C6.45509 5.38444 9.31319 4.3757 11.503 2.43828Z" fill="#18181A"/>
<path fill-rule="evenodd" clip-rule="evenodd" d="M16.2929 16.2929C16.6834 15.9024 17.3166 15.9024 17.7071 16.2929L19.5 18.0858L21.2929 16.2929C21.6834 15.9024 22.3166 15.9024 22.7071 16.2929C23.0976 16.6834 23.0976 17.3166 22.7071 17.7071L20.9142 19.5L22.7071 21.2929C23.0976 21.6834 23.0976 22.3166 22.7071 22.7071C22.3166 23.0976 21.6834 23.0976 21.2929 22.7071L19.5 20.9142L17.7071 22.7071C17.3166 23.0976 16.6834 23.0976 16.2929 22.7071C15.9024 22.3166 15.9024 21.6834 16.2929 21.2929L18.0858 19.5L16.2929 17.7071C15.9024 17.3166 15.9024 16.6834 16.2929 16.2929Z" fill="#18181A"/>
</svg>
