<svg width="24" height="24" viewBox="0 0 24 24" fill="none" xmlns="http://www.w3.org/2000/svg">
<path fill-rule="evenodd" clip-rule="evenodd" d="M12 3.75C11.4033 3.75 10.831 3.98705 10.409 4.40901C9.98705 4.83097 9.75 5.40326 9.75 6V7.25H14.25V6C14.25 5.40326 14.0129 4.83097 13.591 4.40901C13.169 3.98705 12.5967 3.75 12 3.75ZM15.75 7.25V6C15.75 5.00544 15.3549 4.05161 14.6517 3.34835C13.9484 2.64509 12.9946 2.25 12 2.25C11.0054 2.25 10.0516 2.64509 9.34835 3.34835C8.64509 4.05161 8.25 5.00544 8.25 6V7.25H6.3311M8.25 8.75H6.33101C6.15078 8.74998 5.97258 8.78893 5.80882 8.86419C5.64505 8.93944 5.4995 9.04922 5.38213 9.186C5.26477 9.32278 5.17837 9.48332 5.12886 9.65662C5.07936 9.82987 5.0679 10.0118 5.09527 10.1899C5.09527 10.1898 5.09528 10.1899 5.09527 10.1899L6.35027 18.3419C6.43197 18.8731 6.70113 19.3576 7.10901 19.7076C7.51689 20.0576 8.03657 20.25 8.57401 20.25C8.57399 20.25 8.57402 20.25 8.57401 20.25H15.426C15.9636 20.2502 16.4837 20.0578 16.8917 19.7078C17.2998 19.3579 17.569 18.8733 17.6507 18.342L18.9057 10.19C18.9057 10.19 18.9057 10.19 18.9057 10.19C18.9331 10.0119 18.9217 9.82987 18.8722 9.65662C18.8226 9.48332 18.7362 9.32278 18.6189 9.186C18.5015 9.04922 18.356 8.93944 18.1922 8.86419C18.0284 8.78893 17.8503 8.74998 17.6701 8.75H15.75V11C15.75 11.4142 15.4142 11.75 15 11.75C14.5858 11.75 14.25 11.4142 14.25 11V8.75H9.75V11C9.75 11.4142 9.41422 11.75 9 11.75C8.58579 11.75 8.25 11.4142 8.25 11V8.75ZM15.75 7.25H17.6699C17.6699 7.25 17.6699 7.25 17.6699 7.25C18.0664 7.24997 18.4583 7.33566 18.8185 7.50121C19.1788 7.66678 19.499 7.90829 19.7572 8.2092C20.0154 8.51012 20.2055 8.86331 20.3144 9.24455C20.4234 9.62581 20.4486 10.0261 20.3883 10.418L19.1333 18.57C19.1333 18.57 19.1333 18.57 19.1333 18.57C18.9971 19.4555 18.5483 20.2631 17.8683 20.8464C17.1883 21.4297 16.3219 21.7502 15.426 21.75C15.4259 21.75 15.4261 21.75 15.426 21.75H8.57401C7.67826 21.75 6.81207 21.4293 6.13226 20.846C5.45247 20.2627 5.00391 19.4554 4.86774 18.5701C4.86773 18.5701 4.86775 18.5702 4.86774 18.5701L3.61274 10.4181C3.55247 10.0262 3.57764 9.62581 3.68657 9.24455C3.79549 8.8633 3.98557 8.51012 4.24377 8.2092C4.50197 7.90829 4.8222 7.66678 5.18248 7.50121C5.54274 7.33566 5.93462 7.24997 6.3311 7.25" fill="#18181A"/>
</svg>
