<svg width="24" height="24" viewBox="0 0 24 24" fill="none" xmlns="http://www.w3.org/2000/svg">
<path fill-rule="evenodd" clip-rule="evenodd" d="M3.24998 6C3.24998 5.58579 3.58577 5.25 3.99998 5.25H11C11.4142 5.25 11.75 5.58579 11.75 6C11.75 6.41421 11.4142 6.75 11 6.75H3.99998C3.58577 6.75 3.24998 6.41421 3.24998 6ZM17.4697 5.46967C17.7625 5.17678 18.2374 5.17678 18.5303 5.46967L21.5303 8.46967C21.8232 8.76256 21.8232 9.23744 21.5303 9.53033C21.2374 9.82322 20.7625 9.82322 20.4697 9.53033L18.75 7.81066V18C18.75 18.4142 18.4142 18.75 18 18.75C17.5858 18.75 17.25 18.4142 17.25 18V7.81066L15.5303 9.53033C15.2374 9.82322 14.7625 9.82322 14.4697 9.53033C14.1768 9.23744 14.1768 8.76256 14.4697 8.46967L17.4697 5.46967ZM3.24998 12C3.24998 11.5858 3.58577 11.25 3.99998 11.25H11C11.4142 11.25 11.75 11.5858 11.75 12C11.75 12.4142 11.4142 12.75 11 12.75H3.99998C3.58577 12.75 3.24998 12.4142 3.24998 12ZM3.24998 18C3.24998 17.5858 3.58577 17.25 3.99998 17.25H13C13.4142 17.25 13.75 17.5858 13.75 18C13.75 18.4142 13.4142 18.75 13 18.75H3.99998C3.58577 18.75 3.24998 18.4142 3.24998 18Z" fill="#18181A"/>
</svg>
