<svg width="24" height="24" viewBox="0 0 24 24" fill="none" xmlns="http://www.w3.org/2000/svg">
<path fill-rule="evenodd" clip-rule="evenodd" d="M12.559 5.11802C12.2071 4.94206 11.7929 4.94206 11.441 5.11802L5.67705 7.99999L11.441 10.882C11.7929 11.0579 12.2071 11.0579 12.559 10.882L18.3229 7.99999L12.559 5.11802ZM10.7702 3.77638C11.5444 3.38928 12.4556 3.38928 13.2298 3.77638L19.8882 7.10556C20.6252 7.47408 20.6252 8.52589 19.8882 8.89441L13.2298 12.2236C12.4556 12.6107 11.5444 12.6107 10.7702 12.2236L4.1118 8.89441C3.37475 8.52589 3.37475 7.47408 4.1118 7.10556L10.7702 3.77638ZM3.32918 11.6646C3.51442 11.2941 3.96492 11.1439 4.33541 11.3292L11.441 14.882C11.7929 15.0579 12.2071 15.0579 12.559 14.882L19.6646 11.3292C20.0351 11.1439 20.4856 11.2941 20.6708 11.6646C20.8561 12.0351 20.7059 12.4856 20.3354 12.6708L13.2298 16.2236C12.4556 16.6107 11.5444 16.6107 10.7702 16.2236L3.66459 12.6708C3.2941 12.4856 3.14393 12.0351 3.32918 11.6646ZM3.32918 15.6646C3.51442 15.2941 3.96492 15.1439 4.33541 15.3292L11.441 18.882C11.7929 19.0579 12.2071 19.0579 12.559 18.882L19.6646 15.3292C20.0351 15.1439 20.4856 15.2941 20.6708 15.6646C20.8561 16.0351 20.7059 16.4856 20.3354 16.6708L13.2298 20.2236C12.4556 20.6107 11.5444 20.6107 10.7702 20.2236L3.66459 16.6708C3.2941 16.4856 3.14393 16.0351 3.32918 15.6646Z" fill="#18181A"/>
</svg>
