<svg width="24" height="24" viewBox="0 0 24 24" fill="none" xmlns="http://www.w3.org/2000/svg">
<path fill-rule="evenodd" clip-rule="evenodd" d="M12 3.25C12.4142 3.25 12.75 3.58579 12.75 4V9.18934L14.4697 7.46967C14.7626 7.17678 15.2374 7.17678 15.5303 7.46967C15.8232 7.76256 15.8232 8.23744 15.5303 8.53033L12.5303 11.5303C12.2374 11.8232 11.7626 11.8232 11.4697 11.5303L8.46967 8.53033C8.17677 8.23744 8.17677 7.76256 8.46967 7.46967C8.76256 7.17678 9.23743 7.17678 9.53033 7.46967L11.25 9.18934V4C11.25 3.58579 11.5858 3.25 12 3.25ZM6.67082 9.66459C6.85606 10.0351 6.70589 10.4856 6.33541 10.6708L5.67705 11L11.441 13.882C11.7929 14.0579 12.2071 14.0579 12.559 13.882L18.3229 11L17.6646 10.6708C17.2941 10.4856 17.1439 10.0351 17.3292 9.66459C17.5144 9.29411 17.9649 9.14394 18.3354 9.32918L20.3354 10.3292C20.5895 10.4562 20.75 10.7159 20.75 11C20.75 11.2841 20.5895 11.5438 20.3354 11.6708L13.2298 15.2236C12.4556 15.6107 11.5444 15.6107 10.7702 15.2236L3.66459 11.6708C3.4105 11.5438 3.25 11.2841 3.25 11C3.25 10.7159 3.4105 10.4562 3.66459 10.3292L5.66459 9.32918C6.03507 9.14394 6.48557 9.29411 6.67082 9.66459ZM3.32918 14.6646C3.51442 14.2941 3.96492 14.1439 4.33541 14.3292L11.441 17.882C11.7929 18.0579 12.2071 18.0579 12.559 17.882L19.6646 14.3292C20.0351 14.1439 20.4856 14.2941 20.6708 14.6646C20.8561 15.0351 20.7059 15.4856 20.3354 15.6708L13.2298 19.2236C12.4556 19.6107 11.5444 19.6107 10.7702 19.2236L3.66459 15.6708C3.2941 15.4856 3.14393 15.0351 3.32918 14.6646Z" fill="#18181A"/>
</svg>
