<svg width="24" height="24" viewBox="0 0 24 24" fill="none" xmlns="http://www.w3.org/2000/svg">
<path fill-rule="evenodd" clip-rule="evenodd" d="M11.993 1.25201C12.2785 1.25201 12.5392 1.41409 12.6656 1.67009L15.577 7.56935L22.0866 8.51277C22.3693 8.55374 22.6041 8.75171 22.6923 9.02337C22.7806 9.29503 22.7068 9.59322 22.5022 9.79244L17.7849 14.3842L18.8972 20.8682C18.9455 21.1497 18.8297 21.4342 18.5986 21.602C18.3674 21.7698 18.0611 21.7917 17.8084 21.6585L11.9996 18.5976L6.17704 21.6589C5.92435 21.7917 5.61814 21.7696 5.38718 21.6018C5.15621 21.434 5.04055 21.1496 5.08882 20.8682L6.20109 14.3842L1.48388 9.79244C1.27921 9.59322 1.20547 9.29503 1.29369 9.02337C1.38191 8.75171 1.61677 8.55374 1.89945 8.51277L8.40905 7.56935L11.3205 1.67009C11.4468 1.41409 11.7075 1.25201 11.993 1.25201ZM11.993 3.6967L9.57957 8.58694C9.47028 8.80838 9.25898 8.96184 9.01459 8.99726L3.62057 9.779L7.53015 13.5846C7.70717 13.7569 7.78799 14.0053 7.74622 14.2488L6.82417 19.6239L11.651 17.0862C11.8697 16.9712 12.131 16.9713 12.3497 17.0865L17.1616 19.6222L16.2398 14.2488C16.198 14.0053 16.2789 13.7569 16.4559 13.5846L20.3655 9.779L14.9714 8.99726C14.7271 8.96184 14.5158 8.80838 14.4065 8.58694L11.993 3.6967Z" fill="#18181A"/>
</svg>
