<svg width="24" height="24" viewBox="0 0 24 24" fill="none" xmlns="http://www.w3.org/2000/svg">
<path fill-rule="evenodd" clip-rule="evenodd" d="M19 19.25C19.0663 19.25 19.1299 19.2237 19.1768 19.1768C19.2237 19.1299 19.25 19.0663 19.25 19L19.25 18C19.25 17.5858 19.5858 17.25 20 17.25C20.4142 17.25 20.75 17.5858 20.75 18L20.75 19C20.75 19.4641 20.5656 19.9092 20.2374 20.2374C19.9092 20.5656 19.4641 20.75 19 20.75L18 20.75C17.5858 20.75 17.25 20.4142 17.25 20C17.25 19.5858 17.5858 19.25 18 19.25L19 19.25ZM13.75 20C13.75 20.4142 13.4142 20.75 13 20.75L11 20.75C10.5858 20.75 10.25 20.4142 10.25 20C10.25 19.5858 10.5858 19.25 11 19.25L13 19.25C13.4142 19.25 13.75 19.5858 13.75 20ZM6.75 20C6.75 20.4142 6.41421 20.75 6 20.75L5 20.75C4.53587 20.75 4.09075 20.5656 3.76256 20.2374C3.43437 19.9092 3.25 19.4641 3.25 19L3.25 18C3.25 17.5858 3.58579 17.25 4 17.25C4.41421 17.25 4.75 17.5858 4.75 18L4.75 19C4.75 19.0663 4.77634 19.1299 4.82322 19.1768C4.8701 19.2237 4.93369 19.25 5 19.25L6 19.25C6.41421 19.25 6.75 19.5858 6.75 20ZM20 13.75C19.5858 13.75 19.25 13.4142 19.25 13L19.25 12.75L13 12.75C12.5359 12.75 12.0908 12.5656 11.7626 12.2374C11.4344 11.9092 11.25 11.4641 11.25 11L11.25 4.75L11 4.75C10.5858 4.75 10.25 4.41421 10.25 4C10.25 3.58578 10.5858 3.25 11 3.25L19 3.25C19.4641 3.25 19.9092 3.43437 20.2374 3.76256C20.5656 4.09075 20.75 4.53587 20.75 5L20.75 13C20.75 13.4142 20.4142 13.75 20 13.75ZM19.25 11.25L19.25 5C19.25 4.9337 19.2237 4.87011 19.1768 4.82322C19.1299 4.77634 19.0663 4.75 19 4.75L12.75 4.75L12.75 11C12.75 11.0663 12.7763 11.1299 12.8232 11.1768C12.8701 11.2237 12.9337 11.25 13 11.25L19.25 11.25ZM4 13.75C3.58579 13.75 3.25 13.4142 3.25 13L3.25 11C3.25 10.5858 3.58579 10.25 4 10.25C4.41421 10.25 4.75 10.5858 4.75 11L4.75 13C4.75 13.4142 4.41421 13.75 4 13.75ZM4 6.75C3.58579 6.75 3.25 6.41421 3.25 6L3.25 5C3.25 4.53587 3.43437 4.09075 3.76256 3.76256C4.09075 3.43437 4.53587 3.25 5 3.25L6 3.25C6.41421 3.25 6.75 3.58578 6.75 4C6.75 4.41421 6.41421 4.75 6 4.75L5 4.75C4.93369 4.75 4.8701 4.77634 4.82322 4.82322C4.77634 4.8701 4.75 4.93369 4.75 5L4.75 6C4.75 6.41421 4.41421 6.75 4 6.75Z" fill="#18181A"/>
</svg>
