<svg width="24" height="24" viewBox="0 0 24 24" fill="none" xmlns="http://www.w3.org/2000/svg">
<path d="M7 9.99998H10V6.99998L6.5 3.49998C7.61963 2.96525 8.8775 2.79078 10.1004 3.0006C11.3233 3.21041 12.4511 3.79419 13.3284 4.67155C14.2058 5.5489 14.7896 6.67668 14.9994 7.89958C15.2092 9.12248 15.0347 10.3803 14.5 11.5L20.5 17.5C20.8978 17.8978 21.1213 18.4374 21.1213 19C21.1213 19.5626 20.8978 20.1022 20.5 20.5C20.1022 20.8978 19.5626 21.1213 19 21.1213C18.4374 21.1213 17.8978 20.8978 17.5 20.5L11.5 14.5C10.3804 15.0347 9.1225 15.2092 7.8996 14.9994C6.6767 14.7895 5.54893 14.2058 4.67157 13.3284C3.79422 12.451 3.21044 11.3233 3.00062 10.1004C2.79081 8.87748 2.96527 7.61961 3.5 6.49998L7 9.99998Z" stroke="#18181A" stroke-width="1.5" stroke-linecap="round" stroke-linejoin="round"/>
</svg>
