<svg width="24" height="24" viewBox="0 0 24 24" fill="none" xmlns="http://www.w3.org/2000/svg">
<path fill-rule="evenodd" clip-rule="evenodd" d="M8 4.75C7.40326 4.75 6.83097 4.98705 6.40901 5.40901C5.98705 5.83097 5.75 6.40326 5.75 7V10.25H18.25V7C18.25 6.40326 18.0129 5.83097 17.591 5.40901C17.169 4.98705 16.5967 4.75 16 4.75H8ZM19.75 10.25V7C19.75 6.00544 19.3549 5.05161 18.6516 4.34835C17.9484 3.64509 16.9946 3.25 16 3.25H8C7.00544 3.25 6.05161 3.64509 5.34835 4.34835C4.64509 5.05161 4.25 6.00544 4.25 7V10.25H3C2.58579 10.25 2.25 10.5858 2.25 11C2.25 11.4142 2.58579 11.75 3 11.75H21C21.4142 11.75 21.75 11.4142 21.75 11C21.75 10.5858 21.4142 10.25 21 10.25H19.75ZM5.56494 13.5355C6.01991 13.347 6.50754 13.25 7 13.25C7.49246 13.25 7.98009 13.347 8.43506 13.5355C8.89003 13.7239 9.30343 14.0001 9.65165 14.3483C9.99987 14.6966 10.2761 15.11 10.4645 15.5649C10.5564 15.7866 10.6265 16.016 10.6742 16.25H13.3258C13.4717 15.5349 13.8246 14.8721 14.3483 14.3483C15.0516 13.6451 16.0054 13.25 17 13.25C17.9946 13.25 18.9484 13.6451 19.6517 14.3483C20.3549 15.0516 20.75 16.0054 20.75 17C20.75 17.9946 20.3549 18.9484 19.6517 19.6516C18.9484 20.3549 17.9946 20.75 17 20.75C16.0054 20.75 15.0516 20.3549 14.3483 19.6516C13.8246 19.1279 13.4717 18.4651 13.3258 17.75H10.6742C10.6265 17.984 10.5564 18.2134 10.4645 18.4351C10.2761 18.89 9.99987 19.3034 9.65165 19.6516C9.30343 19.9999 8.89003 20.2761 8.43506 20.4645C7.98009 20.653 7.49246 20.75 7 20.75C6.50754 20.75 6.01991 20.653 5.56494 20.4645C5.10997 20.2761 4.69657 19.9999 4.34835 19.6516C4.00013 19.3034 3.72391 18.89 3.53545 18.4351C3.347 17.9801 3.25 17.4925 3.25 17C3.25 16.5075 3.347 16.0199 3.53545 15.5649C3.72391 15.11 4.00013 14.6966 4.34835 14.3483C4.69657 14.0001 5.10997 13.7239 5.56494 13.5355ZM7 14.75C6.70453 14.75 6.41194 14.8082 6.13896 14.9213C5.86598 15.0343 5.61794 15.2001 5.40901 15.409C5.20008 15.6179 5.03434 15.866 4.92127 16.139C4.8082 16.4119 4.75 16.7045 4.75 17C4.75 17.2955 4.8082 17.5881 4.92127 17.861C5.03434 18.134 5.20008 18.3821 5.40901 18.591C5.61794 18.7999 5.86598 18.9657 6.13896 19.0787C6.41194 19.1918 6.70453 19.25 7 19.25C7.29547 19.25 7.58806 19.1918 7.86104 19.0787C8.13402 18.9657 8.38206 18.7999 8.59099 18.591C8.79992 18.3821 8.96566 18.134 9.07873 17.861C9.1918 17.5881 9.25 17.2955 9.25 17C9.25 16.7045 9.1918 16.4119 9.07873 16.139C8.96566 15.866 8.79992 15.6179 8.59099 15.409C8.38206 15.2001 8.13402 15.0343 7.86104 14.9213C7.58806 14.8082 7.29547 14.75 7 14.75ZM17 14.75C16.4033 14.75 15.831 14.9871 15.409 15.409C14.9871 15.831 14.75 16.4033 14.75 17C14.75 17.5967 14.9871 18.169 15.409 18.591C15.831 19.0129 16.4033 19.25 17 19.25C17.5967 19.25 18.169 19.0129 18.591 18.591C19.0129 18.169 19.25 17.5967 19.25 17C19.25 16.4033 19.0129 15.831 18.591 15.409C18.169 14.9871 17.5967 14.75 17 14.75Z" fill="#18181A"/>
</svg>
