<svg width="24" height="24" viewBox="0 0 24 24" fill="none" xmlns="http://www.w3.org/2000/svg">
<g clip-path="url(#clip0_2959_18)">
<path fill-rule="evenodd" clip-rule="evenodd" d="M11.3004 3.75C11.8248 3.75 12.25 4.17517 12.25 4.69965V11.3004C12.25 11.8248 11.8248 12.25 11.3004 12.25H4.69965C4.17517 12.25 3.75 11.8248 3.75 11.3004V4.69965C3.75 4.17517 4.17517 3.75 4.69965 3.75H11.3004ZM13.75 4.69965C13.75 3.34674 12.6533 2.25 11.3004 2.25H4.69965C3.34674 2.25 2.25 3.34674 2.25 4.69965V11.3004C2.25 12.6533 3.34674 13.75 4.69965 13.75H11.3004C12.6533 13.75 13.75 12.6533 13.75 11.3004V4.69965Z" fill="black"/>
<path fill-rule="evenodd" clip-rule="evenodd" d="M19.3631 11.75H13.5V10.25H19.3631C19.6766 10.25 19.987 10.3117 20.2765 10.4317C20.5661 10.5516 20.8293 10.7275 21.0509 10.9491C21.2725 11.1707 21.4484 11.4339 21.5683 11.7235C21.6883 12.013 21.75 12.3234 21.75 12.6369V19.3631C21.75 19.9962 21.4985 20.6033 21.0509 21.0509C20.6033 21.4985 19.9962 21.75 19.3631 21.75H12.6369C12.0038 21.75 11.3967 21.4985 10.9491 21.0509C10.5015 20.6033 10.25 19.9962 10.25 19.3631V13.5H11.75V19.3631C11.75 19.5983 11.8434 19.8239 12.0098 19.9902C12.1761 20.1566 12.4017 20.25 12.6369 20.25H19.3631C19.5983 20.25 19.8239 20.1566 19.9902 19.9902C20.1566 19.8239 20.25 19.5983 20.25 19.3631V12.6369C20.25 12.5204 20.2271 12.4051 20.1825 12.2975C20.1379 12.1899 20.0726 12.0921 19.9902 12.0098C19.9079 11.9274 19.8101 11.8621 19.7025 11.8175C19.5949 11.7729 19.4796 11.75 19.3631 11.75Z" fill="black"/>
<path fill-rule="evenodd" clip-rule="evenodd" d="M7.5 4.75C7.91421 4.75 8.25 5.08579 8.25 5.5V5.75H10C10.4142 5.75 10.75 6.08579 10.75 6.5C10.75 6.91421 10.4142 7.25 10 7.25H9.55858C9.36768 7.80991 9.07415 8.47305 8.66842 9.11673C9.11075 9.50516 9.51338 9.75 10 9.75C10.4142 9.75 10.75 10.0858 10.75 10.5C10.75 10.9142 10.4142 11.25 10 11.25C9.0393 11.25 8.29622 10.7767 7.74299 10.3033C7.56568 10.4775 7.37559 10.6294 7.15771 10.7572C6.71408 11.0175 6.21914 11.1405 5.6233 11.2398C5.21472 11.3079 4.8283 11.0319 4.76021 10.6233C4.69211 10.2147 4.96812 9.8283 5.3767 9.7602C5.92707 9.66848 6.19909 9.58053 6.39862 9.46346C6.59277 9.34954 6.78115 9.17113 7.08776 8.76764C7.46005 8.27769 7.74791 7.73754 7.95393 7.25H5.5C5.08579 7.25 4.75 6.91421 4.75 6.5C4.75 6.08579 5.08579 5.75 5.5 5.75H6.75V5.5C6.75 5.08579 7.08579 4.75 7.5 4.75Z" fill="black"/>
<path fill-rule="evenodd" clip-rule="evenodd" d="M16 15.177L15.4635 16.25H16.5365L16 15.177ZM17.2865 17.75L17.8292 18.8354C18.0144 19.2059 18.4649 19.356 18.8354 19.1708C19.2059 18.9856 19.3561 18.5351 19.1708 18.1646L16.8497 13.5223C16.4996 12.8221 15.5004 12.8221 15.1503 13.5223L12.8292 18.1646C12.6439 18.5351 12.7941 18.9856 13.1646 19.1708C13.5351 19.356 13.9856 19.2059 14.1708 18.8354L14.7135 17.75H17.2865Z" fill="black"/>
</g>
<defs>
<clipPath id="clip0_2959_18">
<rect width="24" height="24" fill="white"/>
</clipPath>
</defs>
</svg>
