<svg width="24" height="24" viewBox="0 0 24 24" fill="none" xmlns="http://www.w3.org/2000/svg">
<path d="M20.9306 6.67922C20.3586 6.92295 19.7271 7.07294 19.1088 7.1698C19.4031 7.12293 19.8329 6.62297 20.0048 6.41987C20.2693 6.11052 20.4875 5.75743 20.6099 5.37933C20.6264 5.35121 20.6363 5.31371 20.6066 5.28872C20.5669 5.27309 20.5404 5.28247 20.5107 5.29497C19.823 5.64494 19.1088 5.89804 18.3517 6.07615C18.2888 6.09177 18.2426 6.07615 18.2029 6.03865C18.1401 5.97303 18.0806 5.90741 18.0144 5.85742C17.697 5.60119 17.3532 5.40121 16.9696 5.25122C16.4638 5.05749 15.9116 4.97312 15.3661 5.00749C14.8371 5.03874 14.3147 5.18248 13.8452 5.41371C13.3724 5.64494 12.9525 5.96991 12.6186 6.3605C12.2714 6.76359 12.0168 7.24167 11.8846 7.74788C11.7589 8.23533 11.7689 8.71967 11.8449 9.21337C11.8581 9.29462 11.8482 9.30711 11.7689 9.29462C8.80312 8.87903 6.34655 7.87599 4.35286 5.72618C4.2669 5.63244 4.22061 5.63244 4.14787 5.73243C3.27502 6.96982 3.69822 8.95715 4.78929 9.93206C4.93477 10.0633 5.08355 10.1914 5.24556 10.3102C5.18605 10.3227 4.46197 10.2477 3.81394 9.93206C3.72798 9.87894 3.68499 9.91019 3.67508 10.0039C3.66846 10.1383 3.67838 10.2602 3.69822 10.407C3.86684 11.66 4.78268 12.8193 6.04237 13.2724C6.19116 13.3318 6.35647 13.3849 6.51848 13.4099C6.23083 13.4693 5.93657 13.513 5.11331 13.4505C5.01081 13.4318 4.97114 13.4817 5.01081 13.5724C5.62909 15.1629 6.96152 15.6378 7.96002 15.9065C8.09227 15.9284 8.22783 15.9284 8.36008 15.9597C8.35347 15.9722 8.34355 15.9722 8.33694 15.9815C8.00631 16.4596 6.85903 16.8127 6.32341 16.9908C5.35136 17.3127 4.29335 17.4564 3.2651 17.3595C3.09978 17.3377 3.06672 17.3377 3.02043 17.3595C2.97414 17.3845 3.01382 17.422 3.06672 17.4627C3.27502 17.5939 3.48662 17.7095 3.70483 17.8189C4.35617 18.147 5.03726 18.4063 5.74812 18.5907C9.4214 19.55 13.5609 18.8438 16.3216 16.2534C18.4872 14.2192 19.2477 11.4132 19.2477 8.60405C19.2477 8.49469 19.3865 8.43219 19.4659 8.37595C20.0313 7.97598 20.4842 7.4979 20.9041 6.96045C21 6.84171 21 6.73234 21 6.68859V6.67297C21 6.62922 21 6.64172 20.9273 6.67297L20.9306 6.67922Z" fill="#18181A"/>
</svg>
