<svg width="24" height="24" viewBox="0 0 24 24" fill="none" xmlns="http://www.w3.org/2000/svg">
<path d="M14.058 3.41C12.251 4.177 11.063 5.863 11.002 7.79L11 7.972L10.757 7.949C8.365 7.68 6.259 6.437 4.813 4.418C4.71509 4.28116 4.58423 4.17125 4.43255 4.09843C4.28086 4.02561 4.11326 3.99224 3.94525 4.00141C3.77724 4.01059 3.61426 4.062 3.47141 4.1509C3.32855 4.2398 3.21044 4.36331 3.128 4.51L3.031 4.696L2.982 4.795C2.263 6.28 1.792 8.085 1.965 9.998L1.995 10.271C2.278 12.534 3.495 14.486 5.774 15.95L5.947 16.057L5.866 16.1C4.551 16.763 3.348 17.052 2.039 17C0.983004 16.96 0.593004 18.372 1.521 18.878C5.119 20.839 8.982 21.444 12.313 20.478C16.373 19.298 19.465 16.255 20.648 12.045L20.775 11.55C21.013 10.557 21.147 9.544 21.176 8.526L21.179 8.194L21.572 7.415L22.012 6.553L22.226 6.119L22.344 5.872C22.609 5.307 22.8 4.839 22.918 4.442L22.932 4.386L22.94 4.368C23.16 3.775 22.774 3.01 21.999 3.01L21.877 3.017C21.798 3.02671 21.7205 3.04584 21.646 3.074L21.56 3.112C21.2746 3.25059 20.9807 3.37083 20.68 3.472L20.324 3.587L20.053 3.667L19.281 3.881C17.945 2.763 16.137 2.627 14.269 3.327L14.058 3.41Z" fill="#18181A"/>
</svg>
