<svg width="24" height="24" viewBox="0 0 24 24" fill="none" xmlns="http://www.w3.org/2000/svg">
<path fill-rule="evenodd" clip-rule="evenodd" d="M13.4697 2.96967C13.7626 2.67678 14.2374 2.67678 14.5303 2.96967L21.0303 9.46967C21.3232 9.76256 21.3232 10.2374 21.0303 10.5303C20.7374 10.8232 20.2626 10.8232 19.9697 10.5303L19.5 10.0607L16.7962 12.7645C16.3672 13.1935 16.035 13.7094 15.822 14.2774L14.9304 16.6549C14.7425 17.1561 14.4494 17.6113 14.0708 17.9898L13.7374 18.3232C13.054 19.0066 11.946 19.0066 11.2626 18.3232L9 16.0607L5.03033 20.0303C4.73744 20.3232 4.26256 20.3232 3.96967 20.0303C3.67678 19.7374 3.67678 19.2626 3.96967 18.9697L7.93934 15L5.67678 12.7374C4.99336 12.054 4.99336 10.946 5.67678 10.2626L6.01017 9.92917C6.3887 9.55064 6.84388 9.25755 7.34511 9.06958L9.72257 8.17804C10.2906 7.96501 10.8065 7.63284 11.2355 7.20384L13.9393 4.5L13.4697 4.03033C13.1768 3.73744 13.1768 3.26256 13.4697 2.96967ZM15 5.56066L12.2962 8.2645C11.7158 8.84491 11.0178 9.29432 10.2493 9.58253L7.87179 10.4741C7.57106 10.5869 7.29795 10.7627 7.07083 10.9898L6.73744 11.3232C6.63981 11.4209 6.63981 11.5791 6.73744 11.6768L12.3232 17.2626C12.4209 17.3602 12.5791 17.3602 12.6768 17.2626L13.0102 16.9292C13.2373 16.7021 13.4131 16.4289 13.5259 16.1282L14.4175 13.7507C14.7057 12.9822 15.1551 12.2842 15.7355 11.7038L18.4393 9L15 5.56066Z" fill="#18181A"/>
<path d="M4 4L20 20" stroke="#18181A" stroke-linecap="round"/>
</svg>
