<svg width="24" height="24" viewBox="0 0 24 24" fill="none" xmlns="http://www.w3.org/2000/svg">
<path fill-rule="evenodd" clip-rule="evenodd" d="M5.64124 3.64124C6.53204 2.75044 7.74022 2.25 9 2.25C10.2598 2.25 11.468 2.75044 12.3588 3.64124C13.2496 4.53204 13.75 5.74022 13.75 7C13.75 8.25978 13.2496 9.46796 12.3588 10.3588C11.468 11.2496 10.2598 11.75 9 11.75C7.74022 11.75 6.53204 11.2496 5.64124 10.3588C4.75044 9.46796 4.25 8.25978 4.25 7C4.25 5.74022 4.75044 4.53204 5.64124 3.64124ZM9 3.75C8.13805 3.75 7.3114 4.09241 6.7019 4.7019C6.09241 5.3114 5.75 6.13805 5.75 7C5.75 7.86195 6.09241 8.6886 6.7019 9.2981C7.3114 9.90759 8.13805 10.25 9 10.25C9.86195 10.25 10.6886 9.90759 11.2981 9.2981C11.9076 8.6886 12.25 7.86195 12.25 7C12.25 6.13805 11.9076 5.3114 11.2981 4.7019C10.6886 4.09241 9.86195 3.75 9 3.75ZM15.2734 2.94398C15.3762 2.54271 15.7848 2.3007 16.186 2.40344C17.2078 2.66505 18.1134 3.25927 18.7601 4.09244C19.4068 4.9256 19.7578 5.9503 19.7578 7.005C19.7578 8.05971 19.4068 9.08441 18.7601 9.91757C18.1134 10.7507 17.2078 11.345 16.186 11.6066C15.7848 11.7093 15.3762 11.4673 15.2734 11.066C15.1707 10.6648 15.4127 10.2562 15.814 10.1534C16.5131 9.97445 17.1327 9.56787 17.5752 8.99781C18.0177 8.42776 18.2578 7.72664 18.2578 7.005C18.2578 6.28337 18.0177 5.58225 17.5752 5.01219C17.1327 4.44214 16.5131 4.03556 15.814 3.85657C15.4127 3.75383 15.1707 3.34524 15.2734 2.94398ZM7 15.75C6.13805 15.75 5.3114 16.0924 4.7019 16.7019C4.09241 17.3114 3.75 18.138 3.75 19V21C3.75 21.4142 3.41421 21.75 3 21.75C2.58579 21.75 2.25 21.4142 2.25 21V19C2.25 17.7402 2.75044 16.532 3.64124 15.6412C4.53204 14.7504 5.74022 14.25 7 14.25H11C12.1394 14.25 13.1855 14.6519 14.0041 15.3199C14.3251 15.5818 14.373 16.0542 14.1111 16.3751C13.8492 16.6961 13.3768 16.744 13.0559 16.4821C12.4945 16.0241 11.7806 15.75 11 15.75H7ZM19 15.25C19.4142 15.25 19.75 15.5858 19.75 16V18.25H22C22.4142 18.25 22.75 18.5858 22.75 19C22.75 19.4142 22.4142 19.75 22 19.75H19.75V22C19.75 22.4142 19.4142 22.75 19 22.75C18.5858 22.75 18.25 22.4142 18.25 22V19.75H16C15.5858 19.75 15.25 19.4142 15.25 19C15.25 18.5858 15.5858 18.25 16 18.25H18.25V16C18.25 15.5858 18.5858 15.25 19 15.25Z" fill="#18181A"/>
</svg>
