<svg width="24" height="24" viewBox="0 0 24 24" fill="none" xmlns="http://www.w3.org/2000/svg">
<path fill-rule="evenodd" clip-rule="evenodd" d="M8.64124 3.64124C9.53204 2.75044 10.7402 2.25 12 2.25C13.2598 2.25 14.468 2.75044 15.3588 3.64124C16.2496 4.53204 16.75 5.74022 16.75 7C16.75 8.25978 16.2496 9.46796 15.3588 10.3588C14.468 11.2496 13.2598 11.75 12 11.75C10.7402 11.75 9.53204 11.2496 8.64124 10.3588C7.75044 9.46796 7.25 8.25978 7.25 7C7.25 5.74022 7.75044 4.53204 8.64124 3.64124ZM12 3.75C11.138 3.75 10.3114 4.09241 9.7019 4.7019C9.09241 5.3114 8.75 6.13805 8.75 7C8.75 7.86195 9.09241 8.6886 9.7019 9.2981C10.3114 9.90759 11.138 10.25 12 10.25C12.862 10.25 13.6886 9.90759 14.2981 9.2981C14.9076 8.6886 15.25 7.86195 15.25 7C15.25 6.13805 14.9076 5.3114 14.2981 4.7019C13.6886 4.09241 12.862 3.75 12 3.75ZM10 15.75C9.13805 15.75 8.3114 16.0924 7.7019 16.7019C7.09241 17.3114 6.75 18.138 6.75 19V21C6.75 21.4142 6.41421 21.75 6 21.75C5.58579 21.75 5.25 21.4142 5.25 21V19C5.25 17.7402 5.75044 16.532 6.64124 15.6412C7.53204 14.7504 8.74022 14.25 10 14.25H14C15.2598 14.25 16.468 14.7504 17.3588 15.6412C18.2496 16.532 18.75 17.7402 18.75 19V21C18.75 21.4142 18.4142 21.75 18 21.75C17.5858 21.75 17.25 21.4142 17.25 21V19C17.25 18.138 16.9076 17.3114 16.2981 16.7019C15.6886 16.0924 14.862 15.75 14 15.75H10Z" fill="#18181A"/>
</svg>
