<svg width="24" height="24" viewBox="0 0 24 24" fill="none" xmlns="http://www.w3.org/2000/svg">
<path fill-rule="evenodd" clip-rule="evenodd" d="M5 6.75C4.66848 6.75 4.35054 6.8817 4.11612 7.11612C3.8817 7.35054 3.75 7.66848 3.75 8V16C3.75 16.3315 3.8817 16.6495 4.11612 16.8839C4.35054 17.1183 4.66848 17.25 5 17.25H13C13.3315 17.25 13.6495 17.1183 13.8839 16.8839C14.1183 16.6495 14.25 16.3315 14.25 16V8C14.25 7.66848 14.1183 7.35054 13.8839 7.11612C13.6495 6.8817 13.3315 6.75 13 6.75H5ZM15.75 8.78659V8C15.75 7.27065 15.4603 6.57118 14.9445 6.05546C14.4288 5.53973 13.7293 5.25 13 5.25H5C4.27065 5.25 3.57118 5.53973 3.05546 6.05546C2.53973 6.57118 2.25 7.27065 2.25 8V16C2.25 16.7293 2.53973 17.4288 3.05546 17.9445C3.57118 18.4603 4.27065 18.75 5 18.75H13C13.7293 18.75 14.4288 18.4603 14.9445 17.9445C15.4603 17.4288 15.75 16.7293 15.75 16V15.2134L19.2176 16.9468C19.4844 17.0801 19.7809 17.1431 20.0787 17.1297C20.3766 17.1163 20.6661 17.027 20.9198 16.8702C21.1735 16.7135 21.3829 16.4946 21.5282 16.2342C21.6735 15.9738 21.7498 15.6806 21.75 15.3824V8.618C21.7498 8.31981 21.6735 8.02622 21.5282 7.76582C21.3829 7.50543 21.1735 7.28648 20.9198 7.12976C20.6661 6.97303 20.3766 6.88372 20.0787 6.8703C19.7809 6.85689 19.4845 6.91981 19.2177 7.0531L15.75 8.78659ZM15.75 10.4636V13.5364L19.8883 15.6051C19.8882 15.6051 19.8883 15.6051 19.8883 15.6051C19.9263 15.6241 19.9687 15.6331 20.0112 15.6312C20.0538 15.6293 20.0952 15.6165 20.1314 15.5941C20.1676 15.5718 20.1976 15.5405 20.2183 15.5033C20.2391 15.4661 20.25 15.4242 20.25 15.3816V8.6184C20.25 8.5758 20.2391 8.53391 20.2183 8.49671C20.1976 8.45952 20.1676 8.42824 20.1314 8.40585C20.0952 8.38346 20.0538 8.3707 20.0112 8.36878C19.9687 8.36687 19.9264 8.37584 19.8884 8.39485C19.8883 8.39486 19.8884 8.39483 19.8884 8.39485L15.75 10.4636Z" fill="#18181A"/>
</svg>
