<svg width="24" height="24" viewBox="0 0 24 24" fill="none" xmlns="http://www.w3.org/2000/svg">
<path fill-rule="evenodd" clip-rule="evenodd" d="M10.2271 4.81876C10.2158 4.81498 10.2035 4.81538 10.1924 4.81989C10.1814 4.82439 10.1723 4.8327 10.1668 4.84331C10.1456 4.88459 10.1205 4.92381 10.092 4.96046L6.59201 9.46046C6.44992 9.64315 6.23144 9.75 6 9.75H4C3.9337 9.75 3.87011 9.77634 3.82322 9.82323C3.77634 9.87011 3.75 9.9337 3.75 10V14C3.75 14.0663 3.77634 14.1299 3.82322 14.1768C3.87011 14.2237 3.9337 14.25 4 14.25H6C6.23144 14.25 6.44992 14.3569 6.59201 14.5395L10.092 19.0395C10.1205 19.0762 10.1456 19.1154 10.1668 19.1567C10.1723 19.1673 10.1814 19.1756 10.1924 19.1801C10.2035 19.1846 10.2158 19.185 10.2271 19.1812C10.2384 19.1775 10.248 19.1698 10.2541 19.1595C10.2603 19.1493 10.2626 19.1372 10.2606 19.1255C10.2535 19.084 10.25 19.042 10.25 19V5C10.25 4.95797 10.2535 4.916 10.2606 4.87456C10.2626 4.86279 10.2603 4.8507 10.2541 4.84046C10.248 4.83023 10.2384 4.82253 10.2271 4.81876ZM9.62657 3.4307C9.9692 3.29115 10.3504 3.27874 10.7014 3.39573C11.0524 3.51273 11.35 3.7514 11.5403 4.06862C11.7181 4.36481 11.7914 4.71124 11.75 5.05278V18.9472C11.7914 19.2888 11.7181 19.6352 11.5403 19.9314C11.35 20.2486 11.0524 20.4873 10.7014 20.6043C10.3504 20.7213 9.9692 20.7089 9.62657 20.5693C9.30905 20.44 9.0441 20.2093 8.87219 19.9144L5.63319 15.75H4C3.53587 15.75 3.09075 15.5656 2.76256 15.2374C2.43437 14.9093 2.25 14.4641 2.25 14V10C2.25 9.53587 2.43437 9.09076 2.76256 8.76257C3.09075 8.43438 3.53587 8.25 4 8.25H5.63319L8.87219 4.08557C9.0441 3.79067 9.30905 3.56004 9.62657 3.4307ZM17.1167 4.5286C17.377 4.20643 17.8492 4.15632 18.1714 4.41667C19.3024 5.33062 20.2146 6.48597 20.8412 7.7981C21.4679 9.11023 21.7931 10.5459 21.7931 12C21.7931 13.4541 21.4679 14.8898 20.8412 16.2019C20.2146 17.514 19.3024 18.6694 18.1714 19.5833C17.8492 19.8437 17.377 19.7936 17.1167 19.4714C16.8563 19.1492 16.9064 18.677 17.2286 18.4167C18.1856 17.6433 18.9574 16.6657 19.4877 15.5555C20.0179 14.4452 20.2931 13.2304 20.2931 12C20.2931 10.7696 20.0179 9.55481 19.4877 8.44454C18.9574 7.33428 18.1856 6.35668 17.2286 5.58333C16.9064 5.32298 16.8563 4.85076 17.1167 4.5286ZM14.4 7.55C14.6485 7.21863 15.1186 7.15147 15.45 7.4C16.1641 7.9356 16.7437 8.6301 17.143 9.42852C17.5422 10.2269 17.75 11.1073 17.75 12C17.75 12.8927 17.5422 13.7731 17.143 14.5715C16.7437 15.3699 16.1641 16.0644 15.45 16.6C15.1186 16.8485 14.6485 16.7814 14.4 16.45C14.1515 16.1186 14.2186 15.6485 14.55 15.4C15.0778 15.0041 15.5062 14.4908 15.8013 13.9007C16.0964 13.3105 16.25 12.6598 16.25 12C16.25 11.3402 16.0964 10.6895 15.8013 10.0993C15.5062 9.50921 15.0778 8.99587 14.55 8.6C14.2186 8.35147 14.1515 7.88137 14.4 7.55Z" fill="#18181A"/>
</svg>
